{
classes = (
{
automatic = 1;
code = "A Aacute Abreve Abreveacute Abrevedotbelow Abrevegrave Abrevehookabove Abrevetilde Acircumflex Acircumflexacute Acircumflexdotbelow Acircumflexgrave Acircumflexhookabove Acircumflextilde Adieresis Adotbelow Agrave Ahookabove Amacron Aogonek Aring Aringacute Atilde AE AEacute B C Cacute Ccaron Ccedilla Ccircumflex Cdotaccent D DZ DZcaron Eth Dcaron Dcroat Ddotbelow Dz Dzcaron E Eacute Ebreve Ecaron Ecircumflex Ecircumflexacute Ecircumflexdotbelow Ecircumflexgrave Ecircumflexhookabove Ecircumflextilde Edieresis Edotaccent Edotbelow Egrave Ehookabove Emacron Eogonek Etilde F G Gbreve Gcircumflex Gcommaaccent Gdotaccent H Hbar Hcircumflex Hdotbelow I IJ Iacute Ibreve Icircumflex Idieresis Idotaccent Idotbelow Igrave Ihookabove Imacron Iogonek Itilde J Jcircumflex K Kcommaaccent L LJ Lacute Lcaron Lcommaaccent Ldot Lj Lslash M N NJ Nacute Ncaron Ncommaaccent Ndotaccent Eng Nj Ntilde O Oacute Obreve Ocircumflex Ocircumflexacute Ocircumflexdotbelow Ocircumflexgrave Ocircumflexhookabove Ocircumflextilde Odieresis Odotbelow Ograve Ohookabove Ohorn Ohornacute Ohorndotbelow Ohorngrave Ohornhookabove Ohorntilde Ohungarumlaut Omacron Oogonek Oslash Oslashacute Otilde OE P Thorn Q R Racute Rcaron Rcommaaccent Rdotbelow S Sacute Scaron Scedilla Scircumflex Scommaaccent Sdotbelow Germandbls Schwa T Tbar Tcaron Tcedilla Tcommaaccent Tdotbelow U Uacute Ubreve Ucircumflex Udieresis Udotbelow Ugrave Uhookabove Uhorn Uhornacute Uhorndotbelow Uhorngrave Uhornhookabove Uhorntilde Uhungarumlaut Umacron Uogonek Uring Utilde V W Wacute Wcircumflex Wdieresis Wgrave X Y Yacute Ycircumflex Ydieresis Ydotbelow Ygrave Yhookabove Ytilde Z Zacute Zcaron Zdotaccent Zdotbelow Iacute_J.loclNLD Y.loclGUA Yacute.loclGUA Ycircumflex.loclGUA Ydieresis.loclGUA Ydotbelow.loclGUA Ygrave.loclGUA Yhookabove.loclGUA Ytilde.loclGUA Cacute.loclPLK Nacute.loclPLK Oacute.loclPLK Sacute.loclPLK Zacute.loclPLK Delta Omega";
name = Uppercase;
},
{
automatic = 1;

glyphs = (
{
glyphname = A;
lastChange = "2015-01-29 03:32:02 +0000";
layers = (
{
anchors = (
{
name = bottom;
position = "{328, 0}";
},
{
name = ogonek;
position = "{617, 0}";
},
{
name = top;
position = "{325, 740}";
}
);
layerId = "809BDC91-2406-4790-B9EF-A5FFF608A06A";
name = Regular;
paths = (
{
closed = 1;
nodes = (
"63 -2 LINE SMOOTH",
"85 -2 OFFCURVE",
"101 2 OFFCURVE",
"105 15 CURVE SMOOTH",
"166 189 LINE",
"476 189 LINE",
"538 15 LINE SMOOTH",
"542 2 OFFCURVE",
"560 -2 OFFCURVE",
"581 -2 CURVE SMOOTH",
"590 -2 LINE SMOOTH",
"621 -2 OFFCURVE",
"635 6 OFFCURVE",
"635 16 CURVE SMOOTH",
"635 21 OFFCURVE",
"634 24 OFFCURVE",
"632 30 CURVE SMOOTH",
"381 724 LINE SMOOTH",
"378 739 OFFCURVE",
"360 742 OFFCURVE",
"339 742 CURVE SMOOTH",
"308 742 LINE SMOOTH",
"287 742 OFFCURVE",
"271 739 OFFCURVE",
"266 724 CURVE SMOOTH",
"15 31 LINE SMOOTH",
"13 24 OFFCURVE",
"12 21 OFFCURVE",
"12 16 CURVE SMOOTH",
"12 4 OFFCURVE",
"25 -2 OFFCURVE",
"57 -2 CURVE SMOOTH"
);
},
{
closed = 1;
nodes = (
"306 583 LINE SMOOTH",
"314 603 OFFCURVE",
"318 625 OFFCURVE",
"321 645 CURVE",
"324 645 LINE",
"327 625 OFFCURVE",
"331 602 OFFCURVE",
"337 583 CURVE SMOOTH",
"447 269 LINE",
"194 269 LINE"
);
}
);
width = 647;
},
{
anchors = (
{
name = bottom;
position = "{328, 0}";
},
{
name = ogonek;
position = "{583, 0}";
},
{
name = top;
position = "{325, 740}";
}
);
layerId = "466C6FD7-E5A4-4003-892F-69A78A0A7E44";
name = Bold;
paths = (
{
closed = 1;
nodes = (
"107 -2 LINE SMOOTH",
"131 -2 OFFCURVE",
"150 4 OFFCURVE",
"156 21 CURVE SMOOTH",
"198 149 LINE",
"447 149 LINE",
"490 21 LINE SMOOTH",
"495 3 OFFCURVE",
"518 -2 OFFCURVE",
"549 -2 CURVE SMOOTH",
"595 -2 LINE SMOOTH",
"632 -2 OFFCURVE",
"647 7 OFFCURVE",
"647 22 CURVE SMOOTH",
"647 26 OFFCURVE",
"646 33 OFFCURVE",
"645 40 CURVE SMOOTH",
"412 720 LINE SMOOTH",
"406 738 OFFCURVE",
"382 742 OFFCURVE",
"351 742 CURVE SMOOTH",
"297 742 LINE SMOOTH",
"266 742 OFFCURVE",
"243 738 OFFCURVE",
"237 720 CURVE SMOOTH",
"4 40 LINE SMOOTH",
"2 33 OFFCURVE",
"0 26 OFFCURVE",
"0 22 CURVE SMOOTH",
"0 7 OFFCURVE",
"21 -2 OFFCURVE",
"65 -2 CURVE SMOOTH"
);
},
{
closed = 1;
nodes = (
"305 476 LINE SMOOTH",
"314 499 OFFCURVE",
"317 521 OFFCURVE",
"320 544 CURVE",
"325 544 LINE",
"329 521 OFFCURVE",
"335 499 OFFCURVE",
"341 476 CURVE SMOOTH",
"401 288 LINE",
"242 288 LINE"
);
}
);
width = 647;
}
);
leftKerningGroup = A;
rightKerningGroup = A;
unicode = 0041;
},
{
glyphname = Aringacute;
lastChange = "2015-01-29 03:32:03 +0000";
layers = (
{
components = (
{
disableAlignment = 1;
name = ring;
transform = "{1, 0, 0, 1, 155, 63}";
}
);
layerId = "809BDC91-2406-4790-B9EF-A5FFF608A06A";
name = Regular;
paths = (
{
closed = 1;
nodes = (
"63 -2 LINE SMOOTH",
"85 -2 OFFCURVE",
"101 2 OFFCURVE",
"105 15 CURVE SMOOTH",
"166 189 LINE",
"476 189 LINE",
"538 15 LINE SMOOTH",
"542 2 OFFCURVE",
"560 -2 OFFCURVE",
"581 -2 CURVE SMOOTH",
"590 -2 LINE SMOOTH",
"621 -2 OFFCURVE",
"635 6 OFFCURVE",
"635 16 CURVE SMOOTH",
"635 21 OFFCURVE",
"634 24 OFFCURVE",
"632 30 CURVE SMOOTH",
"381 724 LINE",
"339 678 LINE",
"308 678 LINE",
"266 724 LINE",
"15 31 LINE SMOOTH",
"13 24 OFFCURVE",
"12 21 OFFCURVE",
"12 16 CURVE SMOOTH",
"12 4 OFFCURVE",
"25 -2 OFFCURVE",
"57 -2 CURVE SMOOTH"
);
},
{
closed = 1;
nodes = (
"306 583 LINE SMOOTH",
"314 603 OFFCURVE",
"318 625 OFFCURVE",
"321 645 CURVE",
"324 645 LINE",
"327 625 OFFCURVE",
"331 602 OFFCURVE",
"337 583 CURVE SMOOTH",
"447 269 LINE",
"194 269 LINE"
);
},
{
closed = 1;
nodes = (
"328 869 OFFCURVE",
"349 876 OFFCURVE",
"360 888 CURVE SMOOTH",
"427 956 OFFCURVE",
"437 961 OFFCURVE",
"437 968 CURVE SMOOTH",
"437 978 OFFCURVE",
"421 982 OFFCURVE",
"386 982 CURVE SMOOTH",
"352 982 OFFCURVE",
"333 975 OFFCURVE",
"320 955 CURVE SMOOTH",
"308 931 OFFCURVE",
"301 918 OFFCURVE",
"282 879 CURVE SMOOTH",
"282 872 OFFCURVE",
"289 869 OFFCURVE",
"306 869 CURVE SMOOTH"
);
}
);
width = 647;
},
{
components = (
{
disableAlignment = 1;
name = ring;
transform = "{1, 0, 0, 1, 155, 50}";
}
);
layerId = "466C6FD7-E5A4-4003-892F-69A78A0A7E44";
name = Bold;
paths = (
{
closed = 1;
nodes = (
"107 -2 LINE SMOOTH",
"131 -2 OFFCURVE",
"150 4 OFFCURVE",
"156 21 CURVE SMOOTH",
"198 149 LINE",
"447 149 LINE",
"490 21 LINE SMOOTH",
"495 3 OFFCURVE",
"518 -2 OFFCURVE",
"549 -2 CURVE SMOOTH",
"595 -2 LINE SMOOTH",
"632 -2 OFFCURVE",
"647 7 OFFCURVE",
"647 22 CURVE SMOOTH",
"647 26 OFFCURVE",
"646 33 OFFCURVE",
"645 40 CURVE SMOOTH",
"412 720 LINE",
"351 668 LINE",
"297 668 LINE",
"237 720 LINE",
"4 40 LINE SMOOTH",
"2 33 OFFCURVE",
"0 26 OFFCURVE",
"0 22 CURVE SMOOTH",
"0 7 OFFCURVE",
"21 -2 OFFCURVE",
"65 -2 CURVE SMOOTH"
);
},
{
closed = 1;
nodes = (
"305 476 LINE SMOOTH",
"314 499 OFFCURVE",
"317 521 OFFCURVE",
"320 544 CURVE",
"325 544 LINE",
"329 521 OFFCURVE",
"335 499 OFFCURVE",
"341 476 CURVE SMOOTH",
"401 288 LINE",
"242 288 LINE"
);
},
{
closed = 1;
nodes = (
"358 858 OFFCURVE",
"377 872 OFFCURVE",
"388 884 CURVE SMOOTH",
"467 958 OFFCURVE",
"473 961 OFFCURVE",
"473 969 CURVE SMOOTH",
"473 981 OFFCURVE",
"451 984 OFFCURVE",
"409 984 CURVE SMOOTH",
"366 984 OFFCURVE",
"332 977 OFFCURVE",
"318 956 CURVE SMOOTH",
"303 931 OFFCURVE",
"293 913 OFFCURVE",
"275 874 CURVE SMOOTH",
"275 862 OFFCURVE",
"283 858 OFFCURVE",
"308 858 CURVE SMOOTH"
);
}
);
width = 647;
}
);
leftKerningGroup = A;
rightKerningGroup = A;
unicode = 01FA;
},
{
glyphname = AE;
lastChange = "2015-01-29 03:32:02 +0000";
layers = (
{
anchors = (
{
name = top;
position = "{485, 740}";
}
);
layerId = "809BDC91-2406-4790-B9EF-A5FFF608A06A";
name = Regular;
paths = (
{
closed = 1;
nodes = (
"35 -2 LINE SMOOTH",
"54 -2 OFFCURVE",
"70 3 OFFCURVE",
"77 15 CURVE SMOOTH",
"162 189 LINE",
"474 189 LINE",
"507 31 LINE SMOOTH",
"511 9 OFFCURVE",
"522 0 OFFCURVE",
"545 0 CURVE SMOOTH",
"848 0 LINE SMOOTH",
"862 0 OFFCURVE",
"869 9 OFFCURVE",
"869 32 CURVE SMOOTH",
"869 49 LINE SMOOTH",
"869 71 OFFCURVE",
"862 81 OFFCURVE",
"848 81 CURVE SMOOTH",
"591 81 LINE",
"535 338 LINE",
"816 338 LINE SMOOTH",
"830 338 OFFCURVE",
"836 348 OFFCURVE",
"836 370 CURVE SMOOTH",
"836 386 LINE SMOOTH",
"836 410 OFFCURVE",
"830 418 OFFCURVE",
"816 418 CURVE SMOOTH",
"518 418 LINE",
"465 660 LINE",
"847 660 LINE SMOOTH",
"862 660 OFFCURVE",
"868 669 OFFCURVE",
"868 691 CURVE SMOOTH",
"868 708 LINE SMOOTH",
"868 730 OFFCURVE",
"862 740 OFFCURVE",
"847 740 CURVE SMOOTH",
"378 740 LINE SMOOTH",
"354 740 OFFCURVE",
"341 731 OFFCURVE",
"332 711 CURVE SMOOTH",
"-9 33 LINE SMOOTH",
"-11 26 OFFCURVE",
"-12 21 OFFCURVE",
"-12 16 CURVE SMOOTH",
"-12 4 OFFCURVE",
"-3 -2 OFFCURVE",
"29 -2 CURVE SMOOTH"
);
},
{
closed = 1;
nodes = (
"360 583 LINE",
"381 645 LINE",
"383 645 LINE",
"388 583 LINE",
"456 268 LINE",
"203 268 LINE"
);
}
);
width = 966.5;
},
{
anchors = (
{
name = top;
position = "{485, 740}";
}
);
layerId = "466C6FD7-E5A4-4003-892F-69A78A0A7E44";
name = Bold;
paths = (
{
closed = 1;
nodes = (
"105 -2 LINE SMOOTH",
"130 -2 OFFCURVE",
"147 6 OFFCURVE",
"153 21 CURVE SMOOTH",
"216 149 LINE",
"474 149 LINE",
"496 32 LINE SMOOTH",
"500 9 OFFCURVE",
"509 0 OFFCURVE",
"533 0 CURVE SMOOTH",
"882 0 LINE SMOOTH",
"904 0 OFFCURVE",
"914 16 OFFCURVE",
"914 53 CURVE SMOOTH",
"914 85 LINE SMOOTH",
"914 123 OFFCURVE",
"904 138 OFFCURVE",
"882 138 CURVE SMOOTH",
"636 138 LINE",
"603 309 LINE",
"852 309 LINE SMOOTH",
"876 309 OFFCURVE",
"884 326 OFFCURVE",
"884 363 CURVE SMOOTH",
"884 396 LINE SMOOTH",
"884 432 OFFCURVE",
"876 448 OFFCURVE",
"852 448 CURVE SMOOTH",
"576 448 LINE",
"547 601 LINE",
"881 601 LINE SMOOTH",
"903 601 OFFCURVE",
"913 617 OFFCURVE",
"913 655 CURVE SMOOTH",
"913 687 LINE SMOOTH",
"913 723 OFFCURVE",
"903 740 OFFCURVE",
"881 740 CURVE SMOOTH",
"391 740 LINE SMOOTH",
"369 740 OFFCURVE",
"355 731 OFFCURVE",
"345 711 CURVE SMOOTH",
"6 40 LINE SMOOTH",
"2 34 OFFCURVE",
"1 26 OFFCURVE",
"1 22 CURVE SMOOTH",
"1 7 OFFCURVE",
"22 -2 OFFCURVE",
"66 -2 CURVE SMOOTH"
);
},
{
closed = 1;
nodes = (
"380 481 LINE",
"409 567 LINE",
"412 567 LINE",
"412 479 LINE",
"447 288 LINE",
"285 288 LINE"
);
}
);
width = 966.5;
}
);
unicode = 00C6;
},
{
glyphname = B;
lastChange = "2015-01-29 03:32:02 +0000";
layers = (
{
layerId = "809BDC91-2406-4790-B9EF-A5FFF608A06A";
name = Regular;
paths = (
{
closed = 1;
nodes = (
"316 0 LINE SMOOTH",
"493 0 OFFCURVE",
"592 66 OFFCURVE",
"592 212 CURVE SMOOTH",
"592 351 OFFCURVE",
"443 388 OFFCURVE",
"443 388 CURVE",
"443 392 LINE",
"505 410 OFFCURVE",
"560 482 OFFCURVE",
"560 552 CURVE SMOOTH",
"560 664 OFFCURVE",
"480 740 OFFCURVE",
"322 740 CURVE SMOOTH",
"134 740 LINE SMOOTH",
"112 740 OFFCURVE",
"102 730 OFFCURVE",
"102 708 CURVE SMOOTH",
"102 32 LINE SMOOTH",
"102 9 OFFCURVE",
"112 0 OFFCURVE",
"134 0 CURVE SMOOTH"
);
},
{
closed = 1;
nodes = (
"194 340 LINE",
"332 340 LINE SMOOTH",
"441 340 OFFCURVE",
"495 294 OFFCURVE",
"495 216 CURVE SMOOTH",
"495 133 OFFCURVE",
"443 81 OFFCURVE",
"349 81 CURVE SMOOTH",
"194 81 LINE"
);
},
{
closed = 1;
nodes = (
"194 660 LINE",
"314 660 LINE SMOOTH",
"420 660 OFFCURVE",
"464 623 OFFCURVE",
"464 544 CURVE SMOOTH",
"464 475 OFFCURVE",
"403 421 OFFCURVE",
"318 421 CURVE SMOOTH",
"194 421 LINE"
);
}
);
width = 626.5;
},
{
layerId = "466C6FD7-E5A4-4003-892F-69A78A0A7E44";
name = Bold;
paths = (
{
closed = 1;
nodes = (
"339 0 LINE SMOOTH",
"518 0 OFFCURVE",
"603 78 OFFCURVE",
"603 214 CURVE SMOOTH",
"603 296 OFFCURVE",
"545 371 OFFCURVE",
"460 388 CURVE",
"459 392 LINE",
"522 418 OFFCURVE",
"573 481 OFFCURVE",
"573 552 CURVE SMOOTH",
"573 664 OFFCURVE",
"504 740 OFFCURVE",
"324 740 CURVE SMOOTH",
"115 740 LINE SMOOTH",
"85 740 OFFCURVE",
"72 727 OFFCURVE",
"72 698 CURVE SMOOTH",
"72 42 LINE SMOOTH",
"72 13 OFFCURVE",
"85 0 OFFCURVE",
"115 0 CURVE SMOOTH"
);
},
{
closed = 1;
nodes = (
"235 306 LINE",
"321 306 LINE SMOOTH",
"395 306 OFFCURVE",
"436 279 OFFCURVE",
"436 225 CURVE SMOOTH",
"436 169 OFFCURVE",
"400 138 OFFCURVE",
"339 138 CURVE SMOOTH",
"235 138 LINE"
);
},
{
closed = 1;
nodes = (
"235 602 LINE",
"310 602 LINE SMOOTH",
"375 602 OFFCURVE",
"406 576 OFFCURVE",
"406 524 CURVE SMOOTH",
"406 479 OFFCURVE",
"371 445 OFFCURVE",
"308 445 CURVE SMOOTH",
"235 445 LINE"
);
}
);
width = 626.5;
}
);
unicode = 0042;
},
{
glyphname = C;
lastChange = "2015-01-29 03:32:02 +0000";
layers = (
{
anchors = (
{
name = bottom;
position = "{381, 0}";
},
{
name = top;
position = "{375, 740}";
}
);
layerId = "809BDC91-2406-4790-B9EF-A5FFF608A06A";
name = Regular;
paths = (
{
closed = 1;
nodes = (
"523 -7 OFFCURVE",
"618 41 OFFCURVE",
"618 71 CURVE SMOOTH",
"618 83 OFFCURVE",
"596 127 OFFCURVE",
"582 127 CURVE SMOOTH",
"568 127 OFFCURVE",
"509 74 OFFCURVE",
"400 74 CURVE SMOOTH",
"234 74 OFFCURVE",
"156 166 OFFCURVE",
"156 369 CURVE SMOOTH",
"156 577 OFFCURVE",
"235 666 OFFCURVE",
"404 666 CURVE SMOOTH",
"506 666 OFFCURVE",
"557 619 OFFCURVE",
"568 619 CURVE SMOOTH",
"582 619 OFFCURVE",
"604 662 OFFCURVE",
"604 680 CURVE SMOOTH",
"604 709 OFFCURVE",
"507 746 OFFCURVE",
"402 746 CURVE SMOOTH",
"177 746 OFFCURVE",
"60 623 OFFCURVE",
"60 370 CURVE SMOOTH",
"60 113 OFFCURVE",
"169 -7 OFFCURVE",
"400 -7 CURVE SMOOTH"
);
}
);
width = 654.5;
},
{
anchors = (
{
name = bottom;
position = "{394, 0}";
},
{
name = top;
position = "{389, 740}";
}
);
layerId = "466C6FD7-E5A4-4003-892F-69A78A0A7E44";
name = Bold;
paths = (
{
closed = 1;
nodes = (
"479 -8 OFFCURVE",
"630 18 OFFCURVE",
"630 81 CURVE SMOOTH",
"630 99 OFFCURVE",
"602 172 OFFCURVE",
"569 172 CURVE SMOOTH",
"552 172 OFFCURVE",
"496 130 OFFCURVE",
"396 130 CURVE SMOOTH",
"274 130 OFFCURVE",
"214 212 OFFCURVE",
"214 371 CURVE SMOOTH",
"214 530 OFFCURVE",
"273 609 OFFCURVE",
"397 609 CURVE SMOOTH",
"498 609 OFFCURVE",
"540 575 OFFCURVE",
"552 575 CURVE SMOOTH",
"580 575 OFFCURVE",
"622 645 OFFCURVE",
"622 675 CURVE SMOOTH",
"622 719 OFFCURVE",
"494 749 OFFCURVE",
"401 749 CURVE SMOOTH",
"166 749 OFFCURVE",
"47 624 OFFCURVE",
"47 372 CURVE SMOOTH",
"47 111 OFFCURVE",
"159 -8 OFFCURVE",
"396 -8 CURVE SMOOTH"
);
}
);
width = 654.5;
}
);
unicode = 0043;
},
{
glyphname = D;
lastChange = "2015-01-29 03:32:03 +0000";
layers = (
{
anchors = (
{
name = bottom;
position = "{346, 0}";
},
{
name = center;
position = "{368, 370}";
},
{
name = top;
position = "{330, 740}";
}
);
layerId = "809BDC91-2406-4790-B9EF-A5FFF608A06A";
name = Regular;
paths = (
{
closed = 1;
nodes = (
"348 0 LINE SMOOTH",
"529 0 OFFCURVE",
"675 95 OFFCURVE",
"675 370 CURVE SMOOTH",
"675 644 OFFCURVE",
"529 740 OFFCURVE",
"348 740 CURVE SMOOTH",
"134 740 LINE SMOOTH",
"112 740 OFFCURVE",
"102 730 OFFCURVE",
"102 708 CURVE SMOOTH",
"102 32 LINE SMOOTH",
"102 9 OFFCURVE",
"112 0 OFFCURVE",
"134 0 CURVE SMOOTH"
);
},
{
closed = 1;
nodes = (
"194 660 LINE",
"340 660 LINE SMOOTH",
"473 660 OFFCURVE",
"578 581 OFFCURVE",
"578 370 CURVE SMOOTH",
"578 159 OFFCURVE",
"473 81 OFFCURVE",
"340 81 CURVE SMOOTH",
"194 81 LINE"
);
}
);
width = 734;
},
{
anchors = (
{
name = bottom;
position = "{349, 0}";
},
{
name = center;
position = "{368, 370}";
},
{
name = top;
position = "{351, 740}";
}
);
layerId = "466C6FD7-E5A4-4003-892F-69A78A0A7E44";
name = Bold;
paths = (
{
closed = 1;
nodes = (
"351 0 LINE SMOOTH",
"569 0 OFFCURVE",
"690 131 OFFCURVE",
"690 370 CURVE SMOOTH",
"690 609 OFFCURVE",
"569 740 OFFCURVE",
"351 740 CURVE SMOOTH",
"115 740 LINE SMOOTH",
"85 740 OFFCURVE",
"72 727 OFFCURVE",
"72 698 CURVE SMOOTH",
"72 42 LINE SMOOTH",
"72 13 OFFCURVE",
"85 0 OFFCURVE",
"115 0 CURVE SMOOTH"
);
},
{
closed = 1;
nodes = (
"236 601 LINE",
"351 601 LINE SMOOTH",
"465 601 OFFCURVE",
"522 520 OFFCURVE",
"522 370 CURVE SMOOTH",
"522 220 OFFCURVE",
"465 138 OFFCURVE",
"351 138 CURVE SMOOTH",
"236 138 LINE"
);
}
);
width = 734;
}
);
unicode = 0044;
},
{
glyphname = Eth;
lastChange = "2015-01-29 03:32:02 +0000";
layers = (
{
layerId = "809BDC91-2406-4790-B9EF-A5FFF608A06A";
name = Regular;
paths = (
{
closed = 1;
nodes = (
"349 0 LINE SMOOTH",
"531 0 OFFCURVE",
"677 95 OFFCURVE",
"677 370 CURVE SMOOTH",
"677 644 OFFCURVE",
"531 740 OFFCURVE",
"349 740 CURVE SMOOTH",
"121 740 LINE SMOOTH",
"100 740 OFFCURVE",
"89 730 OFFCURVE",
"89 708 CURVE SMOOTH",
"89 418 LINE",
"22 418 LINE SMOOTH",
"7 418 OFFCURVE",
"0 410 OFFCURVE",
"0 386 CURVE SMOOTH",
"0 370 LINE SMOOTH",
"0 348 OFFCURVE",
"7 338 OFFCURVE",
"22 338 CURVE SMOOTH",
"89 338 LINE",
"89 32 LINE SMOOTH",
"89 9 OFFCURVE",
"100 0 OFFCURVE",
"121 0 CURVE SMOOTH"
);
},
{
closed = 1;
nodes = (
"182 338 LINE",
"299 338 LINE SMOOTH",
"314 338 OFFCURVE",
"319 348 OFFCURVE",
"319 370 CURVE SMOOTH",
"319 386 LINE SMOOTH",
"319 410 OFFCURVE",
"314 418 OFFCURVE",
"299 418 CURVE SMOOTH",
"182 418 LINE",
"182 660 LINE",
"341 660 LINE SMOOTH",
"474 660 OFFCURVE",
"581 581 OFFCURVE",
"581 370 CURVE SMOOTH",
"581 159 OFFCURVE",
"474 81 OFFCURVE",
"341 81 CURVE SMOOTH",
"182 81 LINE"
);
}
);
width = 735;
},
{
layerId = "466C6FD7-E5A4-4003-892F-69A78A0A7E44";
name = Bold;
paths = (
{
closed = 1;
nodes = (
"353 0 LINE SMOOTH",
"571 0 OFFCURVE",
"691 131 OFFCURVE",
"691 370 CURVE SMOOTH",
"691 609 OFFCURVE",
"571 740 OFFCURVE",
"353 740 CURVE SMOOTH",
"116 740 LINE SMOOTH",
"87 740 OFFCURVE",
"75 727 OFFCURVE",
"75 698 CURVE SMOOTH",
"75 445 LINE",
"44 445 LINE SMOOTH",
"22 445 OFFCURVE",
"12 428 OFFCURVE",
"12 392 CURVE SMOOTH",
"12 361 LINE SMOOTH",
"12 323 OFFCURVE",
"22 307 OFFCURVE",
"44 307 CURVE SMOOTH",
"75 307 LINE",
"75 42 LINE SMOOTH",
"75 13 OFFCURVE",
"87 0 OFFCURVE",
"116 0 CURVE SMOOTH"
);
},
{
closed = 1;
nodes = (
"239 307 LINE",
"301 307 LINE SMOOTH",
"322 307 OFFCURVE",
"333 323 OFFCURVE",
"333 361 CURVE SMOOTH",
"333 392 LINE SMOOTH",
"333 428 OFFCURVE",
"322 445 OFFCURVE",
"301 445 CURVE SMOOTH",
"239 445 LINE",
"239 601 LINE",
"353 601 LINE SMOOTH",
"467 601 OFFCURVE",
"525 520 OFFCURVE",
"525 370 CURVE SMOOTH",
"525 220 OFFCURVE",
"467 138 OFFCURVE",
"353 138 CURVE SMOOTH",
"239 138 LINE"
);
}
);
width = 735;
}
);
unicode = 00D0;
},
{
glyphname = E;
lastChange = "2015-01-29 03:32:03 +0000";
layers = (
{
anchors = (
{
name = bottom;
position = "{318, 0}";
},
{
name = ogonek;
position = "{505, 0}";
},
{
name = top;
position = "{314, 740}";
}
);
layerId = "809BDC91-2406-4790-B9EF-A5FFF608A06A";
name = Regular;
paths = (
{
closed = 1;
nodes = (
"505 0 LINE SMOOTH",
"519 0 OFFCURVE",
"525 9 OFFCURVE",
"525 32 CURVE SMOOTH",
"525 49 LINE SMOOTH",
"525 71 OFFCURVE",
"519 81 OFFCURVE",
"505 81 CURVE SMOOTH",
"194 81 LINE",
"194 338 LINE",
"472 338 LINE SMOOTH",
"486 338 OFFCURVE",
"491 348 OFFCURVE",
"491 370 CURVE SMOOTH",
"491 386 LINE SMOOTH",
"491 410 OFFCURVE",
"486 418 OFFCURVE",
"472 418 CURVE SMOOTH",
"194 418 LINE",
"194 660 LINE",
"504 660 LINE SMOOTH",
"518 660 OFFCURVE",
"523 669 OFFCURVE",
"523 691 CURVE SMOOTH",
"523 708 LINE SMOOTH",
"523 730 OFFCURVE",
"518 740 OFFCURVE",
"504 740 CURVE SMOOTH",
"134 740 LINE SMOOTH",
"112 740 OFFCURVE",
"102 730 OFFCURVE",
"102 708 CURVE SMOOTH",
"102 32 LINE SMOOTH",
"102 9 OFFCURVE",
"112 0 OFFCURVE",
"134 0 CURVE SMOOTH"
);
}
);
width = 576.5;
},
{
anchors = (
{
name = bottom;
position = "{303, 0}";
},
{
name = ogonek;
position = "{500, 0}";
},
{
name = top;
position = "{312, 740}";
}
);
layerId = "466C6FD7-E5A4-4003-892F-69A78A0A7E44";
name = Bold;
paths = (
{
closed = 1;
nodes = (
"504 0 LINE SMOOTH",
"525 0 OFFCURVE",
"535 16 OFFCURVE",
"535 53 CURVE SMOOTH",
"535 85 LINE SMOOTH",
"535 123 OFFCURVE",
"525 138 OFFCURVE",
"504 138 CURVE SMOOTH",
"235 138 LINE",
"235 309 LINE",
"474 309 LINE SMOOTH",
"495 309 OFFCURVE",
"505 326 OFFCURVE",
"505 363 CURVE SMOOTH",
"505 396 LINE SMOOTH",
"505 432 OFFCURVE",
"495 448 OFFCURVE",
"474 448 CURVE SMOOTH",
"235 448 LINE",
"235 601 LINE",
"502 601 LINE SMOOTH",
"523 601 OFFCURVE",
"533 617 OFFCURVE",
"533 655 CURVE SMOOTH",
"533 687 LINE SMOOTH",
"533 723 OFFCURVE",
"523 740 OFFCURVE",
"502 740 CURVE SMOOTH",
"115 740 LINE SMOOTH",
"85 740 OFFCURVE",
"72 727 OFFCURVE",
"72 698 CURVE SMOOTH",
"72 42 LINE SMOOTH",
"72 13 OFFCURVE",
"85 0 OFFCURVE",
"115 0 CURVE SMOOTH"
);
}
);
width = 576.5;
}
);
unicode = 0045;
},
{
glyphname = F;
lastChange = "2015-01-29 03:32:03 +0000";
layers = (
{
layerId = "809BDC91-2406-4790-B9EF-A5FFF608A06A";
name = Regular;
paths = (
{
closed = 1;
nodes = (
"152 -2 LINE SMOOTH",
"182 -2 OFFCURVE",
"194 7 OFFCURVE",
"194 22 CURVE SMOOTH",
"194 338 LINE",
"447 338 LINE SMOOTH",
"463 338 OFFCURVE",
"469 348 OFFCURVE",
"469 370 CURVE SMOOTH",
"469 386 LINE SMOOTH",
"469 410 OFFCURVE",
"463 418 OFFCURVE",
"447 418 CURVE SMOOTH",
"194 418 LINE",
"194 660 LINE",
"467 660 LINE SMOOTH",
"481 660 OFFCURVE",
"488 669 OFFCURVE",
"488 691 CURVE SMOOTH",
"488 708 LINE SMOOTH",
"488 730 OFFCURVE",
"481 740 OFFCURVE",
"467 740 CURVE SMOOTH",
"134 740 LINE SMOOTH",
"112 740 OFFCURVE",
"102 730 OFFCURVE",
"102 708 CURVE SMOOTH",
"102 22 LINE SMOOTH",
"102 7 OFFCURVE",
"115 -2 OFFCURVE",
"145 -2 CURVE SMOOTH"
);
}
);
width = 531.5;
},
{
layerId = "466C6FD7-E5A4-4003-892F-69A78A0A7E44";
name = Bold;
paths = (
{
closed = 1;
nodes = (
"172 -2 LINE SMOOTH",
"216 -2 OFFCURVE",
"235 9 OFFCURVE",
"235 32 CURVE SMOOTH",
"235 308 LINE",
"460 308 LINE SMOOTH",
"483 308 OFFCURVE",
"491 325 OFFCURVE",
"491 362 CURVE SMOOTH",
"491 394 LINE SMOOTH",
"491 431 OFFCURVE",
"483 447 OFFCURVE",
"460 447 CURVE SMOOTH",
"235 447 LINE",
"235 601 LINE",
"468 601 LINE SMOOTH",
"489 601 OFFCURVE",
"499 617 OFFCURVE",
"499 655 CURVE SMOOTH",
"499 687 LINE SMOOTH",
"499 723 OFFCURVE",
"489 740 OFFCURVE",
"468 740 CURVE SMOOTH",
"115 740 LINE SMOOTH",
"85 740 OFFCURVE",
"72 727 OFFCURVE",
"72 698 CURVE SMOOTH",
"72 32 LINE SMOOTH",
"72 9 OFFCURVE",
"92 -2 OFFCURVE",
"136 -2 CURVE SMOOTH"
);
}
);
width = 531.5;
}
);
unicode = 0046;
},
{
glyphname = G;
lastChange = "2015-01-29 03:32:02 +0000";
layers = (
{
anchors = (
{
name = bottom;
position = "{410, 0}";
},
{
name = top;
position = "{355, 740}";
}
);
layerId = "809BDC91-2406-4790-B9EF-A5FFF608A06A";
name = Regular;
paths = (
{
closed = 1;
nodes = (
"507 -7 OFFCURVE",
"622 10 OFFCURVE",
"622 71 CURVE SMOOTH",
"622 349 LINE SMOOTH",
"622 372 OFFCURVE",
"613 381 OFFCURVE",
"591 381 CURVE SMOOTH",
"405 381 LINE SMOOTH",
"391 381 OFFCURVE",
"384 372 OFFCURVE",
"384 349 CURVE SMOOTH",
"384 333 LINE SMOOTH",
"384 311 OFFCURVE",
"391 301 OFFCURVE",
"405 301 CURVE SMOOTH",
"529 301 LINE",
"529 87 LINE",
"500 81 OFFCURVE",
"447 74 OFFCURVE",
"393 74 CURVE SMOOTH",
"205 74 OFFCURVE",
"156 211 OFFCURVE",
"156 373 CURVE SMOOTH",
"156 557 OFFCURVE",
"218 666 OFFCURVE",
"404 666 CURVE SMOOTH",
"506 666 OFFCURVE",
"557 619 OFFCURVE",
"568 619 CURVE SMOOTH",
"582 619 OFFCURVE",
"604 662 OFFCURVE",
"604 680 CURVE SMOOTH",
"604 709 OFFCURVE",
"507 746 OFFCURVE",
"402 746 CURVE SMOOTH",
"181 746 OFFCURVE",
"60 627 OFFCURVE",
"60 364 CURVE SMOOTH",
"60 113 OFFCURVE",
"177 -7 OFFCURVE",
"386 -7 CURVE SMOOTH"
);
}
);
width = 709.5;
},
{
anchors = (
{
name = bottom;
position = "{375, 0}";
},
{
name = top;
position = "{370, 740}";
}
);
layerId = "466C6FD7-E5A4-4003-892F-69A78A0A7E44";
name = Bold;
paths = (
{
closed = 1;
nodes = (
"470 -8 OFFCURVE",
"642 2 OFFCURVE",
"642 75 CURVE SMOOTH",
"642 369 LINE SMOOTH",
"642 399 OFFCURVE",
"629 412 OFFCURVE",
"598 412 CURVE SMOOTH",
"384 412 LINE SMOOTH",
"363 412 OFFCURVE",
"353 396 OFFCURVE",
"353 359 CURVE SMOOTH",
"353 325 LINE SMOOTH",
"353 288 OFFCURVE",
"363 273 OFFCURVE",
"384 273 CURVE SMOOTH",
"477 273 LINE",
"477 137 LINE",
"449 131 OFFCURVE",
"425 130 OFFCURVE",
"396 130 CURVE SMOOTH",
"274 130 OFFCURVE",
"214 212 OFFCURVE",
"214 371 CURVE SMOOTH",
"214 530 OFFCURVE",
"273 609 OFFCURVE",
"397 609 CURVE SMOOTH",
"498 609 OFFCURVE",
"545 575 OFFCURVE",
"558 575 CURVE SMOOTH",
"584 575 OFFCURVE",
"627 645 OFFCURVE",
"627 675 CURVE SMOOTH",
"627 719 OFFCURVE",
"494 749 OFFCURVE",
"401 749 CURVE SMOOTH",
"166 749 OFFCURVE",
"47 624 OFFCURVE",
"47 372 CURVE SMOOTH",
"47 111 OFFCURVE",
"159 -8 OFFCURVE",
"396 -8 CURVE SMOOTH"
);
}
);
width = 709.5;
}
);
unicode = 0047;
},
{
glyphname = H;
lastChange = "2015-01-29 03:32:02 +0000";
layers = (
{
anchors = (
{
name = bottom;
position = "{397, 0}";
},
{
name = center;
position = "{393, 552}";
},
{
name = top;
position = "{388, 740}";
}
);
layerId = "809BDC91-2406-4790-B9EF-A5FFF608A06A";
name = Regular;
paths = (
{
closed = 1;
nodes = (
"152 -2 LINE SMOOTH",
"182 -2 OFFCURVE",
"194 7 OFFCURVE",
"194 22 CURVE SMOOTH",
"194 339 LINE",
"578 339 LINE",
"578 22 LINE SMOOTH",
"578 7 OFFCURVE",
"591 -2 OFFCURVE",
"620 -2 CURVE SMOOTH",
"628 -2 LINE SMOOTH",
"658 -2 OFFCURVE",
"670 7 OFFCURVE",
"670 22 CURVE SMOOTH",
"670 719 LINE SMOOTH",
"670 733 OFFCURVE",
"658 742 OFFCURVE",
"628 742 CURVE SMOOTH",
"620 742 LINE SMOOTH",
"591 742 OFFCURVE",
"578 733 OFFCURVE",
"578 719 CURVE SMOOTH",
"578 420 LINE",
"194 420 LINE",
"194 719 LINE SMOOTH",
"194 733 OFFCURVE",
"182 742 OFFCURVE",
"152 742 CURVE SMOOTH",
"145 742 LINE SMOOTH",
"115 742 OFFCURVE",
"102 733 OFFCURVE",
"102 719 CURVE SMOOTH",
"102 22 LINE SMOOTH",
"102 7 OFFCURVE",
"115 -2 OFFCURVE",
"145 -2 CURVE SMOOTH"
);
}
);
width = 774;
},
{
anchors = (
{
name = bottom;
position = "{403, 0}";
},
{
name = center;
position = "{396, 552}";
},
{
name = top;
position = "{388, 740}";
}
);
layerId = "466C6FD7-E5A4-4003-892F-69A78A0A7E44";
name = Bold;
paths = (
{
closed = 1;
nodes = (
"190 -2 LINE SMOOTH",
"234 -2 OFFCURVE",
"253 9 OFFCURVE",
"253 32 CURVE SMOOTH",
"253 307 LINE",
"538 307 LINE",
"538 32 LINE SMOOTH",
"538 9 OFFCURVE",
"557 -2 OFFCURVE",
"601 -2 CURVE SMOOTH",
"638 -2 LINE SMOOTH",
"682 -2 OFFCURVE",
"702 9 OFFCURVE",
"702 32 CURVE SMOOTH",
"702 708 LINE SMOOTH",
"702 730 OFFCURVE",
"682 742 OFFCURVE",
"638 742 CURVE SMOOTH",
"601 742 LINE SMOOTH",
"557 742 OFFCURVE",
"538 730 OFFCURVE",
"538 708 CURVE SMOOTH",
"538 447 LINE",
"253 447 LINE",
"253 708 LINE SMOOTH",
"253 730 OFFCURVE",
"234 742 OFFCURVE",
"190 742 CURVE SMOOTH",
"152 742 LINE SMOOTH",
"108 742 OFFCURVE",
"88 730 OFFCURVE",
"88 708 CURVE SMOOTH",
"88 32 LINE SMOOTH",
"88 9 OFFCURVE",
"108 -2 OFFCURVE",
"152 -2 CURVE SMOOTH"
);
}
);
width = 774;
}
);
unicode = 0048;
},
{
glyphname = I;
lastChange = "2015-01-29 03:32:03 +0000";
layers = (
{
anchors = (
{
name = bottom;
position = "{148, 0}";
},
{
name = ogonek;
position = "{176, 0}";
},
{
name = top;
position = "{149, 740}";
}
);
layerId = "809BDC91-2406-4790-B9EF-A5FFF608A06A";
name = Regular;
paths = (
{
closed = 1;
nodes = (
"152 -2 LINE SMOOTH",
"182 -2 OFFCURVE",
"194 7 OFFCURVE",
"194 22 CURVE SMOOTH",
"194 719 LINE SMOOTH",
"194 733 OFFCURVE",
"182 742 OFFCURVE",
"152 742 CURVE SMOOTH",
"145 742 LINE SMOOTH",
"115 742 OFFCURVE",
"102 733 OFFCURVE",
"102 719 CURVE SMOOTH",
"102 22 LINE SMOOTH",
"102 7 OFFCURVE",
"115 -2 OFFCURVE",
"145 -2 CURVE SMOOTH"
);
}
);
width = 298;
},
{
anchors = (
{
name = bottom;
position = "{149, 0}";
},
{
name = ogonek;
position = "{193, 0}";
},
{
name = top;
position = "{149, 740}";
}
);
layerId = "466C6FD7-E5A4-4003-892F-69A78A0A7E44";
name = Bold;
paths = (
{
closed = 1;
nodes = (
"167 -3 LINE SMOOTH",
"211 -3 OFFCURVE",
"230 9 OFFCURVE",
"230 32 CURVE SMOOTH",
"230 708 LINE SMOOTH",
"230 730 OFFCURVE",
"211 743 OFFCURVE",
"167 743 CURVE SMOOTH",
"130 743 LINE SMOOTH",
"85 743 OFFCURVE",
"66 730 OFFCURVE",
"66 708 CURVE SMOOTH",
"66 32 LINE SMOOTH",
"66 9 OFFCURVE",
"85 -3 OFFCURVE",
"130 -3 CURVE SMOOTH"
);
}
);
width = 298;
}
);
unicode = 0049;
},
{
glyphname = J;
lastChange = "2015-01-29 03:32:03 +0000";
layers = (
{
anchors = (
{
name = top;
position = "{287, 740}";
}
);
layerId = "809BDC91-2406-4790-B9EF-A5FFF608A06A";
name = Regular;
paths = (
{
closed = 1;
nodes = (
"276 -7 OFFCURVE",
"337 84 OFFCURVE",
"337 216 CURVE SMOOTH",
"337 719 LINE SMOOTH",
"337 733 OFFCURVE",
"325 742 OFFCURVE",
"295 742 CURVE SMOOTH",
"287 742 LINE SMOOTH",
"256 742 OFFCURVE",
"244 733 OFFCURVE",
"244 719 CURVE SMOOTH",
"244 206 LINE SMOOTH",
"244 116 OFFCURVE",
"201 76 OFFCURVE",
"97 76 CURVE SMOOTH",
"63 76 OFFCURVE",
"39 85 OFFCURVE",
"30 85 CURVE SMOOTH",
"13 85 OFFCURVE",
"7 32 OFFCURVE",
"7 28 CURVE SMOOTH",
"7 -1 OFFCURVE",
"73 -7 OFFCURVE",
"114 -7 CURVE SMOOTH"
);
}
);
width = 425;
},
{
anchors = (
{
name = top;
position = "{276, 740}";
}
);
layerId = "466C6FD7-E5A4-4003-892F-69A78A0A7E44";
name = Bold;
paths = (
{
closed = 1;
nodes = (
"288 -8 OFFCURVE",
"355 79 OFFCURVE",
"355 213 CURVE SMOOTH",
"355 708 LINE SMOOTH",
"355 730 OFFCURVE",
"336 743 OFFCURVE",
"291 743 CURVE SMOOTH",
"255 743 LINE SMOOTH",
"210 743 OFFCURVE",
"192 730 OFFCURVE",
"192 708 CURVE SMOOTH",
"192 241 LINE SMOOTH",
"192 163 OFFCURVE",
"166 130 OFFCURVE",
"103 130 CURVE SMOOTH",
"70 130 OFFCURVE",
"55 138 OFFCURVE",
"43 138 CURVE",
"10 135 OFFCURVE",
"0 60 OFFCURVE",
"0 40 CURVE SMOOTH",
"0 -6 OFFCURVE",
"106 -8 OFFCURVE",
"131 -8 CURVE SMOOTH"
);
}
);
width = 425;
}
);
unicode = 004A;
},
{
glyphname = K;
lastChange = "2015-01-29 03:32:02 +0000";
layers = (
{
anchors = (
{
name = bottom;
position = "{304, 0}";
},
{
name = top;
position = "{304, 740}";
}
);
layerId = "809BDC91-2406-4790-B9EF-A5FFF608A06A";
name = Regular;
paths = (
{
closed = 1;
nodes = (
"152 -2 LINE SMOOTH",
"182 -2 OFFCURVE",
"194 7 OFFCURVE",
"194 22 CURVE SMOOTH",
"194 351 LINE",
"199 351 LINE",
"502 12 LINE SMOOTH",
"515 -2 OFFCURVE",
"536 -2 OFFCURVE",
"560 -2 CURVE SMOOTH",
"572 -2 LINE SMOOTH",
"605 -2 OFFCURVE",
"618 1 OFFCURVE",
"618 13 CURVE SMOOTH",
"618 18 OFFCURVE",
"616 22 OFFCURVE",
"610 30 CURVE SMOOTH",
"289 378 LINE",
"553 708 LINE SMOOTH",
"561 716 OFFCURVE",
"564 722 OFFCURVE",
"564 728 CURVE SMOOTH",
"564 735 OFFCURVE",
"552 742 OFFCURVE",
"527 742 CURVE SMOOTH",
"517 742 LINE SMOOTH",
"493 742 OFFCURVE",
"469 739 OFFCURVE",
"459 727 CURVE SMOOTH",
"199 396 LINE",
"194 396 LINE",
"194 719 LINE SMOOTH",
"194 733 OFFCURVE",
"182 742 OFFCURVE",
"152 742 CURVE SMOOTH",
"145 742 LINE SMOOTH",
"115 742 OFFCURVE",
"102 733 OFFCURVE",
"102 719 CURVE SMOOTH",
"102 22 LINE SMOOTH",
"102 7 OFFCURVE",
"115 -2 OFFCURVE",
"145 -2 CURVE SMOOTH"
);
}
);
width = 608.5;
},
{
anchors = (
{
name = bottom;
position = "{316, 0}";
},
{
name = top;
position = "{326, 740}";
}
);
layerId = "466C6FD7-E5A4-4003-892F-69A78A0A7E44";
name = Bold;
paths = (
{
closed = 1;
nodes = (
"173 -2 LINE SMOOTH",
"218 -2 OFFCURVE",
"236 9 OFFCURVE",
"236 32 CURVE SMOOTH",
"236 338 LINE",
"240 339 LINE",
"440 19 LINE SMOOTH",
"448 2 OFFCURVE",
"474 -2 OFFCURVE",
"505 -2 CURVE SMOOTH",
"565 -2 LINE SMOOTH",
"606 -2 OFFCURVE",
"624 4 OFFCURVE",
"624 14 CURVE SMOOTH",
"624 20 OFFCURVE",
"622 26 OFFCURVE",
"615 36 CURVE SMOOTH",
"384 391 LINE",
"589 704 LINE SMOOTH",
"595 713 OFFCURVE",
"597 721 OFFCURVE",
"597 725 CURVE SMOOTH",
"597 735 OFFCURVE",
"579 742 OFFCURVE",
"537 742 CURVE SMOOTH",
"488 742 LINE SMOOTH",
"457 742 OFFCURVE",
"434 739 OFFCURVE",
"425 722 CURVE SMOOTH",
"240 424 LINE",
"236 425 LINE",
"236 708 LINE SMOOTH",
"236 730 OFFCURVE",
"218 742 OFFCURVE",
"173 742 CURVE SMOOTH",
"136 742 LINE SMOOTH",
"92 742 OFFCURVE",
"72 730 OFFCURVE",
"72 708 CURVE SMOOTH",
"72 32 LINE SMOOTH",
"72 9 OFFCURVE",
"92 -2 OFFCURVE",
"136 -2 CURVE SMOOTH"
);
}
);
width = 608.5;
}
);
unicode = 004B;
},
{
glyphname = L;
lastChange = "2015-01-29 03:32:02 +0000";
layers = (
{
anchors = (
{
name = bottom;
position = "{298, 0}";
},
{
name = caron;
position = "{258, 740}";
},
{
name = center;
position = "{318, 354}";
},
{
name = top;
position = "{153, 742}";
}
);
layerId = "809BDC91-2406-4790-B9EF-A5FFF608A06A";
name = Regular;
paths = (
{
closed = 1;
nodes = (
"486 0 LINE SMOOTH",
"500 0 OFFCURVE",
"507 9 OFFCURVE",
"507 32 CURVE SMOOTH",
"507 49 LINE SMOOTH",
"507 71 OFFCURVE",
"500 81 OFFCURVE",
"486 81 CURVE SMOOTH",
"194 81 LINE",
"194 719 LINE SMOOTH",
"194 733 OFFCURVE",
"182 742 OFFCURVE",
"152 742 CURVE SMOOTH",
"145 742 LINE SMOOTH",
"115 742 OFFCURVE",
"102 733 OFFCURVE",
"102 719 CURVE SMOOTH",
"102 32 LINE SMOOTH",
"102 9 OFFCURVE",
"112 0 OFFCURVE",
"134 0 CURVE SMOOTH"
);
}
);
width = 511;
},
{
anchors = (
{
name = bottom;
position = "{256, 0}";
},
{
name = caron;
position = "{277, 740}";
},
{
name = center;
position = "{349, 354}";
},
{
name = top;
position = "{159, 740}";
}
);
layerId = "466C6FD7-E5A4-4003-892F-69A78A0A7E44";
name = Bold;
paths = (
{
closed = 1;
nodes = (
"472 0 LINE SMOOTH",
"493 0 OFFCURVE",
"504 16 OFFCURVE",
"504 53 CURVE SMOOTH",
"504 85 LINE SMOOTH",
"504 123 OFFCURVE",
"493 138 OFFCURVE",
"472 138 CURVE SMOOTH",
"235 138 LINE",
"235 708 LINE SMOOTH",
"235 730 OFFCURVE",
"216 742 OFFCURVE",
"172 742 CURVE SMOOTH",
"136 742 LINE SMOOTH",
"92 742 OFFCURVE",
"72 730 OFFCURVE",
"72 708 CURVE SMOOTH",
"72 42 LINE SMOOTH",
"72 13 OFFCURVE",
"85 0 OFFCURVE",
"115 0 CURVE SMOOTH"
);
}
);
width = 511;
}
);
rightKerningGroup = L;
unicode = 004C;
},
{
glyphname = LJ;
lastChange = "2015-01-29 03:32:03 +0000";
layers = (
{
layerId = "809BDC91-2406-4790-B9EF-A5FFF608A06A";
name = Regular;
paths = (
{
closed = 1;
nodes = (
"607 -165 OFFCURVE",
"669 -75 OFFCURVE",
"669 58 CURVE SMOOTH",
"669 719 LINE SMOOTH",
"669 733 OFFCURVE",
"657 742 OFFCURVE",
"627 742 CURVE SMOOTH",
"618 742 LINE SMOOTH",
"589 742 OFFCURVE",
"576 733 OFFCURVE",
"576 719 CURVE SMOOTH",
"576 47 LINE SMOOTH",
"576 -43 OFFCURVE",
"533 -83 OFFCURVE",
"427 -83 CURVE SMOOTH",
"394 -83 OFFCURVE",
"370 -73 OFFCURVE",
"362 -73 CURVE SMOOTH",
"345 -73 OFFCURVE",
"338 -127 OFFCURVE",
"338 -131 CURVE SMOOTH",
"338 -160 OFFCURVE",
"405 -165 OFFCURVE",
"445 -165 CURVE SMOOTH"
);
},
{
closed = 1;
nodes = (
"411 0 LINE SMOOTH",
"427 0 OFFCURVE",
"433 9 OFFCURVE",
"433 32 CURVE SMOOTH",
"433 49 LINE SMOOTH",
"433 71 OFFCURVE",
"427 81 OFFCURVE",
"411 81 CURVE SMOOTH",
"194 81 LINE",
"194 719 LINE SMOOTH",
"194 733 OFFCURVE",
"182 742 OFFCURVE",
"152 742 CURVE SMOOTH",
"145 742 LINE SMOOTH",
"115 742 OFFCURVE",
"102 733 OFFCURVE",
"102 719 CURVE SMOOTH",
"102 32 LINE SMOOTH",
"102 9 OFFCURVE",
"112 0 OFFCURVE",
"134 0 CURVE SMOOTH"
);
}
);
width = 759;
},
{
layerId = "466C6FD7-E5A4-4003-892F-69A78A0A7E44";
name = Bold;
paths = (
{
closed = 1;
nodes = (
"630 -192 OFFCURVE",
"698 -89 OFFCURVE",
"698 44 CURVE SMOOTH",
"698 708 LINE SMOOTH",
"698 730 OFFCURVE",
"678 743 OFFCURVE",
"634 743 CURVE SMOOTH",
"597 743 LINE SMOOTH",
"552 743 OFFCURVE",
"534 730 OFFCURVE",
"534 708 CURVE SMOOTH",
"534 57 LINE SMOOTH",
"534 -21 OFFCURVE",
"508 -53 OFFCURVE",
"445 -53 CURVE SMOOTH",
"412 -53 OFFCURVE",
"396 -44 OFFCURVE",
"385 -44 CURVE",
"353 -47 OFFCURVE",
"342 -124 OFFCURVE",
"342 -143 CURVE SMOOTH",
"342 -189 OFFCURVE",
"448 -192 OFFCURVE",
"474 -192 CURVE SMOOTH"
);
},
{
closed = 1;
nodes = (
"396 0 LINE SMOOTH",
"420 0 OFFCURVE",
"428 16 OFFCURVE",
"428 53 CURVE SMOOTH",
"428 85 LINE SMOOTH",
"428 123 OFFCURVE",
"420 138 OFFCURVE",
"396 138 CURVE SMOOTH",
"235 138 LINE",
"235 708 LINE SMOOTH",
"235 730 OFFCURVE",
"216 742 OFFCURVE",
"172 742 CURVE SMOOTH",
"136 742 LINE SMOOTH",
"92 742 OFFCURVE",
"72 730 OFFCURVE",
"72 708 CURVE SMOOTH",
"72 42 LINE SMOOTH",
"72 13 OFFCURVE",
"85 0 OFFCURVE",
"115 0 CURVE SMOOTH"
);
}
);
width = 759;
}
);
unicode = 01C7;
},
{
glyphname = Lslash;
lastChange = "2015-01-29 03:32:02 +0000";
layers = (
{
layerId = "809BDC91-2406-4790-B9EF-A5FFF608A06A";
name = Regular;
paths = (
{
closed = 1;
nodes = (
"490 0 LINE SMOOTH",
"505 0 OFFCURVE",
"511 9 OFFCURVE",
"511 32 CURVE SMOOTH",
"511 49 LINE SMOOTH",
"511 71 OFFCURVE",
"505 81 OFFCURVE",
"490 81 CURVE SMOOTH",
"183 81 LINE",
"183 424 LINE",
"297 491 LINE SMOOTH",
"309 499 OFFCURVE",
"318 508 OFFCURVE",
"318 522 CURVE SMOOTH",
"318 530 LINE SMOOTH",
"318 539 OFFCURVE",
"314 544 OFFCURVE",
"307 544 CURVE SMOOTH",
"304 544 OFFCURVE",
"301 542 OFFCURVE",
"297 540 CURVE SMOOTH",
"183 473 LINE",
"183 719 LINE SMOOTH",
"183 733 OFFCURVE",
"170 742 OFFCURVE",
"141 742 CURVE SMOOTH",
"131 742 LINE SMOOTH",
"103 742 OFFCURVE",
"89 733 OFFCURVE",
"89 719 CURVE SMOOTH",
"89 416 LINE",
"19 374 LINE SMOOTH",
"6 367 OFFCURVE",
"-2 358 OFFCURVE",
"-2 342 CURVE SMOOTH",
"-2 336 LINE SMOOTH",
"-2 327 OFFCURVE",
"2 321 OFFCURVE",
"8 321 CURVE SMOOTH",
"9 321 OFFCURVE",
"14 322 OFFCURVE",
"19 326 CURVE SMOOTH",
"89 368 LINE",
"89 32 LINE SMOOTH",
"89 9 OFFCURVE",
"100 0 OFFCURVE",
"121 0 CURVE SMOOTH"
);
}
);
width = 513;
},
{
layerId = "466C6FD7-E5A4-4003-892F-69A78A0A7E44";
name = Bold;
paths = (
{
closed = 1;
nodes = (
"474 0 LINE SMOOTH",
"495 0 OFFCURVE",
"505 16 OFFCURVE",
"505 53 CURVE SMOOTH",
"505 85 LINE SMOOTH",
"505 123 OFFCURVE",
"495 138 OFFCURVE",
"474 138 CURVE SMOOTH",
"237 138 LINE",
"237 417 LINE",
"329 474 LINE SMOOTH",
"349 486 OFFCURVE",
"357 500 OFFCURVE",
"357 521 CURVE SMOOTH",
"357 543 LINE SMOOTH",
"357 557 OFFCURVE",
"352 564 OFFCURVE",
"346 564 CURVE SMOOTH",
"341 564 OFFCURVE",
"336 562 OFFCURVE",
"329 558 CURVE SMOOTH",
"237 502 LINE",
"237 708 LINE SMOOTH",
"237 730 OFFCURVE",
"219 742 OFFCURVE",
"174 742 CURVE SMOOTH",
"138 742 LINE SMOOTH",
"94 742 OFFCURVE",
"75 730 OFFCURVE",
"75 708 CURVE SMOOTH",
"75 403 LINE",
"54 390 LINE SMOOTH",
"36 379 OFFCURVE",
"27 365 OFFCURVE",
"27 342 CURVE SMOOTH",
"27 321 LINE SMOOTH",
"27 306 OFFCURVE",
"30 300 OFFCURVE",
"39 300 CURVE SMOOTH",
"43 300 OFFCURVE",
"49 301 OFFCURVE",
"54 305 CURVE SMOOTH",
"75 319 LINE",
"75 42 LINE SMOOTH",
"75 13 OFFCURVE",
"87 0 OFFCURVE",
"116 0 CURVE SMOOTH"
);
}
);
width = 513;
}
);
rightKerningGroup = L;
unicode = 0141;
},
{
glyphname = M;
lastChange = "2015-01-29 03:32:02 +0000";
layers = (
{
layerId = "809BDC91-2406-4790-B9EF-A5FFF608A06A";
name = Regular;
paths = (
{
closed = 1;
nodes = (
"146 -2 LINE SMOOTH",
"174 -2 OFFCURVE",
"188 7 OFFCURVE",
"188 22 CURVE SMOOTH",
"188 596 LINE",
"190 592 LINE",
"403 220 LINE SMOOTH",
"409 210 OFFCURVE",
"415 206 OFFCURVE",
"426 206 CURVE SMOOTH",
"468 206 LINE SMOOTH",
"479 206 OFFCURVE",
"487 210 OFFCURVE",
"491 220 CURVE SMOOTH",
"702 585 LINE",
"704 590 LINE",
"704 22 LINE SMOOTH",
"704 7 OFFCURVE",
"717 -2 OFFCURVE",
"746 -2 CURVE SMOOTH",
"754 -2 LINE SMOOTH",
"784 -2 OFFCURVE",
"796 7 OFFCURVE",
"796 22 CURVE SMOOTH",
"796 719 LINE SMOOTH",
"796 733 OFFCURVE",
"784 742 OFFCURVE",
"754 742 CURVE SMOOTH",
"719 742 LINE SMOOTH",
"692 742 OFFCURVE",
"680 734 OFFCURVE",
"675 722 CURVE SMOOTH",
"474 370 LINE",
"447 309 LINE",
"420 377 LINE",
"220 722 LINE SMOOTH",
"213 734 OFFCURVE",
"201 742 OFFCURVE",
"176 742 CURVE SMOOTH",
"137 742 LINE SMOOTH",
"108 742 OFFCURVE",
"95 733 OFFCURVE",
"95 719 CURVE SMOOTH",
"95 22 LINE SMOOTH",
"95 7 OFFCURVE",
"108 -2 OFFCURVE",
"137 -2 CURVE SMOOTH"
);
}
);
width = 891;
},
{
layerId = "466C6FD7-E5A4-4003-892F-69A78A0A7E44";
name = Bold;
paths = (
{
closed = 1;
nodes = (
"167 -2 LINE SMOOTH",
"211 -2 OFFCURVE",
"230 9 OFFCURVE",
"230 32 CURVE SMOOTH",
"230 469 LINE",
"234 470 LINE",
"388 197 LINE",
"396 184 OFFCURVE",
"410 177 OFFCURVE",
"430 177 CURVE SMOOTH",
"460 177 LINE SMOOTH",
"480 177 OFFCURVE",
"493 184 OFFCURVE",
"504 197 CURVE",
"656 470 LINE",
"659 469 LINE",
"659 32 LINE SMOOTH",
"659 9 OFFCURVE",
"679 -2 OFFCURVE",
"723 -2 CURVE SMOOTH",
"753 -2 LINE SMOOTH",
"798 -2 OFFCURVE",
"817 9 OFFCURVE",
"817 32 CURVE SMOOTH",
"817 708 LINE SMOOTH",
"817 730 OFFCURVE",
"798 742 OFFCURVE",
"753 742 CURVE SMOOTH",
"699 742 LINE SMOOTH",
"668 742 OFFCURVE",
"645 734 OFFCURVE",
"633 713 CURVE SMOOTH",
"454 401 LINE",
"444 382 LINE",
"436 397 LINE",
"258 713 LINE SMOOTH",
"247 734 OFFCURVE",
"223 742 OFFCURVE",
"192 742 CURVE SMOOTH",
"136 742 LINE SMOOTH",
"92 742 OFFCURVE",
"72 730 OFFCURVE",
"72 708 CURVE SMOOTH",
"72 32 LINE SMOOTH",
"72 9 OFFCURVE",
"92 -2 OFFCURVE",
"136 -2 CURVE SMOOTH"
);
}
);
width = 891;
}
);
unicode = 004D;
},
{
glyphname = N;
lastChange = "2015-01-29 03:32:03 +0000";
layers = (
{
anchors = (
{
name = bottom;
position = "{381, 0}";
},
{
name = top;
position = "{381, 740}";
}
);
layerId = "809BDC91-2406-4790-B9EF-A5FFF608A06A";
name = Regular;
paths = (
{
closed = 1;
nodes = (
"146 -2 LINE SMOOTH",
"174 -2 OFFCURVE",
"188 7 OFFCURVE",
"188 22 CURVE SMOOTH",
"188 593 LINE",
"215 539 LINE",
"564 13 LINE SMOOTH",
"571 3 OFFCURVE",
"582 -2 OFFCURVE",
"601 -2 CURVE SMOOTH",
"623 -2 LINE SMOOTH",
"653 -2 OFFCURVE",
"665 7 OFFCURVE",
"665 22 CURVE SMOOTH",
"665 719 LINE SMOOTH",
"665 733 OFFCURVE",
"653 742 OFFCURVE",
"623 742 CURVE SMOOTH",
"615 742 LINE SMOOTH",
"585 742 OFFCURVE",
"573 733 OFFCURVE",
"573 719 CURVE SMOOTH",
"573 153 LINE",
"541 212 LINE",
"204 722 LINE SMOOTH",
"194 738 OFFCURVE",
"183 742 OFFCURVE",
"160 742 CURVE SMOOTH",
"137 742 LINE SMOOTH",
"108 742 OFFCURVE",
"95 733 OFFCURVE",
"95 719 CURVE SMOOTH",
"95 22 LINE SMOOTH",
"95 7 OFFCURVE",
"108 -2 OFFCURVE",
"137 -2 CURVE SMOOTH"
);
}
);
width = 760;
},
{
anchors = (
{
name = bottom;
position = "{381, 0}";
},
{
name = top;
position = "{381, 740}";
}
);
layerId = "466C6FD7-E5A4-4003-892F-69A78A0A7E44";
name = Bold;
paths = (
{
closed = 1;
nodes = (
"167 -2 LINE SMOOTH",
"211 -2 OFFCURVE",
"230 9 OFFCURVE",
"230 32 CURVE SMOOTH",
"230 459 LINE",
"253 426 LINE",
"513 26 LINE SMOOTH",
"529 2 OFFCURVE",
"552 -2 OFFCURVE",
"582 -2 CURVE SMOOTH",
"623 -2 LINE SMOOTH",
"667 -2 OFFCURVE",
"687 9 OFFCURVE",
"687 32 CURVE SMOOTH",
"687 708 LINE SMOOTH",
"687 730 OFFCURVE",
"667 742 OFFCURVE",
"623 742 CURVE SMOOTH",
"593 742 LINE SMOOTH",
"549 742 OFFCURVE",
"529 730 OFFCURVE",
"529 708 CURVE SMOOTH",
"529 286 LINE",
"500 329 LINE",
"252 713 LINE SMOOTH",
"235 739 OFFCURVE",
"212 742 OFFCURVE",
"181 742 CURVE SMOOTH",
"136 742 LINE SMOOTH",
"92 742 OFFCURVE",
"72 730 OFFCURVE",
"72 708 CURVE SMOOTH",
"72 32 LINE SMOOTH",
"72 9 OFFCURVE",
"92 -2 OFFCURVE",
"136 -2 CURVE SMOOTH"
);
}
);
width = 760;
}
);
unicode = 004E;
},
{
glyphname = Eng;
lastChange = "2015-01-29 03:32:03 +0000";
layers = (
{
components = (
{
name = dotlessj;
transform = "{1, 0, 0, 1, 469, 0}";
}
);
layerId = "809BDC91-2406-4790-B9EF-A5FFF608A06A";
name = Regular;
paths = (
{
closed = 1;
nodes = (
"665 22 LINE",
"665 719 LINE SMOOTH",
"665 733 OFFCURVE",
"653 742 OFFCURVE",
"623 742 CURVE SMOOTH",
"615 742 LINE SMOOTH",
"585 742 OFFCURVE",
"573 733 OFFCURVE",
"573 719 CURVE SMOOTH",
"573 153 LINE",
"541 212 LINE",
"204 722 LINE SMOOTH",
"194 738 OFFCURVE",
"183 742 OFFCURVE",
"160 742 CURVE SMOOTH",
"137 742 LINE SMOOTH",
"108 742 OFFCURVE",
"95 733 OFFCURVE",
"95 719 CURVE SMOOTH",
"95 22 LINE SMOOTH",
"95 7 OFFCURVE",
"108 -2 OFFCURVE",
"137 -2 CURVE SMOOTH",
"146 -2 LINE SMOOTH",
"174 -2 OFFCURVE",
"188 7 OFFCURVE",
"188 22 CURVE SMOOTH",
"188 593 LINE",
"215 539 LINE",
"590 -25 LINE"
);
}
);
width = 760;
},
{
components = (
{
name = dotlessj;
transform = "{1, 0, 0, 1, 456, 0}";
}
);
layerId = "466C6FD7-E5A4-4003-892F-69A78A0A7E44";
name = Bold;
paths = (
{
closed = 1;
nodes = (
"687 32 LINE",
"687 708 LINE SMOOTH",
"687 730 OFFCURVE",
"667 742 OFFCURVE",
"623 742 CURVE SMOOTH",
"593 742 LINE SMOOTH",
"549 742 OFFCURVE",
"529 730 OFFCURVE",
"529 708 CURVE SMOOTH",
"529 286 LINE",
"499 331 LINE",
"252 713 LINE SMOOTH",
"235 739 OFFCURVE",
"212 742 OFFCURVE",
"181 742 CURVE SMOOTH",
"136 742 LINE SMOOTH",
"92 742 OFFCURVE",
"72 730 OFFCURVE",
"72 708 CURVE SMOOTH",
"72 32 LINE SMOOTH",
"72 9 OFFCURVE",
"92 -2 OFFCURVE",
"136 -2 CURVE SMOOTH",
"167 -2 LINE SMOOTH",
"211 -2 OFFCURVE",
"230 9 OFFCURVE",
"230 32 CURVE SMOOTH",
"230 459 LINE",
"256 418 LINE",
"550 -28 LINE"
);
}
);
width = 760;
}
);
unicode = 014A;
},
{
glyphname = O;
lastChange = "2015-01-29 03:32:03 +0000";
layers = (
{
anchors = (
{
name = bottom;
position = "{388, 0}";
},
{
name = horn;
position = "{509, 721}";
},
{
name = ogonek;
position = "{468, 0}";
},
{
name = top;
position = "{386, 740}";
}
);
layerId = "809BDC91-2406-4790-B9EF-A5FFF608A06A";
name = Regular;
paths = (
{
closed = 1;
nodes = (
"598 -7 OFFCURVE",
"711 125 OFFCURVE",
"711 372 CURVE SMOOTH",
"711 619 OFFCURVE",
"598 746 OFFCURVE",
"385 746 CURVE SMOOTH",
"174 746 OFFCURVE",
"60 619 OFFCURVE",
"60 372 CURVE SMOOTH",
"60 125 OFFCURVE",
"174 -7 OFFCURVE",
"385 -7 CURVE SMOOTH"
);
},
{
closed = 1;
nodes = (
"236 74 OFFCURVE",
"156 178 OFFCURVE",
"156 372 CURVE SMOOTH",
"156 567 OFFCURVE",
"236 666 OFFCURVE",
"385 666 CURVE SMOOTH",
"535 666 OFFCURVE",
"615 567 OFFCURVE",
"615 372 CURVE SMOOTH",
"615 178 OFFCURVE",
"535 74 OFFCURVE",
"385 74 CURVE SMOOTH"
);
}
);
width = 772;
},
{
anchors = (
{
name = bottom;
position = "{388, 0}";
},
{
name = horn;
position = "{501, 721}";
},
{
name = ogonek;
position = "{468, 0}";
},
{
name = top;
position = "{386, 740}";
}
);
layerId = "466C6FD7-E5A4-4003-892F-69A78A0A7E44";
name = Bold;
paths = (
{
closed = 1;
nodes = (
"604 -8 OFFCURVE",
"724 126 OFFCURVE",
"724 370 CURVE SMOOTH",
"724 614 OFFCURVE",
"604 749 OFFCURVE",
"386 749 CURVE SMOOTH",
"169 749 OFFCURVE",
"47 614 OFFCURVE",
"47 370 CURVE SMOOTH",
"47 126 OFFCURVE",
"169 -8 OFFCURVE",
"386 -8 CURVE SMOOTH"
);
},
{
closed = 1;
nodes = (
"274 130 OFFCURVE",
"214 214 OFFCURVE",
"214 370 CURVE SMOOTH",
"214 526 OFFCURVE",
"274 609 OFFCURVE",
"386 609 CURVE SMOOTH",
"500 609 OFFCURVE",
"558 526 OFFCURVE",
"558 370 CURVE SMOOTH",
"558 214 OFFCURVE",
"500 130 OFFCURVE",
"386 130 CURVE SMOOTH"
);
}
);
width = 772;
}
);
unicode = 004F;
},
{
glyphname = Oslash;
lastChange = "2015-01-29 03:32:03 +0000";
layers = (
{
anchors = (
{
name = top;
position = "{386, 740}";
}
);
layerId = "809BDC91-2406-4790-B9EF-A5FFF608A06A";
name = Regular;
paths = (
{
closed = 1;
nodes = (
"598 -7 OFFCURVE",
"712 125 OFFCURVE",
"712 372 CURVE SMOOTH",
"712 488 OFFCURVE",
"687 576 OFFCURVE",
"639 638 CURVE",
"701 707 LINE SMOOTH",
"706 711 OFFCURVE",
"708 716 OFFCURVE",
"708 721 CURVE SMOOTH",
"708 729 OFFCURVE",
"692 742 OFFCURVE",
"684 742 CURVE SMOOTH",
"678 742 OFFCURVE",
"675 740 OFFCURVE",
"669 733 CURVE SMOOTH",
"612 669 LINE",
"555 720 OFFCURVE",
"481 746 OFFCURVE",
"385 746 CURVE SMOOTH",
"174 746 OFFCURVE",
"61 619 OFFCURVE",
"61 372 CURVE SMOOTH",
"61 268 OFFCURVE",
"81 185 OFFCURVE",
"119 123 CURVE",
"42 39 LINE SMOOTH",
"39 33 OFFCURVE",
"36 28 OFFCURVE",
"36 24 CURVE SMOOTH",
"36 14 OFFCURVE",
"50 1 OFFCURVE",
"60 1 CURVE SMOOTH",
"64 1 OFFCURVE",
"70 4 OFFCURVE",
"74 10 CURVE SMOOTH",
"146 88 LINE",
"200 25 OFFCURVE",
"280 -7 OFFCURVE",
"385 -7 CURVE SMOOTH"
);
},
{
closed = 1;
nodes = (
"306 74 OFFCURVE",
"246 103 OFFCURVE",
"209 160 CURVE",
"574 567 LINE",
"601 519 OFFCURVE",
"616 454 OFFCURVE",
"616 372 CURVE SMOOTH",
"616 178 OFFCURVE",
"536 74 OFFCURVE",
"385 74 CURVE SMOOTH"
);
},
{
closed = 1;
nodes = (
"167 244 OFFCURVE",
"156 303 OFFCURVE",
"156 372 CURVE SMOOTH",
"156 567 OFFCURVE",
"236 666 OFFCURVE",
"385 666 CURVE SMOOTH",
"455 666 OFFCURVE",
"510 644 OFFCURVE",
"549 600 CURVE",
"187 198 LINE"
);
}
);
width = 772;
},
{
anchors = (
{
name = top;
position = "{386, 740}";
}
);
layerId = "466C6FD7-E5A4-4003-892F-69A78A0A7E44";
name = Bold;
paths = (
{
closed = 1;
nodes = (
"604 -8 OFFCURVE",
"724 126 OFFCURVE",
"724 370 CURVE SMOOTH",
"724 479 OFFCURVE",
"699 567 OFFCURVE",
"653 630 CURVE",
"709 696 LINE SMOOTH",
"718 703 OFFCURVE",
"721 710 OFFCURVE",
"721 717 CURVE SMOOTH",
"721 735 OFFCURVE",
"688 765 OFFCURVE",
"669 765 CURVE SMOOTH",
"660 765 OFFCURVE",
"654 761 OFFCURVE",
"646 753 CURVE SMOOTH",
"592 690 LINE",
"538 728 OFFCURVE",
"469 749 OFFCURVE",
"386 749 CURVE SMOOTH",
"169 749 OFFCURVE",
"47 614 OFFCURVE",
"47 370 CURVE SMOOTH",
"47 275 OFFCURVE",
"65 197 OFFCURVE",
"101 136 CURVE",
"30 57 LINE SMOOTH",
"23 50 OFFCURVE",
"20 42 OFFCURVE",
"20 36 CURVE SMOOTH",
"20 16 OFFCURVE",
"54 -13 OFFCURVE",
"70 -13 CURVE SMOOTH",
"78 -13 OFFCURVE",
"86 -8 OFFCURVE",
"94 0 CURVE SMOOTH",
"155 71 LINE",
"211 19 OFFCURVE",
"289 -8 OFFCURVE",
"386 -8 CURVE SMOOTH"
);
},
{
closed = 1;
nodes = (
"332 130 OFFCURVE",
"289 150 OFFCURVE",
"261 189 CURVE",
"538 501 LINE",
"551 466 OFFCURVE",
"558 422 OFFCURVE",
"558 370 CURVE SMOOTH",
"558 214 OFFCURVE",
"500 130 OFFCURVE",
"386 130 CURVE SMOOTH"
);
},
{
closed = 1;
nodes = (
"218 303 OFFCURVE",
"214 335 OFFCURVE",
"214 370 CURVE SMOOTH",
"214 526 OFFCURVE",
"274 609 OFFCURVE",
"386 609 CURVE SMOOTH",
"427 609 OFFCURVE",
"463 597 OFFCURVE",
"490 575 CURVE",
"223 275 LINE"
);
}
);
width = 772;
}
);
unicode = 00D8;
},
{
glyphname = OE;
lastChange = "2015-01-29 03:32:02 +0000";
layers = (
{
anchors = (
{
name = top;
position = "{540, 740}";
}
);
layerId = "809BDC91-2406-4790-B9EF-A5FFF608A06A";
name = Regular;
paths = (
{
closed = 1;
nodes = (
"497 -7 OFFCURVE",
"580 30 OFFCURVE",
"634 102 CURVE",
"617 123 LINE",
"617 32 LINE SMOOTH",
"617 9 OFFCURVE",
"627 0 OFFCURVE",
"649 0 CURVE SMOOTH",
"1023 0 LINE SMOOTH",
"1037 0 OFFCURVE",
"1044 9 OFFCURVE",
"1044 32 CURVE SMOOTH",
"1044 49 LINE SMOOTH",
"1044 71 OFFCURVE",
"1037 81 OFFCURVE",
"1023 81 CURVE SMOOTH",
"710 81 LINE",
"710 338 LINE",
"989 338 LINE SMOOTH",
"1004 338 OFFCURVE",
"1010 348 OFFCURVE",
"1010 370 CURVE SMOOTH",
"1010 386 LINE SMOOTH",
"1010 410 OFFCURVE",
"1004 418 OFFCURVE",
"989 418 CURVE SMOOTH",
"710 418 LINE",
"710 660 LINE",
"1021 660 LINE SMOOTH",
"1036 660 OFFCURVE",
"1042 669 OFFCURVE",
"1042 691 CURVE SMOOTH",
"1042 708 LINE SMOOTH",
"1042 730 OFFCURVE",
"1036 740 OFFCURVE",
"1021 740 CURVE SMOOTH",
"649 740 LINE SMOOTH",
"627 740 OFFCURVE",
"617 730 OFFCURVE",
"617 708 CURVE SMOOTH",
"617 619 LINE",
"634 640 LINE",
"580 710 OFFCURVE",
"497 746 OFFCURVE",
"385 746 CURVE SMOOTH",
"174 746 OFFCURVE",
"60 619 OFFCURVE",
"60 372 CURVE SMOOTH",
"60 125 OFFCURVE",
"174 -7 OFFCURVE",
"385 -7 CURVE SMOOTH"
);
},
{
closed = 1;
nodes = (
"236 74 OFFCURVE",
"156 178 OFFCURVE",
"156 372 CURVE SMOOTH",
"156 567 OFFCURVE",
"236 666 OFFCURVE",
"385 666 CURVE SMOOTH",
"535 666 OFFCURVE",
"615 567 OFFCURVE",
"615 372 CURVE SMOOTH",
"615 178 OFFCURVE",
"535 74 OFFCURVE",
"385 74 CURVE SMOOTH"
);
}
);
width = 1079.5;
},
{
anchors = (
{
name = top;
position = "{540, 740}";
}
);
layerId = "466C6FD7-E5A4-4003-892F-69A78A0A7E44";
name = Bold;
paths = (
{
closed = 1;
nodes = (
"464 -8 OFFCURVE",
"538 16 OFFCURVE",
"596 66 CURVE",
"560 123 LINE",
"560 43 LINE",
"560 13 OFFCURVE",
"573 0 OFFCURVE",
"602 0 CURVE SMOOTH",
"989 0 LINE SMOOTH",
"1013 0 OFFCURVE",
"1021 16 OFFCURVE",
"1021 53 CURVE SMOOTH",
"1021 85 LINE SMOOTH",
"1021 123 OFFCURVE",
"1013 138 OFFCURVE",
"989 138 CURVE SMOOTH",
"722 138 LINE",
"722 309 LINE",
"961 309 LINE SMOOTH",
"983 309 OFFCURVE",
"993 326 OFFCURVE",
"993 363 CURVE SMOOTH",
"993 396 LINE SMOOTH",
"993 432 OFFCURVE",
"983 448 OFFCURVE",
"961 448 CURVE SMOOTH",
"722 448 LINE",
"722 601 LINE",
"988 601 LINE SMOOTH",
"1011 601 OFFCURVE",
"1020 617 OFFCURVE",
"1020 655 CURVE SMOOTH",
"1020 687 LINE SMOOTH",
"1020 723 OFFCURVE",
"1011 740 OFFCURVE",
"988 740 CURVE SMOOTH",
"602 740 LINE SMOOTH",
"573 740 OFFCURVE",
"560 727 OFFCURVE",
"560 700 CURVE SMOOTH",
"560 621 LINE",
"596 674 LINE",
"537 723 OFFCURVE",
"466 749 OFFCURVE",
"377 749 CURVE SMOOTH",
"165 749 OFFCURVE",
"47 614 OFFCURVE",
"47 370 CURVE SMOOTH",
"47 126 OFFCURVE",
"165 -8 OFFCURVE",
"377 -8 CURVE SMOOTH"
);
},
{
closed = 1;
nodes = (
"274 130 OFFCURVE",
"214 214 OFFCURVE",
"214 370 CURVE SMOOTH",
"214 526 OFFCURVE",
"274 609 OFFCURVE",
"386 609 CURVE SMOOTH",
"500 609 OFFCURVE",
"558 526 OFFCURVE",
"558 370 CURVE SMOOTH",
"558 214 OFFCURVE",
"500 130 OFFCURVE",
"386 130 CURVE SMOOTH"
);
}
);
width = 1079.5;
}
);
unicode = 0152;
},
{
glyphname = P;
lastChange = "2015-01-29 03:32:02 +0000";
layers = (
{
layerId = "809BDC91-2406-4790-B9EF-A5FFF608A06A";
name = Regular;
paths = (
{
closed = 1;
nodes = (
"141 -2 LINE SMOOTH",
"170 -2 OFFCURVE",
"183 7 OFFCURVE",
"183 22 CURVE SMOOTH",
"183 316 LINE",
"347 316 LINE SMOOTH",
"402 316 OFFCURVE",
"572 339 OFFCURVE",
"572 533 CURVE SMOOTH",
"572 711 OFFCURVE",
"427 740 OFFCURVE",
"336 740 CURVE SMOOTH",
"121 740 LINE SMOOTH",
"100 740 OFFCURVE",
"89 730 OFFCURVE",
"89 708 CURVE SMOOTH",
"89 22 LINE SMOOTH",
"89 7 OFFCURVE",
"103 -2 OFFCURVE",
"131 -2 CURVE SMOOTH"
);
},
{
closed = 1;
nodes = (
"182 660 LINE",
"333 660 LINE SMOOTH",
"395 660 OFFCURVE",
"475 637 OFFCURVE",
"475 533 CURVE SMOOTH",
"475 417 OFFCURVE",
"390 396 OFFCURVE",
"348 396 CURVE SMOOTH",
"182 396 LINE"
);
}
);
width = 602;
},
{
layerId = "466C6FD7-E5A4-4003-892F-69A78A0A7E44";
name = Bold;
paths = (
{
closed = 1;
nodes = (
"172 -2 LINE SMOOTH",
"216 -2 OFFCURVE",
"235 9 OFFCURVE",
"235 32 CURVE SMOOTH",
"235 277 LINE",
"348 277 LINE SMOOTH",
"404 277 OFFCURVE",
"589 304 OFFCURVE",
"589 508 CURVE SMOOTH",
"589 712 OFFCURVE",
"431 740 OFFCURVE",
"337 740 CURVE SMOOTH",
"115 740 LINE SMOOTH",
"85 740 OFFCURVE",
"72 727 OFFCURVE",
"72 698 CURVE SMOOTH",
"72 32 LINE SMOOTH",
"72 9 OFFCURVE",
"92 -2 OFFCURVE",
"136 -2 CURVE SMOOTH"
);
},
{
closed = 1;
nodes = (
"235 601 LINE",
"329 601 LINE SMOOTH",
"369 601 OFFCURVE",
"422 584 OFFCURVE",
"422 508 CURVE SMOOTH",
"422 432 OFFCURVE",
"369 416 OFFCURVE",
"329 416 CURVE SMOOTH",
"235 416 LINE"
);
}
);
width = 602;
}
);
unicode = 0050;
},
{
glyphname = Thorn;
lastChange = "2015-01-29 03:32:02 +0000";
layers = (
{
layerId = "809BDC91-2406-4790-B9EF-A5FFF608A06A";
name = Regular;
paths = (
{
closed = 1;
nodes = (
"141 -2 LINE SMOOTH",
"170 -2 OFFCURVE",
"183 7 OFFCURVE",
"183 22 CURVE SMOOTH",
"183 187 LINE",
"347 187 LINE SMOOTH",
"402 187 OFFCURVE",
"572 210 OFFCURVE",
"572 404 CURVE SMOOTH",
"572 583 OFFCURVE",
"427 612 OFFCURVE",
"336 612 CURVE SMOOTH",
"183 612 LINE",
"183 719 LINE SMOOTH",
"183 733 OFFCURVE",
"170 742 OFFCURVE",
"141 742 CURVE SMOOTH",
"131 742 LINE SMOOTH",
"103 742 OFFCURVE",
"89 733 OFFCURVE",
"89 719 CURVE SMOOTH",
"89 22 LINE SMOOTH",
"89 7 OFFCURVE",
"103 -2 OFFCURVE",
"131 -2 CURVE SMOOTH"
);
},
{
closed = 1;
nodes = (
"182 531 LINE",
"333 531 LINE SMOOTH",
"395 531 OFFCURVE",
"475 508 OFFCURVE",
"475 404 CURVE SMOOTH",
"475 288 OFFCURVE",
"390 266 OFFCURVE",
"348 266 CURVE SMOOTH",
"182 266 LINE"
);
}
);
width = 598;
},
{
layerId = "466C6FD7-E5A4-4003-892F-69A78A0A7E44";
name = Bold;
paths = (
{
closed = 1;
nodes = (
"171 -2 LINE SMOOTH",
"215 -2 OFFCURVE",
"234 9 OFFCURVE",
"234 32 CURVE SMOOTH",
"234 163 LINE",
"353 163 LINE SMOOTH",
"411 163 OFFCURVE",
"595 192 OFFCURVE",
"595 396 CURVE SMOOTH",
"595 598 OFFCURVE",
"437 627 OFFCURVE",
"343 627 CURVE SMOOTH",
"234 627 LINE",
"234 708 LINE SMOOTH",
"234 730 OFFCURVE",
"215 742 OFFCURVE",
"171 742 CURVE SMOOTH",
"135 742 LINE SMOOTH",
"91 742 OFFCURVE",
"71 730 OFFCURVE",
"71 708 CURVE SMOOTH",
"71 32 LINE SMOOTH",
"71 9 OFFCURVE",
"91 -2 OFFCURVE",
"135 -2 CURVE SMOOTH"
);
},
{
closed = 1;
nodes = (
"234 489 LINE",
"336 489 LINE SMOOTH",
"377 489 OFFCURVE",
"427 472 OFFCURVE",
"427 396 CURVE SMOOTH",
"427 319 OFFCURVE",
"377 303 OFFCURVE",
"336 303 CURVE SMOOTH",
"234 303 LINE"
);
}
);
width = 598;
}
);
unicode = 00DE;
},
{
glyphname = Q;
lastChange = "2015-01-29 03:32:03 +0000";
layers = (
{
layerId = "809BDC91-2406-4790-B9EF-A5FFF608A06A";
name = Regular;
paths = (
{
closed = 1;
nodes = (
"702 -157 OFFCURVE",
"722 -93 OFFCURVE",
"722 -81 CURVE SMOOTH",
"722 -73 OFFCURVE",
"718 -68 OFFCURVE",
"707 -65 CURVE SMOOTH",
"499 1 LINE",
"499 6 LINE",
"637 42 OFFCURVE",
"711 166 OFFCURVE",
"711 367 CURVE SMOOTH",
"711 614 OFFCURVE",
"598 746 OFFCURVE",
"385 746 CURVE SMOOTH",
"174 746 OFFCURVE",
"60 615 OFFCURVE",
"60 367 CURVE SMOOTH",
"60 178 OFFCURVE",
"127 60 OFFCURVE",
"260 7 CURVE SMOOTH",
"290 -7 OFFCURVE",
"665 -157 OFFCURVE",
"678 -157 CURVE SMOOTH"
);
},
{
closed = 1;
nodes = (
"240 71 OFFCURVE",
"156 174 OFFCURVE",
"156 367 CURVE SMOOTH",
"156 560 OFFCURVE",
"240 666 OFFCURVE",
"385 666 CURVE SMOOTH",
"532 666 OFFCURVE",
"615 559 OFFCURVE",
"615 367 CURVE SMOOTH",
"615 176 OFFCURVE",
"532 71 OFFCURVE",
"385 71 CURVE SMOOTH"
);
}
);
width = 772;
},
{
layerId = "466C6FD7-E5A4-4003-892F-69A78A0A7E44";
name = Bold;
paths = (
{
closed = 1;
nodes = (
"711 -155 OFFCURVE",
"735 -64 OFFCURVE",
"735 -46 CURVE SMOOTH",
"735 -39 OFFCURVE",
"730 -33 OFFCURVE",
"721 -30 CURVE SMOOTH",
"559 29 LINE",
"559 33 LINE",
"666 87 OFFCURVE",
"724 203 OFFCURVE",
"724 370 CURVE SMOOTH",
"724 614 OFFCURVE",
"604 749 OFFCURVE",
"386 749 CURVE SMOOTH",
"169 749 OFFCURVE",
"47 614 OFFCURVE",
"47 370 CURVE SMOOTH",
"47 188 OFFCURVE",
"116 66 OFFCURVE",
"241 18 CURVE SMOOTH",
"670 -153 OFFCURVE",
"667 -155 OFFCURVE",
"677 -155 CURVE SMOOTH"
);
},
{
closed = 1;
nodes = (
"274 126 OFFCURVE",
"214 211 OFFCURVE",
"214 370 CURVE SMOOTH",
"214 526 OFFCURVE",
"274 609 OFFCURVE",
"386 609 CURVE SMOOTH",
"500 609 OFFCURVE",
"558 526 OFFCURVE",
"558 370 CURVE SMOOTH",
"558 211 OFFCURVE",
"500 126 OFFCURVE",
"386 126 CURVE SMOOTH"
);
}
);
width = 772;
}
);
unicode = 0051;
},
{
glyphname = R;
lastChange = "2015-01-29 03:32:02 +0000";
layers = (
{
anchors = (
{
name = bottom;
position = "{322, 0}";
},
{
name = top;
position = "{322, 740}";
}
);
layerId = "809BDC91-2406-4790-B9EF-A5FFF608A06A";
name = Regular;
paths = (
{
closed = 1;
nodes = (
"152 -2 LINE SMOOTH",
"182 -2 OFFCURVE",
"194 7 OFFCURVE",
"194 22 CURVE SMOOTH",
"194 326 LINE",
"290 326 LINE SMOOTH",
"372 326 OFFCURVE",
"415 304 OFFCURVE",
"447 222 CURVE SMOOTH",
"528 15 LINE SMOOTH",
"532 4 OFFCURVE",
"550 -2 OFFCURVE",
"570 -2 CURVE SMOOTH",
"581 -2 LINE SMOOTH",
"612 -2 OFFCURVE",
"625 4 OFFCURVE",
"625 15 CURVE SMOOTH",
"625 19 OFFCURVE",
"624 24 OFFCURVE",
"622 30 CURVE SMOOTH",
"539 238 LINE SMOOTH",
"512 307 OFFCURVE",
"489 355 OFFCURVE",
"444 370 CURVE",
"444 374 LINE",
"519 404 OFFCURVE",
"566 462 OFFCURVE",
"566 552 CURVE SMOOTH",
"566 686 OFFCURVE",
"476 740 OFFCURVE",
"311 740 CURVE SMOOTH",
"134 740 LINE SMOOTH",
"112 740 OFFCURVE",
"102 730 OFFCURVE",
"102 708 CURVE SMOOTH",
"102 22 LINE SMOOTH",
"102 7 OFFCURVE",
"115 -2 OFFCURVE",
"145 -2 CURVE SMOOTH"
);
},
{
closed = 1;
nodes = (
"194 660 LINE",
"327 660 LINE SMOOTH",
"412 660 OFFCURVE",
"470 622 OFFCURVE",
"470 537 CURVE SMOOTH",
"470 466 OFFCURVE",
"411 406 OFFCURVE",
"335 406 CURVE SMOOTH",
"194 406 LINE"
);
}
);
width = 645;
},
{
anchors = (
{
name = bottom;
position = "{322, 0}";
},
{
name = top;
position = "{322, 740}";
}
);
layerId = "466C6FD7-E5A4-4003-892F-69A78A0A7E44";
name = Bold;
paths = (
{
closed = 1;
nodes = (
"172 -2 LINE SMOOTH",
"216 -2 OFFCURVE",
"235 9 OFFCURVE",
"235 32 CURVE SMOOTH",
"235 289 LINE",
"276 289 LINE SMOOTH",
"346 289 OFFCURVE",
"362 269 OFFCURVE",
"383 226 CURVE",
"467 21 LINE SMOOTH",
"474 3 OFFCURVE",
"497 -2 OFFCURVE",
"528 -2 CURVE SMOOTH",
"571 -2 LINE SMOOTH",
"614 -2 OFFCURVE",
"635 7 OFFCURVE",
"635 20 CURVE SMOOTH",
"635 24 OFFCURVE",
"633 31 OFFCURVE",
"628 39 CURVE SMOOTH",
"536 273 LINE SMOOTH",
"519 318 OFFCURVE",
"487 359 OFFCURVE",
"460 369 CURVE",
"460 373 LINE",
"533 401 OFFCURVE",
"583 459 OFFCURVE",
"583 541 CURVE SMOOTH",
"583 668 OFFCURVE",
"505 740 OFFCURVE",
"320 740 CURVE SMOOTH",
"115 740 LINE SMOOTH",
"85 740 OFFCURVE",
"72 727 OFFCURVE",
"72 698 CURVE SMOOTH",
"72 32 LINE SMOOTH",
"72 9 OFFCURVE",
"92 -2 OFFCURVE",
"136 -2 CURVE SMOOTH"
);
},
{
closed = 1;
nodes = (
"235 601 LINE",
"328 601 LINE SMOOTH",
"383 601 OFFCURVE",
"417 570 OFFCURVE",
"417 520 CURVE SMOOTH",
"417 470 OFFCURVE",
"380 430 OFFCURVE",
"336 430 CURVE SMOOTH",
"235 430 LINE"
);
}
);
width = 645;
}
);
unicode = 0052;
},
{
glyphname = S;
lastChange = "2015-01-29 03:32:02 +0000";
layers = (
{
anchors = (
{
name = bottom;
position = "{264, 0}";
},
{
name = top;
position = "{264, 740}";
}
);
layerId = "809BDC91-2406-4790-B9EF-A5FFF608A06A";
name = Regular;
paths = (
{
closed = 1;
nodes = (
"401 -7 OFFCURVE",
"492 72 OFFCURVE",
"492 199 CURVE SMOOTH",
"492 342 OFFCURVE",
"386 384 OFFCURVE",
"293 421 CURVE SMOOTH",
"216 449 OFFCURVE",
"149 469 OFFCURVE",
"149 547 CURVE SMOOTH",
"149 624 OFFCURVE",
"206 666 OFFCURVE",
"286 666 CURVE SMOOTH",
"369 666 OFFCURVE",
"409 626 OFFCURVE",
"424 626 CURVE SMOOTH",
"434 626 OFFCURVE",
"458 666 OFFCURVE",
"458 681 CURVE SMOOTH",
"458 720 OFFCURVE",
"348 746 OFFCURVE",
"288 746 CURVE SMOOTH",
"147 746 OFFCURVE",
"53 665 OFFCURVE",
"53 551 CURVE SMOOTH",
"53 412 OFFCURVE",
"148 378 OFFCURVE",
"237 342 CURVE SMOOTH",
"319 311 OFFCURVE",
"396 284 OFFCURVE",
"396 199 CURVE SMOOTH",
"396 124 OFFCURVE",
"338 74 OFFCURVE",
"257 74 CURVE SMOOTH",
"149 74 OFFCURVE",
"89 128 OFFCURVE",
"76 128 CURVE SMOOTH",
"65 128 OFFCURVE",
"39 87 OFFCURVE",
"39 71 CURVE SMOOTH",
"39 42 OFFCURVE",
"134 -7 OFFCURVE",
"257 -7 CURVE SMOOTH"
);
}
);
width = 528.5;
},
{
anchors = (
{
name = bottom;
position = "{264, 0}";
},
{
name = top;
position = "{264, 740}";
}
);
layerId = "466C6FD7-E5A4-4003-892F-69A78A0A7E44";
name = Bold;
paths = (
{
closed = 1;
nodes = (
"386 -8 OFFCURVE",
"510 51 OFFCURVE",
"510 223 CURVE SMOOTH",
"510 367 OFFCURVE",
"404 411 OFFCURVE",
"318 446 CURVE SMOOTH",
"256 470 OFFCURVE",
"205 491 OFFCURVE",
"205 550 CURVE SMOOTH",
"205 574 OFFCURVE",
"221 609 OFFCURVE",
"303 609 CURVE SMOOTH",
"374 609 OFFCURVE",
"406 583 OFFCURVE",
"421 583 CURVE SMOOTH",
"445 583 OFFCURVE",
"478 645 OFFCURVE",
"478 675 CURVE SMOOTH",
"478 709 OFFCURVE",
"400 749 OFFCURVE",
"287 749 CURVE SMOOTH",
"165 749 OFFCURVE",
"39 687 OFFCURVE",
"39 536 CURVE SMOOTH",
"39 409 OFFCURVE",
"107 358 OFFCURVE",
"180 322 CURVE SMOOTH",
"260 286 OFFCURVE",
"343 268 OFFCURVE",
"343 204 CURVE SMOOTH",
"343 145 OFFCURVE",
"289 130 OFFCURVE",
"243 130 CURVE SMOOTH",
"159 130 OFFCURVE",
"107 179 OFFCURVE",
"88 179 CURVE SMOOTH",
"66 179 OFFCURVE",
"23 117 OFFCURVE",
"23 85 CURVE SMOOTH",
"23 49 OFFCURVE",
"110 -8 OFFCURVE",
"272 -8 CURVE SMOOTH"
);
}
);
width = 528.5;
}
);
unicode = 0053;
},
{
glyphname = Germandbls;
lastChange = "2015-01-29 03:32:02 +0000";
layers = (
{
layerId = "809BDC91-2406-4790-B9EF-A5FFF608A06A";
name = Regular;
paths = (
{
closed = 1;
nodes = (
"560 -7 OFFCURVE",
"697 52 OFFCURVE",
"697 214 CURVE SMOOTH",
"697 342 OFFCURVE",
"612 405 OFFCURVE",
"491 424 CURVE",
"650 640 LINE",
"653 644 OFFCURVE",
"654 647 OFFCURVE",
"654 654 CURVE SMOOTH",
"654 676 OFFCURVE",
"638 708 OFFCURVE",
"630 709 CURVE SMOOTH",
"576 724 OFFCURVE",
"487 743 OFFCURVE",
"386 746 CURVE SMOOTH",
"197 748 OFFCURVE",
"97 647 OFFCURVE",
"97 455 CURVE SMOOTH",
"97 22 LINE SMOOTH",
"97 7 OFFCURVE",
"109 -2 OFFCURVE",
"139 -2 CURVE SMOOTH",
"147 -2 LINE SMOOTH",
"178 -2 OFFCURVE",
"190 7 OFFCURVE",
"190 22 CURVE SMOOTH",
"190 454 LINE SMOOTH",
"190 602 OFFCURVE",
"254 666 OFFCURVE",
"389 666 CURVE SMOOTH",
"453 666 OFFCURVE",
"504 656 OFFCURVE",
"537 644 CURVE",
"378 424 LINE",
"375 421 OFFCURVE",
"374 416 OFFCURVE",
"374 412 CURVE SMOOTH",
"374 390 OFFCURVE",
"389 355 OFFCURVE",
"399 355 CURVE SMOOTH",
"436 355 LINE SMOOTH",
"537 355 OFFCURVE",
"605 323 OFFCURVE",
"605 215 CURVE SMOOTH",
"605 102 OFFCURVE",
"510 71 OFFCURVE",
"443 71 CURVE SMOOTH",
"367 71 OFFCURVE",
"351 107 OFFCURVE",
"307 107 CURVE SMOOTH",
"296 107 OFFCURVE",
"271 74 OFFCURVE",
"271 55 CURVE SMOOTH",
"300 28 OFFCURVE",
"347 -7 OFFCURVE",
"451 -7 CURVE SMOOTH"
);
}
);
width = 739.5;
},
{
layerId = "466C6FD7-E5A4-4003-892F-69A78A0A7E44";
name = Bold;
paths = (
{
closed = 1;
nodes = (
"618 -8 OFFCURVE",
"712 75 OFFCURVE",
"712 215 CURVE SMOOTH",
"712 353 OFFCURVE",
"632 402 OFFCURVE",
"552 433 CURVE",
"669 624 LINE",
"670 626 OFFCURVE",
"670 628 OFFCURVE",
"670 632 CURVE SMOOTH",
"670 660 OFFCURVE",
"648 727 OFFCURVE",
"632 729 CURVE SMOOTH",
"562 740 OFFCURVE",
"460 749 OFFCURVE",
"369 749 CURVE SMOOTH",
"172 749 OFFCURVE",
"70 648 OFFCURVE",
"70 457 CURVE SMOOTH",
"70 32 LINE SMOOTH",
"70 9 OFFCURVE",
"88 -2 OFFCURVE",
"133 -2 CURVE SMOOTH",
"170 -2 LINE SMOOTH",
"214 -2 OFFCURVE",
"233 9 OFFCURVE",
"233 32 CURVE SMOOTH",
"233 456 LINE SMOOTH",
"233 553 OFFCURVE",
"275 609 OFFCURVE",
"366 609 CURVE SMOOTH",
"411 609 OFFCURVE",
"447 606 OFFCURVE",
"478 603 CURVE",
"374 430 LINE",
"372 427 OFFCURVE",
"371 424 OFFCURVE",
"371 420 CURVE SMOOTH",
"371 391 OFFCURVE",
"395 326 OFFCURVE",
"412 326 CURVE SMOOTH",
"442 326 LINE SMOOTH",
"515 326 OFFCURVE",
"554 288 OFFCURVE",
"554 218 CURVE SMOOTH",
"554 152 OFFCURVE",
"517 116 OFFCURVE",
"460 116 CURVE SMOOTH",
"394 116 OFFCURVE",
"354 159 OFFCURVE",
"339 159 CURVE SMOOTH",
"315 159 OFFCURVE",
"287 99 OFFCURVE",
"287 78 CURVE SMOOTH",
"287 13 OFFCURVE",
"415 -8 OFFCURVE",
"485 -8 CURVE SMOOTH"
);
}
);
width = 739.5;
}
);
unicode = 1E9E;
},
{
glyphname = Schwa;
lastChange = "2015-01-29 03:32:02 +0000";
layers = (
{
layerId = "809BDC91-2406-4790-B9EF-A5FFF608A06A";
name = Regular;
paths = (
{
closed = 1;
nodes = (
"517 -9 OFFCURVE",
"617 113 OFFCURVE",
"617 350 CURVE SMOOTH",
"617 622 OFFCURVE",
"520 746 OFFCURVE",
"317 746 CURVE SMOOTH",
"171 746 OFFCURVE",
"63 691 OFFCURVE",
"63 658 CURVE SMOOTH",
"63 645 OFFCURVE",
"85 604 OFFCURVE",
"100 604 CURVE SMOOTH",
"117 604 OFFCURVE",
"188 670 OFFCURVE",
"318 670 CURVE SMOOTH",
"447 670 OFFCURVE",
"509 583 OFFCURVE",
"521 383 CURVE",
"83 383 LINE SMOOTH",
"71 383 OFFCURVE",
"47 353 OFFCURVE",
"47 340 CURVE SMOOTH",
"47 109 OFFCURVE",
"136 -9 OFFCURVE",
"319 -9 CURVE SMOOTH"
);
},
{
closed = 1;
nodes = (
"199 67 OFFCURVE",
"141 146 OFFCURVE",
"141 307 CURVE",
"521 307 LINE",
"515 146 OFFCURVE",
"444 67 OFFCURVE",
"320 67 CURVE SMOOTH"
);
}
);
width = 709.5;
},
{
layerId = "466C6FD7-E5A4-4003-892F-69A78A0A7E44";
name = Bold;
paths = (
{
closed = 1;
nodes = (
"505 -1 OFFCURVE",
"630 99 OFFCURVE",
"630 350 CURVE SMOOTH",
"630 591 OFFCURVE",
"534 749 OFFCURVE",
"314 749 CURVE SMOOTH",
"235 749 OFFCURVE",
"60 719 OFFCURVE",
"60 650 CURVE SMOOTH",
"60 629 OFFCURVE",
"91 571 OFFCURVE",
"115 571 CURVE SMOOTH",
"135 571 OFFCURVE",
"208 625 OFFCURVE",
"305 625 CURVE SMOOTH",
"400 625 OFFCURVE",
"458 575 OFFCURVE",
"469 397 CURVE",
"94 397 LINE SMOOTH",
"81 397 OFFCURVE",
"40 353 OFFCURVE",
"40 335 CURVE SMOOTH",
"40 157 OFFCURVE",
"118 -1 OFFCURVE",
"321 -1 CURVE SMOOTH"
);
},
{
closed = 1;
nodes = (
"231 123 OFFCURVE",
"192 194 OFFCURVE",
"192 293 CURVE",
"469 293 LINE",
"451 161 OFFCURVE",
"392 123 OFFCURVE",
"320 123 CURVE SMOOTH"
);
}
);
width = 709.5;
}
);
unicode = 018F;
},
{
glyphname = T;
lastChange = "2015-01-29 03:32:02 +0000";
layers = (
{
anchors = (
{
name = bottom;
position = "{290, 0}";
},
{
name = center;
position = "{290, 370}";
},
{
name = top;
position = "{290, 740}";
}
);
layerId = "809BDC91-2406-4790-B9EF-A5FFF608A06A";
name = Regular;
paths = (
{
closed = 1;
nodes = (
"296 -2 LINE SMOOTH",
"325 -2 OFFCURVE",
"338 7 OFFCURVE",
"338 22 CURVE SMOOTH",
"338 660 LINE",
"537 660 LINE SMOOTH",
"552 660 OFFCURVE",
"559 669 OFFCURVE",
"559 691 CURVE SMOOTH",
"559 708 LINE SMOOTH",
"559 730 OFFCURVE",
"552 740 OFFCURVE",
"537 740 CURVE SMOOTH",
"42 740 LINE SMOOTH",
"27 740 OFFCURVE",
"21 730 OFFCURVE",
"21 708 CURVE SMOOTH",
"21 691 LINE SMOOTH",
"21 669 OFFCURVE",
"27 660 OFFCURVE",
"42 660 CURVE SMOOTH",
"244 660 LINE",
"244 22 LINE SMOOTH",
"244 7 OFFCURVE",
"257 -2 OFFCURVE",
"287 -2 CURVE SMOOTH"
);
}
);
width = 580.5;
},
{
anchors = (
{
name = bottom;
position = "{290, 0}";
},
{
name = center;
position = "{290, 370}";
},
{
name = top;
position = "{290, 740}";
}
);
layerId = "466C6FD7-E5A4-4003-892F-69A78A0A7E44";
name = Bold;
paths = (
{
closed = 1;
nodes = (
"308 -2 LINE SMOOTH",
"353 -2 OFFCURVE",
"372 9 OFFCURVE",
"372 32 CURVE SMOOTH",
"372 601 LINE",
"540 601 LINE SMOOTH",
"562 601 OFFCURVE",
"572 617 OFFCURVE",
"572 655 CURVE SMOOTH",
"572 687 LINE SMOOTH",
"572 723 OFFCURVE",
"562 740 OFFCURVE",
"540 740 CURVE SMOOTH",
"40 740 LINE SMOOTH",
"19 740 OFFCURVE",
"8 723 OFFCURVE",
"8 687 CURVE SMOOTH",
"8 655 LINE SMOOTH",
"8 617 OFFCURVE",
"19 601 OFFCURVE",
"40 601 CURVE SMOOTH",
"209 601 LINE",
"209 32 LINE SMOOTH",
"209 9 OFFCURVE",
"227 -2 OFFCURVE",
"273 -2 CURVE SMOOTH"
);
}
);
width = 580.5;
}
);
leftKerningGroup = T;
rightKerningGroup = T;
unicode = 0054;
},
{
glyphname = U;
lastChange = "2015-01-29 03:32:03 +0000";
layers = (
{
anchors = (
{
name = bottom;
position = "{378, 0}";
},
{
name = horn;
position = "{614, 742}";
},
{
name = ogonek;
position = "{456, 0}";
},
{
name = top;
position = "{377, 740}";
}
);
layerId = "809BDC91-2406-4790-B9EF-A5FFF608A06A";
name = Regular;
paths = (
{
closed = 1;
nodes = (
"562 -7 OFFCURVE",
"665 85 OFFCURVE",
"665 237 CURVE SMOOTH",
"665 719 LINE SMOOTH",
"665 733 OFFCURVE",
"653 742 OFFCURVE",
"623 742 CURVE SMOOTH",
"614 742 LINE SMOOTH",
"584 742 OFFCURVE",
"572 733 OFFCURVE",
"572 719 CURVE SMOOTH",
"572 234 LINE SMOOTH",
"572 141 OFFCURVE",
"490 74 OFFCURVE",
"377 74 CURVE SMOOTH",
"264 74 OFFCURVE",
"180 140 OFFCURVE",
"180 234 CURVE SMOOTH",
"180 719 LINE SMOOTH",
"180 733 OFFCURVE",
"168 742 OFFCURVE",
"138 742 CURVE SMOOTH",
"130 742 LINE SMOOTH",
"102 742 OFFCURVE",
"87 733 OFFCURVE",
"87 719 CURVE SMOOTH",
"87 237 LINE SMOOTH",
"87 85 OFFCURVE",
"190 -7 OFFCURVE",
"377 -7 CURVE SMOOTH"
);
}
);
width = 752.5;
},
{
anchors = (
{
name = bottom;
position = "{377, 0}";
},
{
name = horn;
position = "{584, 742}";
},
{
name = ogonek;
position = "{473, 0}";
},
{
name = top;
position = "{377, 740}";
}
);
layerId = "466C6FD7-E5A4-4003-892F-69A78A0A7E44";
name = Bold;
paths = (
{
closed = 1;
nodes = (
"569 -8 OFFCURVE",
"682 85 OFFCURVE",
"682 247 CURVE SMOOTH",
"682 708 LINE SMOOTH",
"682 730 OFFCURVE",
"663 742 OFFCURVE",
"618 742 CURVE SMOOTH",
"583 742 LINE SMOOTH",
"539 742 OFFCURVE",
"520 730 OFFCURVE",
"520 708 CURVE SMOOTH",
"520 257 LINE SMOOTH",
"520 184 OFFCURVE",
"462 130 OFFCURVE",
"377 130 CURVE SMOOTH",
"290 130 OFFCURVE",
"232 184 OFFCURVE",
"232 257 CURVE SMOOTH",
"232 708 LINE SMOOTH",
"232 730 OFFCURVE",
"213 742 OFFCURVE",
"169 742 CURVE SMOOTH",
"133 742 LINE SMOOTH",
"88 742 OFFCURVE",
"70 730 OFFCURVE",
"70 708 CURVE SMOOTH",
"70 247 LINE SMOOTH",
"70 85 OFFCURVE",
"182 -8 OFFCURVE",
"377 -8 CURVE SMOOTH"
);
}
);
width = 752.5;
}
);
unicode = 0055;
},
{
glyphname = V;
lastChange = "2015-01-29 03:32:02 +0000";
layers = (
{
layerId = "809BDC91-2406-4790-B9EF-A5FFF608A06A";
name = Regular;
paths = (
{
closed = 1;
nodes = (
"342 -2 LINE SMOOTH",
"363 -2 OFFCURVE",
"381 2 OFFCURVE",
"384 15 CURVE SMOOTH",
"626 709 LINE SMOOTH",
"628 716 OFFCURVE",
"628 720 OFFCURVE",
"628 723 CURVE SMOOTH",
"628 735 OFFCURVE",
"615 742 OFFCURVE",
"583 742 CURVE SMOOTH",
"578 742 LINE SMOOTH",
"557 742 OFFCURVE",
"539 739 OFFCURVE",
"536 724 CURVE SMOOTH",
"340 162 LINE",
"328 106 LINE",
"325 106 LINE",
"315 161 LINE",
"119 724 LINE SMOOTH",
"115 739 OFFCURVE",
"98 742 OFFCURVE",
"77 742 CURVE SMOOTH",
"67 742 LINE SMOOTH",
"36 742 OFFCURVE",
"22 734 OFFCURVE",
"22 723 CURVE SMOOTH",
"22 720 OFFCURVE",
"23 716 OFFCURVE",
"24 710 CURVE SMOOTH",
"267 15 LINE SMOOTH",
"272 2 OFFCURVE",
"287 -2 OFFCURVE",
"309 -2 CURVE SMOOTH"
);
}
);
width = 652.5;
},
{
layerId = "466C6FD7-E5A4-4003-892F-69A78A0A7E44";
name = Bold;
paths = (
{
closed = 1;
nodes = (
"351 -2 LINE SMOOTH",
"382 -2 OFFCURVE",
"406 3 OFFCURVE",
"412 21 CURVE SMOOTH",
"639 700 LINE SMOOTH",
"642 708 OFFCURVE",
"643 713 OFFCURVE",
"643 719 CURVE SMOOTH",
"643 733 OFFCURVE",
"624 742 OFFCURVE",
"580 742 CURVE SMOOTH",
"547 742 LINE SMOOTH",
"516 742 OFFCURVE",
"491 733 OFFCURVE",
"485 711 CURVE SMOOTH",
"337 254 LINE",
"326 216 LINE",
"321 216 LINE",
"309 254 LINE",
"167 711 LINE SMOOTH",
"160 734 OFFCURVE",
"135 742 OFFCURVE",
"105 742 CURVE SMOOTH",
"71 742 LINE SMOOTH",
"25 742 OFFCURVE",
"6 733 OFFCURVE",
"6 719 CURVE SMOOTH",
"6 713 OFFCURVE",
"8 708 OFFCURVE",
"9 700 CURVE SMOOTH",
"238 21 LINE SMOOTH",
"243 3 OFFCURVE",
"266 -2 OFFCURVE",
"297 -2 CURVE SMOOTH"
);
}
);
width = 652.5;
}
);
leftKerningGroup = V;
rightKerningGroup = V;
unicode = 0056;
},
{
glyphname = W;
lastChange = "2015-01-29 03:32:02 +0000";
layers = (
{
anchors = (
{
name = top;
position = "{466, 740}";
}
);
layerId = "809BDC91-2406-4790-B9EF-A5FFF608A06A";
name = Regular;
paths = (
{
closed = 1;
nodes = (
"285 -2 LINE SMOOTH",
"306 -2 OFFCURVE",
"324 2 OFFCURVE",
"327 15 CURVE SMOOTH",
"443 445 LINE",
"465 583 LINE",
"487 445 LINE",
"602 15 LINE SMOOTH",
"605 2 OFFCURVE",
"623 -2 OFFCURVE",
"645 -2 CURVE SMOOTH",
"688 -2 LINE SMOOTH",
"708 -2 OFFCURVE",
"727 2 OFFCURVE",
"730 15 CURVE SMOOTH",
"912 709 LINE SMOOTH",
"913 713 OFFCURVE",
"915 722 OFFCURVE",
"915 723 CURVE SMOOTH",
"915 735 OFFCURVE",
"902 742 OFFCURVE",
"870 742 CURVE SMOOTH",
"864 742 LINE SMOOTH",
"844 742 OFFCURVE",
"825 739 OFFCURVE",
"822 724 CURVE SMOOTH",
"693 208 LINE",
"686 173 OFFCURVE",
"677 141 OFFCURVE",
"668 107 CURVE",
"668 107 OFFCURVE",
"659 167 OFFCURVE",
"650 204 CURVE SMOOTH",
"520 723 LINE SMOOTH",
"517 739 OFFCURVE",
"499 742 OFFCURVE",
"478 742 CURVE SMOOTH",
"462 742 LINE SMOOTH",
"441 742 OFFCURVE",
"424 739 OFFCURVE",
"421 723 CURVE SMOOTH",
"293 209 LINE",
"284 174 OFFCURVE",
"275 141 OFFCURVE",
"267 107 CURVE",
"266 110 OFFCURVE",
"256 177 OFFCURVE",
"248 205 CURVE SMOOTH",
"114 724 LINE SMOOTH",
"110 739 OFFCURVE",
"93 742 OFFCURVE",
"71 742 CURVE SMOOTH",
"61 742 LINE SMOOTH",
"29 742 OFFCURVE",
"15 734 OFFCURVE",
"15 723 CURVE SMOOTH",
"15 720 OFFCURVE",
"18 713 OFFCURVE",
"19 709 CURVE SMOOTH",
"199 15 LINE SMOOTH",
"203 2 OFFCURVE",
"221 -2 OFFCURVE",
"241 -2 CURVE SMOOTH"
);
}
);
width = 932;
},
{
anchors = (
{
name = top;
position = "{466, 740}";
}
);
layerId = "466C6FD7-E5A4-4003-892F-69A78A0A7E44";
name = Bold;
paths = (
{
closed = 1;
nodes = (
"299 -2 LINE SMOOTH",
"329 -2 OFFCURVE",
"353 6 OFFCURVE",
"358 21 CURVE SMOOTH",
"447 385 LINE",
"465 458 LINE",
"482 385 LINE",
"569 21 LINE SMOOTH",
"572 6 OFFCURVE",
"597 -2 OFFCURVE",
"627 -2 CURVE SMOOTH",
"704 -2 LINE SMOOTH",
"733 -2 OFFCURVE",
"757 6 OFFCURVE",
"762 21 CURVE SMOOTH",
"934 699 LINE SMOOTH",
"935 706 OFFCURVE",
"936 710 OFFCURVE",
"936 714 CURVE SMOOTH",
"936 731 OFFCURVE",
"916 742 OFFCURVE",
"871 742 CURVE SMOOTH",
"859 742 LINE SMOOTH",
"817 742 OFFCURVE",
"794 731 OFFCURVE",
"788 709 CURVE SMOOTH",
"707 369 LINE SMOOTH",
"697 329 OFFCURVE",
"684 268 OFFCURVE",
"670 210 CURVE",
"658 269 OFFCURVE",
"644 329 OFFCURVE",
"634 369 CURVE SMOOTH",
"551 720 LINE SMOOTH",
"547 738 OFFCURVE",
"527 742 OFFCURVE",
"492 742 CURVE SMOOTH",
"453 742 LINE SMOOTH",
"418 742 OFFCURVE",
"399 738 OFFCURVE",
"394 720 CURVE SMOOTH",
"307 369 LINE SMOOTH",
"298 333 OFFCURVE",
"282 276 OFFCURVE",
"273 216 CURVE",
"258 276 OFFCURVE",
"247 333 OFFCURVE",
"240 369 CURVE SMOOTH",
"160 709 LINE SMOOTH",
"155 731 OFFCURVE",
"130 742 OFFCURVE",
"88 742 CURVE SMOOTH",
"62 742 LINE SMOOTH",
"16 742 OFFCURVE",
"-4 731 OFFCURVE",
"-4 714 CURVE SMOOTH",
"-4 710 OFFCURVE",
"-4 706 OFFCURVE",
"-2 699 CURVE SMOOTH",
"165 21 LINE SMOOTH",
"168 6 OFFCURVE",
"190 -2 OFFCURVE",
"223 -2 CURVE SMOOTH"
);
}
);
width = 932;
}
);
leftKerningGroup = V;
rightKerningGroup = V;
unicode = 0057;
},
{
glyphname = X;
lastChange = "2015-01-29 03:32:02 +0000";
layers = (
{
layerId = "809BDC91-2406-4790-B9EF-A5FFF608A06A";
name = Regular;
paths = (
{
closed = 1;
nodes = (
"78 -2 LINE SMOOTH",
"97 -2 OFFCURVE",
"116 1 OFFCURVE",
"124 13 CURVE SMOOTH",
"319 304 LINE",
"515 14 LINE SMOOTH",
"522 1 OFFCURVE",
"537 -2 OFFCURVE",
"560 -2 CURVE SMOOTH",
"576 -2 LINE SMOOTH",
"613 -2 OFFCURVE",
"625 4 OFFCURVE",
"625 16 CURVE SMOOTH",
"625 22 OFFCURVE",
"622 28 OFFCURVE",
"616 35 CURVE SMOOTH",
"380 391 LINE",
"591 706 LINE SMOOTH",
"595 712 OFFCURVE",
"598 719 OFFCURVE",
"598 723 CURVE SMOOTH",
"598 738 OFFCURVE",
"584 742 OFFCURVE",
"551 742 CURVE SMOOTH",
"543 742 LINE SMOOTH",
"525 742 OFFCURVE",
"506 739 OFFCURVE",
"498 727 CURVE SMOOTH",
"324 472 LINE",
"155 725 LINE SMOOTH",
"147 739 OFFCURVE",
"131 742 OFFCURVE",
"109 742 CURVE SMOOTH",
"95 742 LINE SMOOTH",
"59 742 OFFCURVE",
"46 735 OFFCURVE",
"46 723 CURVE SMOOTH",
"46 719 OFFCURVE",
"50 712 OFFCURVE",
"54 706 CURVE SMOOTH",
"266 385 LINE",
"29 35 LINE SMOOTH",
"23 28 OFFCURVE",
"21 22 OFFCURVE",
"21 16 CURVE SMOOTH",
"21 3 OFFCURVE",
"35 -2 OFFCURVE",
"70 -2 CURVE SMOOTH"
);
}
);
width = 645;
},
{
layerId = "466C6FD7-E5A4-4003-892F-69A78A0A7E44";
name = Bold;
paths = (
{
closed = 1;
nodes = (
"116 -2 LINE SMOOTH",
"147 -2 OFFCURVE",
"167 -1 OFFCURVE",
"179 19 CURVE SMOOTH",
"326 245 LINE",
"466 19 LINE SMOOTH",
"475 2 OFFCURVE",
"499 -2 OFFCURVE",
"530 -2 CURVE SMOOTH",
"571 -2 LINE SMOOTH",
"617 -2 OFFCURVE",
"637 6 OFFCURVE",
"637 19 CURVE SMOOTH",
"637 25 OFFCURVE",
"634 34 OFFCURVE",
"628 44 CURVE SMOOTH",
"416 383 LINE",
"616 696 LINE SMOOTH",
"624 707 OFFCURVE",
"627 716 OFFCURVE",
"627 722 CURVE SMOOTH",
"627 734 OFFCURVE",
"605 742 OFFCURVE",
"560 742 CURVE SMOOTH",
"519 742 LINE SMOOTH",
"489 742 OFFCURVE",
"466 740 OFFCURVE",
"455 722 CURVE SMOOTH",
"328 526 LINE",
"208 722 LINE SMOOTH",
"198 739 OFFCURVE",
"174 742 OFFCURVE",
"145 742 CURVE SMOOTH",
"102 742 LINE SMOOTH",
"55 742 OFFCURVE",
"33 733 OFFCURVE",
"33 722 CURVE SMOOTH",
"33 714 OFFCURVE",
"38 707 OFFCURVE",
"43 696 CURVE SMOOTH",
"237 385 LINE",
"20 44 LINE SMOOTH",
"12 33 OFFCURVE",
"8 24 OFFCURVE",
"8 19 CURVE SMOOTH",
"8 6 OFFCURVE",
"29 -2 OFFCURVE",
"75 -2 CURVE SMOOTH"
);
}
);
width = 645;
}
);
unicode = 0058;
},
{
glyphname = Y;
lastChange = "2015-01-29 03:32:02 +0000";
layers = (
{
anchors = (
{
name = bottom;
position = "{295, 0}";
},
{
name = top;
position = "{296, 740}";
}
);
layerId = "809BDC91-2406-4790-B9EF-A5FFF608A06A";
name = Regular;
paths = (
{
closed = 1;
nodes = (
"299 -2 LINE SMOOTH",
"328 -2 OFFCURVE",
"341 7 OFFCURVE",
"341 22 CURVE SMOOTH",
"341 377 LINE",
"563 706 LINE SMOOTH",
"566 712 OFFCURVE",
"571 719 OFFCURVE",
"571 723 CURVE SMOOTH",
"571 735 OFFCURVE",
"560 741 OFFCURVE",
"530 742 CURVE",
"522 742 LINE",
"502 742 OFFCURVE",
"483 739 OFFCURVE",
"475 727 CURVE SMOOTH",
"298 466 LINE",
"125 725 LINE SMOOTH",
"116 739 OFFCURVE",
"101 742 OFFCURVE",
"79 742 CURVE SMOOTH",
"67 742 LINE SMOOTH",
"31 742 OFFCURVE",
"19 735 OFFCURVE",
"19 723 CURVE SMOOTH",
"19 719 OFFCURVE",
"22 712 OFFCURVE",
"27 706 CURVE SMOOTH",
"248 380 LINE",
"248 22 LINE SMOOTH",
"248 7 OFFCURVE",
"261 -2 OFFCURVE",
"290 -2 CURVE SMOOTH"
);
}
);
width = 591;
},
{
anchors = (
{
name = bottom;
position = "{298, 0}";
},
{
name = top;
position = "{296, 740}";
}
);
layerId = "466C6FD7-E5A4-4003-892F-69A78A0A7E44";
name = Bold;
paths = (
{
closed = 1;
nodes = (
"315 -2 LINE SMOOTH",
"359 -2 OFFCURVE",
"378 9 OFFCURVE",
"378 32 CURVE SMOOTH",
"378 351 LINE",
"587 693 LINE SMOOTH",
"594 706 OFFCURVE",
"597 714 OFFCURVE",
"597 721 CURVE SMOOTH",
"597 733 OFFCURVE",
"577 742 OFFCURVE",
"531 742 CURVE SMOOTH",
"492 742 LINE SMOOTH",
"462 742 OFFCURVE",
"439 739 OFFCURVE",
"428 722 CURVE SMOOTH",
"299 496 LINE",
"170 722 LINE SMOOTH",
"161 739 OFFCURVE",
"137 742 OFFCURVE",
"107 742 CURVE SMOOTH",
"62 742 LINE SMOOTH",
"15 742 OFFCURVE",
"-7 733 OFFCURVE",
"-7 721 CURVE SMOOTH",
"-7 714 OFFCURVE",
"-2 706 OFFCURVE",
"4 693 CURVE SMOOTH",
"214 355 LINE",
"214 32 LINE SMOOTH",
"214 9 OFFCURVE",
"234 -2 OFFCURVE",
"278 -2 CURVE SMOOTH"
);
}
);
width = 591;
}
);
leftKerningGroup = Y;
rightKerningGroup = Y;
unicode = 0059;
},
{
glyphname = Z;
lastChange = "2015-01-29 03:32:02 +0000";
layers = (
{
anchors = (
{
name = bottom;
position = "{336, 0}";
},
{
name = top;
position = "{326, 740}";
}
);
layerId = "809BDC91-2406-4790-B9EF-A5FFF608A06A";
name = Regular;
paths = (
{
closed = 1;
nodes = (
"581 0 LINE SMOOTH",
"595 0 OFFCURVE",
"601 10 OFFCURVE",
"601 36 CURVE SMOOTH",
"601 44 LINE SMOOTH",
"601 71 OFFCURVE",
"595 81 OFFCURVE",
"581 81 CURVE SMOOTH",
"167 81 LINE",
"600 671 LINE SMOOTH",
"602 675 OFFCURVE",
"603 678 OFFCURVE",
"603 684 CURVE SMOOTH",
"603 707 OFFCURVE",
"587 740 OFFCURVE",
"581 740 CURVE SMOOTH",
"97 740 LINE SMOOTH",
"82 740 OFFCURVE",
"75 729 OFFCURVE",
"75 704 CURVE SMOOTH",
"75 696 LINE SMOOTH",
"75 670 OFFCURVE",
"82 660 OFFCURVE",
"97 660 CURVE SMOOTH",
"476 660 LINE",
"43 70 LINE SMOOTH",
"41 66 OFFCURVE",
"40 62 OFFCURVE",
"40 56 CURVE SMOOTH",
"40 35 OFFCURVE",
"55 0 OFFCURVE",
"66 0 CURVE"
);
}
);
width = 650;
},
{
anchors = (
{
name = bottom;
position = "{317, 0}";
},
{
name = top;
position = "{326, 740}";
}
);
layerId = "466C6FD7-E5A4-4003-892F-69A78A0A7E44";
name = Bold;
paths = (
{
closed = 1;
nodes = (
"581 0 LINE SMOOTH",
"603 0 OFFCURVE",
"613 16 OFFCURVE",
"613 53 CURVE SMOOTH",
"613 85 LINE SMOOTH",
"613 123 OFFCURVE",
"603 138 OFFCURVE",
"581 138 CURVE SMOOTH",
"258 138 LINE",
"612 634 LINE SMOOTH",
"613 636 OFFCURVE",
"613 638 OFFCURVE",
"613 643 CURVE SMOOTH",
"613 670 OFFCURVE",
"591 740 OFFCURVE",
"573 740 CURVE SMOOTH",
"91 740 LINE SMOOTH",
"69 740 OFFCURVE",
"59 723 OFFCURVE",
"59 687 CURVE SMOOTH",
"59 655 LINE SMOOTH",
"59 617 OFFCURVE",
"69 601 OFFCURVE",
"91 601 CURVE SMOOTH",
"384 601 LINE",
"30 105 LINE SMOOTH",
"29 103 OFFCURVE",
"28 99 OFFCURVE",
"28 94 CURVE SMOOTH",
"28 66 OFFCURVE",
"52 0 OFFCURVE",
"70 0 CURVE"
);
}
);
width = 650;
}
);
unicode = 005A;
},
{
glyphname = Y.loclGUA;
lastChange = "2015-01-29 03:32:03 +0000";
layers = (
{
anchors = (
{
name = bottom;
position = "{287, 0}";
},
{
name = top;
position = "{296, 740}";
}
);
layerId = "809BDC91-2406-4790-B9EF-A5FFF608A06A";
name = Regular;
paths = (
{
closed = 1;
nodes = (
"453 -8 OFFCURVE",
"517 68 OFFCURVE",
"517 320 CURVE SMOOTH",
"517 719 LINE SMOOTH",
"517 733 OFFCURVE",
"505 742 OFFCURVE",
"474 742 CURVE SMOOTH",
"470 742 LINE SMOOTH",
"442 742 OFFCURVE",
"427 733 OFFCURVE",
"427 719 CURVE SMOOTH",
"427 374 LINE",
"390 329 OFFCURVE",
"336 300 OFFCURVE",
"285 300 CURVE SMOOTH",
"210 300 OFFCURVE",
"166 338 OFFCURVE",
"166 403 CURVE SMOOTH",
"166 719 LINE SMOOTH",
"166 733 OFFCURVE",
"153 742 OFFCURVE",
"124 742 CURVE SMOOTH",
"119 742 LINE SMOOTH",
"89 742 OFFCURVE",
"77 733 OFFCURVE",
"77 719 CURVE SMOOTH",
"77 394 LINE SMOOTH",
"77 288 OFFCURVE",
"147 223 OFFCURVE",
"260 223 CURVE SMOOTH",
"329 223 OFFCURVE",
"399 257 OFFCURVE",
"447 316 CURVE",
"427 341 LINE",
"427 325 LINE",
"430 138 OFFCURVE",
"393 68 OFFCURVE",
"295 68 CURVE SMOOTH",
"166 68 OFFCURVE",
"107 115 OFFCURVE",
"91 115 CURVE SMOOTH",
"86 115 OFFCURVE",
"81 110 OFFCURVE",
"81 83 CURVE SMOOTH",
"81 75 OFFCURVE",
"81 67 OFFCURVE",
"82 56 CURVE SMOOTH",
"85 29 OFFCURVE",
"177 -8 OFFCURVE",
"303 -8 CURVE SMOOTH"
);
}
);
width = 591;
},
{
anchors = (
{
name = bottom;
position = "{276, 0}";
},
{
name = top;
position = "{296, 740}";
}
);
layerId = "466C6FD7-E5A4-4003-892F-69A78A0A7E44";
name = Bold;
paths = (
{
closed = 1;
nodes = (
"474 -9 OFFCURVE",
"545 99 OFFCURVE",
"545 314 CURVE SMOOTH",
"545 708 LINE SMOOTH",
"545 729 OFFCURVE",
"526 741 OFFCURVE",
"481 741 CURVE SMOOTH",
"452 741 LINE SMOOTH",
"408 741 OFFCURVE",
"389 729 OFFCURVE",
"389 708 CURVE SMOOTH",
"389 411 LINE",
"377 385 OFFCURVE",
"349 349 OFFCURVE",
"304 349 CURVE SMOOTH",
"242 349 OFFCURVE",
"220 373 OFFCURVE",
"220 414 CURVE SMOOTH",
"220 708 LINE SMOOTH",
"220 729 OFFCURVE",
"200 741 OFFCURVE",
"156 741 CURVE SMOOTH",
"127 741 LINE SMOOTH",
"83 741 OFFCURVE",
"63 729 OFFCURVE",
"63 708 CURVE SMOOTH",
"63 391 LINE SMOOTH",
"63 274 OFFCURVE",
"119 220 OFFCURVE",
"240 220 CURVE SMOOTH",
"319 220 OFFCURVE",
"385 275 OFFCURVE",
"410 320 CURVE",
"389 361 LINE",
"389 256 LINE SMOOTH",
"389 163 OFFCURVE",
"348 115 OFFCURVE",
"265 115 CURVE SMOOTH",
"163 115 OFFCURVE",
"101 158 OFFCURVE",
"85 158 CURVE SMOOTH",
"78 158 OFFCURVE",
"71 148 OFFCURVE",
"71 116 CURVE SMOOTH",
"71 103 OFFCURVE",
"72 85 OFFCURVE",
"75 66 CURVE SMOOTH",
"79 22 OFFCURVE",
"184 -9 OFFCURVE",
"309 -9 CURVE SMOOTH"
);
}
);
width = 591;
}
);
},
{
glyphname = a;
lastChange = "2015-01-29 03:32:03 +0000";
layers = (
{
anchors = (
{
name = bottom;
position = "{276, 0}";
},
{
name = ogonek;
position = "{502, 19}";
},
{
name = top;
position = "{288, 552}";
}
);
layerId = "809BDC91-2406-4790-B9EF-A5FFF608A06A";
name = Regular;
paths = (
{
closed = 1;
nodes = (
"312 -7 OFFCURVE",
"370 29 OFFCURVE",
"411 73 CURVE",
"416 43 OFFCURVE",
"422 -1 OFFCURVE",
"447 -1 CURVE SMOOTH",
"460 -1 OFFCURVE",
"505 3 OFFCURVE",
"505 24 CURVE SMOOTH",
"505 29 OFFCURVE",
"491 71 OFFCURVE",
"491 157 CURVE SMOOTH",
"491 393 LINE SMOOTH",
"491 498 OFFCURVE",
"414 559 OFFCURVE",
"284 559 CURVE SMOOTH",
"178 559 OFFCURVE",
"85 519 OFFCURVE",
"85 491 CURVE SMOOTH",
"85 479 OFFCURVE",
"107 439 OFFCURVE",
"121 439 CURVE SMOOTH",
"131 439 OFFCURVE",
"191 484 OFFCURVE",
"287 484 CURVE SMOOTH",
"374 484 OFFCURVE",
"403 443 OFFCURVE",
"403 394 CURVE SMOOTH",
"403 345 LINE",
"241 342 OFFCURVE",
"52 331 OFFCURVE",
"52 152 CURVE SMOOTH",
"52 43 OFFCURVE",
"130 -7 OFFCURVE",
"233 -7 CURVE SMOOTH"
);
},
{
closed = 1;
nodes = (
"178 71 OFFCURVE",
"147 102 OFFCURVE",
"147 158 CURVE SMOOTH",
"147 268 OFFCURVE",
"293 268 OFFCURVE",
"402 269 CURVE",
"402 145 LINE",
"360 106 OFFCURVE",
"314 71 OFFCURVE",
"236 71 CURVE SMOOTH"
);
}
);
width = 575.5;
},
{
anchors = (
{
name = bottom;
position = "{288, 0}";
},
{
name = ogonek;
position = "{509, 33}";
},
{
name = top;
position = "{288, 552}";
}
);
layerId = "466C6FD7-E5A4-4003-892F-69A78A0A7E44";
name = Bold;
paths = (
{
closed = 1;
nodes = (
"298 -8 OFFCURVE",
"349 58 OFFCURVE",
"357 72 CURVE",
"363 43 OFFCURVE",
"365 -1 OFFCURVE",
"399 -1 CURVE SMOOTH",
"425 -1 OFFCURVE",
"517 8 OFFCURVE",
"517 33 CURVE SMOOTH",
"517 55 OFFCURVE",
"505 77 OFFCURVE",
"505 187 CURVE SMOOTH",
"505 384 LINE SMOOTH",
"505 488 OFFCURVE",
"444 561 OFFCURVE",
"277 561 CURVE SMOOTH",
"160 561 OFFCURVE",
"75 524 OFFCURVE",
"75 489 CURVE SMOOTH",
"75 466 OFFCURVE",
"108 404 OFFCURVE",
"130 404 CURVE SMOOTH",
"143 404 OFFCURVE",
"189 437 OFFCURVE",
"265 437 CURVE SMOOTH",
"323 437 OFFCURVE",
"348 417 OFFCURVE",
"348 378 CURVE SMOOTH",
"348 342 LINE",
"79 342 OFFCURVE",
"44 233 OFFCURVE",
"44 147 CURVE SMOOTH",
"44 60 OFFCURVE",
"86 -8 OFFCURVE",
"201 -8 CURVE SMOOTH"
);
},
{
closed = 1;
nodes = (
"218 116 OFFCURVE",
"199 135 OFFCURVE",
"199 162 CURVE SMOOTH",
"199 212 OFFCURVE",
"247 241 OFFCURVE",
"348 241 CURVE",
"348 181 LINE",
"331 145 OFFCURVE",
"293 116 OFFCURVE",
"253 116 CURVE SMOOTH"
);
}
);
width = 575.5;
}
);
leftKerningGroup = a;
unicode = 0061;
},
{
glyphname = ae;
lastChange = "2015-01-29 03:32:03 +0000";
layers = (
{
anchors = (
{
name = top;
position = "{439, 552}";
}
);
layerId = "809BDC91-2406-4790-B9EF-A5FFF608A06A";
name = Regular;
paths = (
{
closed = 1;
nodes = (
"311 -7 OFFCURVE",
"377 24 OFFCURVE",
"420 61 CURVE",
"462 16 OFFCURVE",
"527 -7 OFFCURVE",
"614 -7 CURVE SMOOTH",
"720 -7 OFFCURVE",
"803 36 OFFCURVE",
"803 62 CURVE SMOOTH",
"803 73 OFFCURVE",
"782 115 OFFCURVE",
"766 115 CURVE SMOOTH",
"755 115 OFFCURVE",
"704 71 OFFCURVE",
"613 71 CURVE SMOOTH",
"507 71 OFFCURVE",
"458 127 OFFCURVE",
"449 255 CURVE",
"784 255 LINE SMOOTH",
"796 255 OFFCURVE",
"817 286 OFFCURVE",
"817 298 CURVE SMOOTH",
"817 467 OFFCURVE",
"745 559 OFFCURVE",
"600 559 CURVE SMOOTH",
"534 559 OFFCURVE",
"479 542 OFFCURVE",
"441 508 CURVE",
"404 541 OFFCURVE",
"349 559 OFFCURVE",
"279 559 CURVE SMOOTH",
"173 559 OFFCURVE",
"81 519 OFFCURVE",
"81 491 CURVE SMOOTH",
"81 479 OFFCURVE",
"103 439 OFFCURVE",
"117 439 CURVE SMOOTH",
"128 439 OFFCURVE",
"187 484 OFFCURVE",
"283 484 CURVE SMOOTH",
"339 484 OFFCURVE",
"371 465 OFFCURVE",
"386 441 CURVE",
"371 410 OFFCURVE",
"362 372 OFFCURVE",
"358 330 CURVE",
"206 326 OFFCURVE",
"47 303 OFFCURVE",
"47 152 CURVE SMOOTH",
"47 43 OFFCURVE",
"126 -7 OFFCURVE",
"229 -7 CURVE SMOOTH"
);
},
{
closed = 1;
nodes = (
"173 71 OFFCURVE",
"142 102 OFFCURVE",
"142 158 CURVE SMOOTH",
"142 241 OFFCURVE",
"253 252 OFFCURVE",
"353 254 CURVE",
"354 204 OFFCURVE",
"363 161 OFFCURVE",
"379 126 CURVE",
"340 95 OFFCURVE",
"297 71 OFFCURVE",
"232 71 CURVE SMOOTH"
);
},
{
closed = 1;
nodes = (
"456 431 OFFCURVE",
"505 484 OFFCURVE",
"597 484 CURVE SMOOTH",
"681 484 OFFCURVE",
"723 431 OFFCURVE",
"723 331 CURVE",
"448 331 LINE"
);
}
);
width = 876.5;
},
{
anchors = (
{
name = top;
position = "{439, 552}";
}
);
layerId = "466C6FD7-E5A4-4003-892F-69A78A0A7E44";
name = Bold;
paths = (
{
closed = 1;
nodes = (
"318 -8 OFFCURVE",
"384 39 OFFCURVE",
"410 64 CURVE",
"455 19 OFFCURVE",
"521 -8 OFFCURVE",
"615 -8 CURVE SMOOTH",
"675 -8 OFFCURVE",
"805 15 OFFCURVE",
"805 68 CURVE SMOOTH",
"805 88 OFFCURVE",
"773 148 OFFCURVE",
"751 148 CURVE SMOOTH",
"735 148 OFFCURVE",
"689 116 OFFCURVE",
"623 116 CURVE SMOOTH",
"561 116 OFFCURVE",
"504 146 OFFCURVE",
"504 237 CURVE",
"772 237 LINE SMOOTH",
"786 237 OFFCURVE",
"825 282 OFFCURVE",
"825 299 CURVE SMOOTH",
"825 446 OFFCURVE",
"762 561 OFFCURVE",
"596 561 CURVE SMOOTH",
"538 561 OFFCURVE",
"488 549 OFFCURVE",
"446 522 CURVE",
"411 548 OFFCURVE",
"354 561 OFFCURVE",
"276 561 CURVE SMOOTH",
"159 561 OFFCURVE",
"74 524 OFFCURVE",
"74 489 CURVE SMOOTH",
"74 466 OFFCURVE",
"107 404 OFFCURVE",
"129 404 CURVE SMOOTH",
"147 404 OFFCURVE",
"199 437 OFFCURVE",
"264 437 CURVE SMOOTH",
"305 437 OFFCURVE",
"342 431 OFFCURVE",
"360 410 CURVE",
"351 389 OFFCURVE",
"347 367 OFFCURVE",
"343 341 CURVE",
"78 340 OFFCURVE",
"43 232 OFFCURVE",
"43 147 CURVE SMOOTH",
"43 60 OFFCURVE",
"105 -8 OFFCURVE",
"219 -8 CURVE SMOOTH"
);
},
{
closed = 1;
nodes = (
"216 116 OFFCURVE",
"198 135 OFFCURVE",
"198 162 CURVE SMOOTH",
"198 211 OFFCURVE",
"243 237 OFFCURVE",
"340 238 CURVE",
"342 211 OFFCURVE",
"347 188 OFFCURVE",
"352 165 CURVE",
"333 131 OFFCURVE",
"287 116 OFFCURVE",
"252 116 CURVE SMOOTH"
);
},
{
closed = 1;
nodes = (
"513 423 OFFCURVE",
"560 437 OFFCURVE",
"596 437 CURVE SMOOTH",
"643 437 OFFCURVE",
"671 403 OFFCURVE",
"671 341 CURVE",
"500 341 LINE"
);
}
);
width = 876.5;
}
);
leftKerningGroup = a;
unicode = 00E6;
},
{
glyphname = b;
lastChange = "2015-01-29 03:32:02 +0000";
layers = (
{
layerId = "809BDC91-2406-4790-B9EF-A5FFF608A06A";
name = Regular;
paths = (
{
closed = 1;
nodes = (
"466 -7 OFFCURVE",
"544 113 OFFCURVE",
"544 277 CURVE SMOOTH",
"544 459 OFFCURVE",
"456 559 OFFCURVE",
"330 559 CURVE SMOOTH",
"264 559 OFFCURVE",
"220 537 OFFCURVE",
"179 505 CURVE",
"179 771 LINE SMOOTH",
"179 786 OFFCURVE",
"166 795 OFFCURVE",
"136 795 CURVE SMOOTH",
"131 795 LINE SMOOTH",
"103 795 OFFCURVE",
"89 786 OFFCURVE",
"89 771 CURVE SMOOTH",
"89 22 LINE SMOOTH",
"89 7 OFFCURVE",
"100 -2 OFFCURVE",
"121 -2 CURVE SMOOTH",
"126 -2 LINE SMOOTH",
"141 -2 OFFCURVE",
"150 1 OFFCURVE",
"155 10 CURVE",
"163 32 OFFCURVE",
"168 52 OFFCURVE",
"171 73 CURVE",
"223 20 OFFCURVE",
"279 -7 OFFCURVE",
"339 -7 CURVE SMOOTH"
);
},
{
closed = 1;
nodes = (
"275 71 OFFCURVE",
"222 97 OFFCURVE",
"179 145 CURVE",
"179 433 LINE",
"216 465 OFFCURVE",
"264 481 OFFCURVE",
"309 481 CURVE SMOOTH",
"404 478 OFFCURVE",
"452 411 OFFCURVE",
"452 285 CURVE SMOOTH",
"452 148 OFFCURVE",
"405 71 OFFCURVE",
"321 71 CURVE SMOOTH"
);
}
);
width = 601;
},
{
layerId = "466C6FD7-E5A4-4003-892F-69A78A0A7E44";
name = Bold;
paths = (
{
closed = 1;
nodes = (
"474 -8 OFFCURVE",
"557 93 OFFCURVE",
"557 277 CURVE SMOOTH",
"557 449 OFFCURVE",
"476 561 OFFCURVE",
"335 561 CURVE SMOOTH",
"284 561 OFFCURVE",
"248 544 OFFCURVE",
"225 529 CURVE",
"225 763 LINE SMOOTH",
"225 785 OFFCURVE",
"208 797 OFFCURVE",
"163 797 CURVE SMOOTH",
"133 797 LINE SMOOTH",
"88 797 OFFCURVE",
"70 785 OFFCURVE",
"70 763 CURVE SMOOTH",
"70 32 LINE SMOOTH",
"70 9 OFFCURVE",
"88 -2 OFFCURVE",
"133 -2 CURVE SMOOTH",
"146 -2 LINE SMOOTH",
"179 -2 OFFCURVE",
"200 2 OFFCURVE",
"208 25 CURVE SMOOTH",
"211 40 OFFCURVE",
"214 56 OFFCURVE",
"218 71 CURVE",
"241 25 OFFCURVE",
"294 -8 OFFCURVE",
"359 -8 CURVE SMOOTH"
);
},
{
closed = 1;
nodes = (
"272 119 OFFCURVE",
"244 149 OFFCURVE",
"225 181 CURVE",
"225 417 LINE",
"242 427 OFFCURVE",
"267 437 OFFCURVE",
"300 437 CURVE SMOOTH",
"366 437 OFFCURVE",
"398 382 OFFCURVE",
"398 277 CURVE SMOOTH",
"398 174 OFFCURVE",
"370 119 OFFCURVE",
"313 119 CURVE SMOOTH"
);
}
);
width = 601;
}
);
unicode = 0062;
},
{
glyphname = c;
lastChange = "2015-01-29 03:32:03 +0000";
layers = (
{
anchors = (
{
name = bottom;
position = "{303, 0}";
},
{
name = top;
position = "{293, 552}";
}
);
layerId = "809BDC91-2406-4790-B9EF-A5FFF608A06A";
name = Regular;
paths = (
{
closed = 1;
nodes = (
"406 -7 OFFCURVE",
"480 24 OFFCURVE",
"480 47 CURVE SMOOTH",
"480 63 OFFCURVE",
"459 102 OFFCURVE",
"444 102 CURVE SMOOTH",
"443 102 OFFCURVE",
"440 100 OFFCURVE",
"433 98 CURVE",
"413 87 OFFCURVE",
"372 71 OFFCURVE",
"314 71 CURVE SMOOTH",
"193 71 OFFCURVE",
"149 133 OFFCURVE",
"149 282 CURVE SMOOTH",
"149 427 OFFCURVE",
"210 484 OFFCURVE",
"303 484 CURVE SMOOTH",
"360 484 OFFCURVE",
"399 466 OFFCURVE",
"418 458 CURVE SMOOTH",
"425 456 OFFCURVE",
"427 454 OFFCURVE",
"430 454 CURVE SMOOTH",
"443 454 OFFCURVE",
"464 494 OFFCURVE",
"464 510 CURVE SMOOTH",
"464 537 OFFCURVE",
"386 559 OFFCURVE",
"305 559 CURVE SMOOTH",
"183 559 OFFCURVE",
"54 500 OFFCURVE",
"54 279 CURVE SMOOTH",
"54 75 OFFCURVE",
"144 -7 OFFCURVE",
"315 -7 CURVE SMOOTH"
);
}
);
width = 512;
},
{
anchors = (
{
name = bottom;
position = "{308, 0}";
},
{
name = top;
position = "{290, 552}";
}
);
layerId = "466C6FD7-E5A4-4003-892F-69A78A0A7E44";
name = Bold;
paths = (
{
closed = 1;
nodes = (
"346 -8 OFFCURVE",
"496 7 OFFCURVE",
"496 66 CURVE SMOOTH",
"496 86 OFFCURVE",
"464 147 OFFCURVE",
"442 147 CURVE SMOOTH",
"436 147 OFFCURVE",
"430 143 OFFCURVE",
"422 140 CURVE SMOOTH",
"402 130 OFFCURVE",
"368 116 OFFCURVE",
"319 116 CURVE SMOOTH",
"238 116 OFFCURVE",
"205 168 OFFCURVE",
"205 277 CURVE SMOOTH",
"205 384 OFFCURVE",
"241 437 OFFCURVE",
"325 437 CURVE SMOOTH",
"369 437 OFFCURVE",
"397 424 OFFCURVE",
"416 414 CURVE SMOOTH",
"425 411 OFFCURVE",
"431 407 OFFCURVE",
"435 407 CURVE SMOOTH",
"454 407 OFFCURVE",
"491 468 OFFCURVE",
"491 489 CURVE SMOOTH",
"491 537 OFFCURVE",
"391 561 OFFCURVE",
"317 561 CURVE SMOOTH",
"127 561 OFFCURVE",
"44 460 OFFCURVE",
"44 273 CURVE SMOOTH",
"44 84 OFFCURVE",
"130 -8 OFFCURVE",
"311 -8 CURVE SMOOTH"
);
}
);
width = 512;
}
);
leftKerningGroup = c;
unicode = 0063;
},
{
glyphname = d;
lastChange = "2015-01-29 03:32:03 +0000";
layers = (
{
anchors = (
{
name = bottom;
position = "{297, 0}";
},
{
name = caron;
position = "{508, 740}";
},
{
name = center;
position = "{445, 666}";
}
);
hints = (
{
horizontal = 1;
origin = "{0, 29}";
target = "{1, 12}";
},
{
horizontal = 1;
origin = "{0, 23}";
target = "{1, 5}";
},
{
horizontal = 1;
origin = "{0, 16}";
target = down;
type = TopGhost;
},
{
horizontal = 1;
origin = "{0, 5}";
target = up;
type = BottomGhost;
},
{
origin = "{0, 26}";
target = "{1, 2}";
},
{
origin = "{1, 9}";
target = "{0, 11}";
},
{
horizontal = 1;
origin = "{1, 12}";
target = "{1, 5}";
other1 = "{1, 9}";
type = Interpolate;
}
);
layerId = "809BDC91-2406-4790-B9EF-A5FFF608A06A";
name = Regular;
paths = (
{
closed = 1;
nodes = (
"319 -7 OFFCURVE",
"377 20 OFFCURVE",
"427 73 CURVE",
"434 43 OFFCURVE",
"440 -1 OFFCURVE",
"465 -1 CURVE SMOOTH",
"478 -1 OFFCURVE",
"521 3 OFFCURVE",
"521 24 CURVE SMOOTH",
"521 29 OFFCURVE",
"509 71 OFFCURVE",
"509 157 CURVE SMOOTH",
"509 771 LINE SMOOTH",
"509 786 OFFCURVE",
"496 795 OFFCURVE",
"467 795 CURVE SMOOTH",
"463 795 LINE SMOOTH",
"433 795 OFFCURVE",
"421 786 OFFCURVE",
"421 771 CURVE SMOOTH",
"421 505 LINE",
"380 537 OFFCURVE",
"335 559 OFFCURVE",
"269 559 CURVE SMOOTH",
"144 559 OFFCURVE",
"54 459 OFFCURVE",
"54 276 CURVE SMOOTH",
"54 113 OFFCURVE",
"133 -7 OFFCURVE",
"260 -7 CURVE SMOOTH"
);
},
{
closed = 1;
nodes = (
"193 71 OFFCURVE",
"147 148 OFFCURVE",
"147 285 CURVE SMOOTH",
"147 411 OFFCURVE",
"194 478 OFFCURVE",
"290 481 CURVE SMOOTH",
"338 481 OFFCURVE",
"382 465 OFFCURVE",
"421 433 CURVE",
"421 145 LINE",
"378 97 OFFCURVE",
"324 71 OFFCURVE",
"277 71 CURVE SMOOTH"
);
}
);
width = 597;
},
{
anchors = (
{
name = bottom;
position = "{307, 0}";
},
{
name = caron;
position = "{527, 740}";
},
{
name = center;
position = "{442, 666}";
}
);
hints = (
{
horizontal = 1;
origin = "{0, 5}";
target = up;
type = BottomGhost;
},
{
horizontal = 1;
origin = "{0, 23}";
target = "{1, 5}";
},
{
horizontal = 1;
origin = "{0, 16}";
target = down;
type = TopGhost;
},
{
horizontal = 1;
origin = "{0, 29}";
target = "{1, 12}";
},
{
origin = "{0, 26}";
target = "{1, 2}";
},
{
origin = "{1, 9}";
target = "{0, 11}";
},
{
horizontal = 1;
origin = "{1, 5}";
target = "{1, 12}";
other1 = "{1, 9}";
type = Interpolate;
}
);
layerId = "466C6FD7-E5A4-4003-892F-69A78A0A7E44";
name = Bold;
paths = (
{
closed = 1;
nodes = (
"307 -8 OFFCURVE",
"360 25 OFFCURVE",
"383 71 CURVE",
"390 43 OFFCURVE",
"392 -1 OFFCURVE",
"426 -1 CURVE SMOOTH",
"453 -1 OFFCURVE",
"544 8 OFFCURVE",
"544 33 CURVE SMOOTH",
"544 55 OFFCURVE",
"532 77 OFFCURVE",
"532 187 CURVE SMOOTH",
"532 763 LINE SMOOTH",
"532 785 OFFCURVE",
"512 797 OFFCURVE",
"468 797 CURVE SMOOTH",
"439 797 LINE SMOOTH",
"394 797 OFFCURVE",
"375 785 OFFCURVE",
"375 763 CURVE SMOOTH",
"375 529 LINE",
"353 544 OFFCURVE",
"318 561 OFFCURVE",
"268 561 CURVE SMOOTH",
"125 561 OFFCURVE",
"44 449 OFFCURVE",
"44 277 CURVE SMOOTH",
"44 93 OFFCURVE",
"128 -8 OFFCURVE",
"242 -8 CURVE SMOOTH"
);
},
{
closed = 1;
nodes = (
"231 119 OFFCURVE",
"203 174 OFFCURVE",
"203 277 CURVE SMOOTH",
"203 382 OFFCURVE",
"235 437 OFFCURVE",
"301 437 CURVE SMOOTH",
"335 437 OFFCURVE",
"359 427 OFFCURVE",
"375 417 CURVE",
"375 181 LINE",
"357 149 OFFCURVE",
"329 119 OFFCURVE",
"288 119 CURVE SMOOTH"
);
}
);
width = 597;
}
);
leftKerningGroup = d;
unicode = 0064;
},
{
glyphname = eth;
lastChange = "2015-01-29 03:32:03 +0000";
layers = (
{
layerId = "809BDC91-2406-4790-B9EF-A5FFF608A06A";
name = Regular;
paths = (
{
closed = 1;
nodes = (
"460 -7 OFFCURVE",
"542 91 OFFCURVE",
"542 274 CURVE SMOOTH",
"542 412 OFFCURVE",
"493 542 OFFCURVE",
"423 654 CURVE",
"486 661 LINE SMOOTH",
"496 662 OFFCURVE",
"502 668 OFFCURVE",
"502 676 CURVE SMOOTH",
"502 680 OFFCURVE",
"495 709 OFFCURVE",
"475 709 CURVE SMOOTH",
"474 709 OFFCURVE",
"474 709 OFFCURVE",
"393 698 CURVE",
"380 717 OFFCURVE",
"368 729 OFFCURVE",
"358 742 CURVE SMOOTH",
"351 750 OFFCURVE",
"343 754 OFFCURVE",
"331 754 CURVE SMOOTH",
"318 754 OFFCURVE",
"309 754 OFFCURVE",
"303 753 CURVE SMOOTH",
"290 751 OFFCURVE",
"285 745 OFFCURVE",
"285 739 CURVE SMOOTH",
"285 727 OFFCURVE",
"297 710 OFFCURVE",
"313 687 CURVE",
"236 676 LINE SMOOTH",
"225 675 OFFCURVE",
"221 670 OFFCURVE",
"221 662 CURVE SMOOTH",
"221 647 OFFCURVE",
"233 629 OFFCURVE",
"248 629 CURVE SMOOTH",
"251 629 OFFCURVE",
"253 629 OFFCURVE",
"339 642 CURVE",
"354 614 OFFCURVE",
"371 582 OFFCURVE",
"388 547 CURVE",
"362 554 OFFCURVE",
"335 559 OFFCURVE",
"303 559 CURVE SMOOTH",
"146 559 OFFCURVE",
"57 457 OFFCURVE",
"57 274 CURVE SMOOTH",
"57 92 OFFCURVE",
"144 -7 OFFCURVE",
"303 -7 CURVE SMOOTH"
);
},
{
closed = 1;
nodes = (
"196 71 OFFCURVE",
"148 135 OFFCURVE",
"148 276 CURVE SMOOTH",
"148 417 OFFCURVE",
"197 484 OFFCURVE",
"300 484 CURVE SMOOTH",
"403 484 OFFCURVE",
"451 416 OFFCURVE",
"451 276 CURVE SMOOTH",
"451 135 OFFCURVE",
"403 71 OFFCURVE",
"300 71 CURVE SMOOTH"
);
}
);
width = 601;
},
{
layerId = "466C6FD7-E5A4-4003-892F-69A78A0A7E44";
name = Bold;
paths = (
{
closed = 1;
nodes = (
"469 -8 OFFCURVE",
"557 93 OFFCURVE",
"557 277 CURVE SMOOTH",
"557 420 OFFCURVE",
"505 559 OFFCURVE",
"452 640 CURVE",
"500 646 LINE SMOOTH",
"515 648 OFFCURVE",
"521 655 OFFCURVE",
"521 664 CURVE SMOOTH",
"521 685 OFFCURVE",
"501 708 OFFCURVE",
"484 708 CURVE SMOOTH",
"482 708 OFFCURVE",
"481 708 OFFCURVE",
"412 699 CURVE",
"396 718 OFFCURVE",
"383 733 OFFCURVE",
"369 744 CURVE SMOOTH",
"358 752 OFFCURVE",
"345 755 OFFCURVE",
"329 755 CURVE",
"306 754 OFFCURVE",
"286 751 OFFCURVE",
"263 749 CURVE SMOOTH",
"250 746 OFFCURVE",
"243 742 OFFCURVE",
"243 735 CURVE SMOOTH",
"243 727 OFFCURVE",
"270 700 OFFCURVE",
"284 681 CURVE",
"238 676 LINE SMOOTH",
"222 674 OFFCURVE",
"215 668 OFFCURVE",
"215 659 CURVE SMOOTH",
"215 636 OFFCURVE",
"236 614 OFFCURVE",
"256 614 CURVE SMOOTH",
"260 614 OFFCURVE",
"263 614 OFFCURVE",
"321 623 CURVE",
"333 602 OFFCURVE",
"345 582 OFFCURVE",
"355 557 CURVE",
"338 559 OFFCURVE",
"320 561 OFFCURVE",
"301 561 CURVE SMOOTH",
"133 561 OFFCURVE",
"44 460 OFFCURVE",
"44 277 CURVE SMOOTH",
"44 93 OFFCURVE",
"133 -8 OFFCURVE",
"301 -8 CURVE SMOOTH"
);
},
{
closed = 1;
nodes = (
"234 116 OFFCURVE",
"203 171 OFFCURVE",
"203 277 CURVE SMOOTH",
"203 382 OFFCURVE",
"234 437 OFFCURVE",
"301 437 CURVE SMOOTH",
"369 437 OFFCURVE",
"399 382 OFFCURVE",
"399 277 CURVE SMOOTH",
"399 171 OFFCURVE",
"369 116 OFFCURVE",
"301 116 CURVE SMOOTH"
);
}
);
width = 601;
}
);
unicode = 00F0;
},
{
glyphname = e;
lastChange = "2015-01-29 03:32:02 +0000";
layers = (
{
anchors = (
{
name = bottom;
position = "{286, 0}";
},
{
name = ogonek;
position = "{458, 10}";
},
{
name = top;
position = "{286, 552}";
}
);
layerId = "809BDC91-2406-4790-B9EF-A5FFF608A06A";
name = Regular;
paths = (
{
closed = 1;
nodes = (
"424 -7 OFFCURVE",
"507 36 OFFCURVE",
"507 62 CURVE SMOOTH",
"507 73 OFFCURVE",
"485 115 OFFCURVE",
"470 115 CURVE SMOOTH",
"459 115 OFFCURVE",
"408 71 OFFCURVE",
"316 71 CURVE SMOOTH",
"211 71 OFFCURVE",
"162 123 OFFCURVE",
"152 241 CURVE",
"487 241 LINE SMOOTH",
"499 241 OFFCURVE",
"521 272 OFFCURVE",
"521 284 CURVE SMOOTH",
"521 463 OFFCURVE",
"448 559 OFFCURVE",
"304 559 CURVE SMOOTH",
"142 559 OFFCURVE",
"57 459 OFFCURVE",
"57 273 CURVE SMOOTH",
"57 84 OFFCURVE",
"141 -7 OFFCURVE",
"317 -7 CURVE SMOOTH"
);
},
{
closed = 1;
nodes = (
"161 427 OFFCURVE",
"210 484 OFFCURVE",
"301 484 CURVE SMOOTH",
"385 484 OFFCURVE",
"427 427 OFFCURVE",
"427 317 CURVE",
"152 317 LINE"
);
}
);
width = 569.5;
},
{
anchors = (
{
name = bottom;
position = "{286, 0}";
},
{
name = ogonek;
position = "{462, 15}";
},
{
name = top;
position = "{286, 552}";
}
);
layerId = "466C6FD7-E5A4-4003-892F-69A78A0A7E44";
name = Bold;
paths = (
{
closed = 1;
nodes = (
"380 -8 OFFCURVE",
"510 15 OFFCURVE",
"510 68 CURVE SMOOTH",
"510 88 OFFCURVE",
"478 148 OFFCURVE",
"456 148 CURVE SMOOTH",
"442 148 OFFCURVE",
"394 116 OFFCURVE",
"328 116 CURVE SMOOTH",
"258 116 OFFCURVE",
"213 142 OFFCURVE",
"206 226 CURVE",
"475 226 LINE SMOOTH",
"490 226 OFFCURVE",
"530 272 OFFCURVE",
"530 288 CURVE SMOOTH",
"530 435 OFFCURVE",
"467 561 OFFCURVE",
"301 561 CURVE SMOOTH",
"150 561 OFFCURVE",
"44 481 OFFCURVE",
"44 273 CURVE SMOOTH",
"44 103 OFFCURVE",
"129 -8 OFFCURVE",
"320 -8 CURVE SMOOTH"
);
},
{
closed = 1;
nodes = (
"219 412 OFFCURVE",
"256 437 OFFCURVE",
"301 437 CURVE SMOOTH",
"354 437 OFFCURVE",
"378 392 OFFCURVE",
"378 331 CURVE",
"206 331 LINE"
);
}
);
width = 569.5;
}
);
leftKerningGroup = e;
unicode = 0065;
},
{
glyphname = f;
lastChange = "2015-01-29 03:32:02 +0000";
layers = (
{
layerId = "809BDC91-2406-4790-B9EF-A5FFF608A06A";
name = Regular;
paths = (
{
closed = 1;
nodes = (
"161 -2 LINE SMOOTH",
"191 -2 OFFCURVE",
"203 7 OFFCURVE",
"203 22 CURVE SMOOTH",
"203 476 LINE",
"295 476 LINE SMOOTH",
"309 476 OFFCURVE",
"317 487 OFFCURVE",
"317 508 CURVE SMOOTH",
"317 520 LINE SMOOTH",
"317 543 OFFCURVE",
"309 552 OFFCURVE",
"295 552 CURVE SMOOTH",
"203 552 LINE",
"203 645 LINE SMOOTH",
"203 714 OFFCURVE",
"230 722 OFFCURVE",
"260 722 CURVE SMOOTH",
"290 722 OFFCURVE",
"296 718 OFFCURVE",
"305 718 CURVE SMOOTH",
"320 718 OFFCURVE",
"328 759 OFFCURVE",
"328 767 CURVE SMOOTH",
"328 796 OFFCURVE",
"279 799 OFFCURVE",
"251 799 CURVE SMOOTH",
"198 799 OFFCURVE",
"115 780 OFFCURVE",
"115 654 CURVE SMOOTH",
"115 552 LINE",
"72 552 LINE SMOOTH",
"57 552 OFFCURVE",
"51 543 OFFCURVE",
"51 520 CURVE SMOOTH",
"51 508 LINE SMOOTH",
"51 487 OFFCURVE",
"57 476 OFFCURVE",
"72 476 CURVE SMOOTH",
"115 476 LINE",
"115 22 LINE SMOOTH",
"115 7 OFFCURVE",
"127 -2 OFFCURVE",
"157 -2 CURVE SMOOTH"
);
}
);
width = 343;
},
{
layerId = "466C6FD7-E5A4-4003-892F-69A78A0A7E44";
name = Bold;
paths = (
{
closed = 1;
nodes = (
"177 -2 LINE SMOOTH",
"221 -2 OFFCURVE",
"241 9 OFFCURVE",
"241 32 CURVE SMOOTH",
"241 428 LINE",
"293 428 LINE SMOOTH",
"316 428 OFFCURVE",
"325 445 OFFCURVE",
"325 482 CURVE SMOOTH",
"325 500 LINE SMOOTH",
"325 537 OFFCURVE",
"316 552 OFFCURVE",
"293 552 CURVE SMOOTH",
"241 552 LINE",
"241 634 LINE SMOOTH",
"241 666 OFFCURVE",
"251 679 OFFCURVE",
"278 679 CURVE SMOOTH",
"288 679 OFFCURVE",
"303 676 OFFCURVE",
"311 676 CURVE SMOOTH",
"332 676 OFFCURVE",
"343 743 OFFCURVE",
"343 752 CURVE SMOOTH",
"343 801 OFFCURVE",
"273 803 OFFCURVE",
"238 803 CURVE SMOOTH",
"138 803 OFFCURVE",
"84 750 OFFCURVE",
"84 632 CURVE SMOOTH",
"84 552 LINE",
"65 552 LINE SMOOTH",
"42 552 OFFCURVE",
"33 537 OFFCURVE",
"33 500 CURVE SMOOTH",
"33 482 LINE SMOOTH",
"33 445 OFFCURVE",
"42 428 OFFCURVE",
"65 428 CURVE SMOOTH",
"84 428 LINE",
"84 32 LINE SMOOTH",
"84 9 OFFCURVE",
"103 -2 OFFCURVE",
"148 -2 CURVE SMOOTH"
);
}
);
width = 343;
}
);
unicode = 0066;
},
{
glyphname = g;
lastChange = "2015-01-29 03:32:02 +0000";
layers = (
{
anchors = (
{
name = top;
position = "{288, 552}";
}
);
layerId = "809BDC91-2406-4790-B9EF-A5FFF608A06A";
name = Regular;
paths = (
{
closed = 1;
nodes = (
"426 -225 OFFCURVE",
"508 -166 OFFCURVE",
"508 -65 CURVE SMOOTH",
"508 33 OFFCURVE",
"428 52 OFFCURVE",
"349 63 CURVE SMOOTH",
"264 73 OFFCURVE",
"179 73 OFFCURVE",
"179 141 CURVE SMOOTH",
"179 194 OFFCURVE",
"215 211 OFFCURVE",
"279 213 CURVE SMOOTH",
"415 213 OFFCURVE",
"488 289 OFFCURVE",
"488 386 CURVE SMOOTH",
"488 420 OFFCURVE",
"477 453 OFFCURVE",
"459 477 CURVE",
"460 479 LINE",
"481 477 OFFCURVE",
"501 476 OFFCURVE",
"536 476 CURVE SMOOTH",
"550 476 OFFCURVE",
"555 487 OFFCURVE",
"555 508 CURVE SMOOTH",
"555 520 LINE SMOOTH",
"555 543 OFFCURVE",
"550 552 OFFCURVE",
"536 552 CURVE SMOOTH",
"342 552 LINE",
"323 557 OFFCURVE",
"303 559 OFFCURVE",
"280 559 CURVE SMOOTH",
"145 559 OFFCURVE",
"72 484 OFFCURVE",
"72 386 CURVE SMOOTH",
"72 323 OFFCURVE",
"103 268 OFFCURVE",
"163 238 CURVE",
"125 211 OFFCURVE",
"104 176 OFFCURVE",
"104 128 CURVE SMOOTH",
"104 87 OFFCURVE",
"120 62 OFFCURVE",
"147 41 CURVE",
"146 39 LINE",
"91 18 OFFCURVE",
"49 -29 OFFCURVE",
"49 -93 CURVE SMOOTH",
"49 -189 OFFCURVE",
"141 -225 OFFCURVE",
"268 -225 CURVE SMOOTH"
);
},
{
closed = 1;
nodes = (
"211 -152 OFFCURVE",
"128 -141 OFFCURVE",
"128 -76 CURVE SMOOTH",
"128 -32 OFFCURVE",
"160 -7 OFFCURVE",
"198 9 CURVE",
"277 -15 OFFCURVE",
"424 6 OFFCURVE",
"424 -74 CURVE SMOOTH",
"424 -127 OFFCURVE",
"378 -152 OFFCURVE",
"279 -152 CURVE SMOOTH"
);
},
{
closed = 1;
nodes = (
"210 285 OFFCURVE",
"152 308 OFFCURVE",
"152 385 CURVE SMOOTH",
"152 464 OFFCURVE",
"210 489 OFFCURVE",
"278 489 CURVE SMOOTH",
"349 489 OFFCURVE",
"405 464 OFFCURVE",
"405 385 CURVE SMOOTH",
"405 308 OFFCURVE",
"349 285 OFFCURVE",
"278 285 CURVE SMOOTH"
);
}
);
width = 576.5;
},
{
anchors = (
{
name = top;
position = "{288, 552}";
}
);
layerId = "466C6FD7-E5A4-4003-892F-69A78A0A7E44";
name = Bold;
paths = (
{
closed = 1;
nodes = (
"441 -225 OFFCURVE",
"550 -153 OFFCURVE",
"550 -44 CURVE SMOOTH",
"550 62 OFFCURVE",
"467 93 OFFCURVE",
"385 109 CURVE SMOOTH",
"306 123 OFFCURVE",
"229 123 OFFCURVE",
"229 158 CURVE SMOOTH",
"229 177 OFFCURVE",
"251 187 OFFCURVE",
"294 187 CURVE SMOOTH",
"413 187 OFFCURVE",
"509 241 OFFCURVE",
"509 373 CURVE SMOOTH",
"509 393 OFFCURVE",
"502 420 OFFCURVE",
"491 432 CURVE",
"494 436 LINE",
"505 434 OFFCURVE",
"532 432 OFFCURVE",
"539 432 CURVE SMOOTH",
"557 432 OFFCURVE",
"565 447 OFFCURVE",
"565 482 CURVE SMOOTH",
"565 500 LINE SMOOTH",
"565 537 OFFCURVE",
"555 552 OFFCURVE",
"533 552 CURVE SMOOTH",
"363 552 LINE",
"338 558 OFFCURVE",
"310 561 OFFCURVE",
"282 561 CURVE SMOOTH",
"156 561 OFFCURVE",
"54 509 OFFCURVE",
"54 373 CURVE SMOOTH",
"54 295 OFFCURVE",
"88 244 OFFCURVE",
"140 215 CURVE",
"101 194 OFFCURVE",
"77 163 OFFCURVE",
"77 128 CURVE SMOOTH",
"77 93 OFFCURVE",
"93 64 OFFCURVE",
"123 49 CURVE",
"121 44 LINE",
"59 21 OFFCURVE",
"24 -24 OFFCURVE",
"24 -78 CURVE SMOOTH",
"24 -174 OFFCURVE",
"106 -225 OFFCURVE",
"276 -225 CURVE SMOOTH"
);
},
{
closed = 1;
nodes = (
"210 -102 OFFCURVE",
"178 -82 OFFCURVE",
"178 -53 CURVE SMOOTH",
"178 -32 OFFCURVE",
"198 -8 OFFCURVE",
"235 4 CURVE",
"355 -4 OFFCURVE",
"397 -16 OFFCURVE",
"397 -49 CURVE SMOOTH",
"397 -81 OFFCURVE",
"362 -102 OFFCURVE",
"288 -102 CURVE SMOOTH"
);
},
{
closed = 1;
nodes = (
"240 299 OFFCURVE",
"203 320 OFFCURVE",
"203 373 CURVE SMOOTH",
"203 426 OFFCURVE",
"240 448 OFFCURVE",
"283 448 CURVE SMOOTH",
"326 448 OFFCURVE",
"362 426 OFFCURVE",
"362 373 CURVE SMOOTH",
"362 320 OFFCURVE",
"326 299 OFFCURVE",
"283 299 CURVE SMOOTH"
);
}
);
width = 576.5;
}
);
unicode = 0067;
},
{
glyphname = h;
lastChange = "2015-01-29 03:32:02 +0000";
layers = (
{
anchors = (
{
name = bottom;
position = "{298, 0}";
},
{
name = center;
position = "{181, 666}";
},
{
name = top;
position = "{142, 771}";
}
);
layerId = "809BDC91-2406-4790-B9EF-A5FFF608A06A";
name = Regular;
paths = (
{
closed = 1;
nodes = (
"144 -2 LINE SMOOTH",
"173 -2 OFFCURVE",
"186 7 OFFCURVE",
"186 22 CURVE SMOOTH",
"186 409 LINE",
"186 409 OFFCURVE",
"240 482 OFFCURVE",
"318 482 CURVE SMOOTH",
"391 482 OFFCURVE",
"427 443 OFFCURVE",
"427 380 CURVE SMOOTH",
"427 22 LINE SMOOTH",
"427 7 OFFCURVE",
"440 -2 OFFCURVE",
"469 -2 CURVE SMOOTH",
"474 -2 LINE SMOOTH",
"504 -2 OFFCURVE",
"516 7 OFFCURVE",
"516 22 CURVE SMOOTH",
"516 388 LINE SMOOTH",
"516 532 OFFCURVE",
"414 559 OFFCURVE",
"348 559 CURVE SMOOTH",
"279 559 OFFCURVE",
"223 522 OFFCURVE",
"186 487 CURVE",
"186 771 LINE SMOOTH",
"186 786 OFFCURVE",
"173 795 OFFCURVE",
"144 795 CURVE SMOOTH",
"139 795 LINE SMOOTH",
"109 795 OFFCURVE",
"97 786 OFFCURVE",
"97 771 CURVE SMOOTH",
"97 22 LINE SMOOTH",
"97 7 OFFCURVE",
"109 -2 OFFCURVE",
"139 -2 CURVE SMOOTH"
);
}
);
width = 597;
},
{
anchors = (
{
name = bottom;
position = "{297, 0}";
},
{
name = center;
position = "{177, 666}";
},
{
name = top;
position = "{149, 773}";
}
);
layerId = "466C6FD7-E5A4-4003-892F-69A78A0A7E44";
name = Bold;
paths = (
{
closed = 1;
nodes = (
"163 -2 LINE SMOOTH",
"208 -2 OFFCURVE",
"225 9 OFFCURVE",
"225 32 CURVE SMOOTH",
"225 371 LINE",
"239 396 OFFCURVE",
"267 432 OFFCURVE",
"310 432 CURVE SMOOTH",
"357 432 OFFCURVE",
"379 409 OFFCURVE",
"379 367 CURVE SMOOTH",
"379 32 LINE SMOOTH",
"379 9 OFFCURVE",
"396 -2 OFFCURVE",
"442 -2 CURVE SMOOTH",
"472 -2 LINE SMOOTH",
"516 -2 OFFCURVE",
"535 9 OFFCURVE",
"535 32 CURVE SMOOTH",
"535 390 LINE SMOOTH",
"535 507 OFFCURVE",
"480 561 OFFCURVE",
"375 561 CURVE SMOOTH",
"311 561 OFFCURVE",
"258 529 OFFCURVE",
"225 490 CURVE",
"225 763 LINE SMOOTH",
"225 785 OFFCURVE",
"208 797 OFFCURVE",
"163 797 CURVE SMOOTH",
"133 797 LINE SMOOTH",
"88 797 OFFCURVE",
"70 785 OFFCURVE",
"70 763 CURVE SMOOTH",
"70 32 LINE SMOOTH",
"70 9 OFFCURVE",
"88 -2 OFFCURVE",
"133 -2 CURVE SMOOTH"
);
}
);
width = 597;
}
);
unicode = 0068;
},
{
glyphname = i;
lastChange = "2015-01-29 03:32:02 +0000";
layers = (
{
anchors = (
{
name = bottom;
position = "{138, 0}";
}
);
layerId = "809BDC91-2406-4790-B9EF-A5FFF608A06A";
name = Regular;
paths = (
{
closed = 1;
nodes = (
"142 -2 LINE SMOOTH",
"172 -2 OFFCURVE",
"184 7 OFFCURVE",
"184 22 CURVE SMOOTH",
"184 532 LINE SMOOTH",
"184 547 OFFCURVE",
"172 554 OFFCURVE",
"142 554 CURVE SMOOTH",
"138 554 LINE SMOOTH",
"108 554 OFFCURVE",
"96 547 OFFCURVE",
"96 532 CURVE SMOOTH",
"96 22 LINE SMOOTH",
"96 7 OFFCURVE",
"108 -2 OFFCURVE",
"138 -2 CURVE SMOOTH"
);
},
{
closed = 1;
nodes = (
"148 686 LINE SMOOTH",
"177 686 OFFCURVE",
"190 693 OFFCURVE",
"190 709 CURVE SMOOTH",
"190 771 LINE SMOOTH",
"190 786 OFFCURVE",
"177 795 OFFCURVE",
"148 795 CURVE SMOOTH",
"134 795 LINE SMOOTH",
"105 795 OFFCURVE",
"92 786 OFFCURVE",
"92 771 CURVE SMOOTH",
"92 709 LINE SMOOTH",
"92 693 OFFCURVE",
"105 686 OFFCURVE",
"134 686 CURVE"
);
}
);
width = 279.5;
},
{
anchors = (
{
name = bottom;
position = "{138, 0}";
}
);
layerId = "466C6FD7-E5A4-4003-892F-69A78A0A7E44";
name = Bold;
paths = (
{
closed = 1;
nodes = (
"155 -2 LINE SMOOTH",
"199 -2 OFFCURVE",
"219 9 OFFCURVE",
"219 32 CURVE SMOOTH",
"219 520 LINE SMOOTH",
"219 543 OFFCURVE",
"199 554 OFFCURVE",
"155 554 CURVE SMOOTH",
"126 554 LINE SMOOTH",
"82 554 OFFCURVE",
"62 543 OFFCURVE",
"62 520 CURVE SMOOTH",
"62 32 LINE SMOOTH",
"62 9 OFFCURVE",
"82 -2 OFFCURVE",
"126 -2 CURVE SMOOTH"
);
},
{
closed = 1;
nodes = (
"155 644 LINE SMOOTH",
"199 644 OFFCURVE",
"219 656 OFFCURVE",
"219 677 CURVE SMOOTH",
"219 763 LINE SMOOTH",
"219 785 OFFCURVE",
"199 797 OFFCURVE",
"155 797 CURVE SMOOTH",
"126 797 LINE SMOOTH",
"82 797 OFFCURVE",
"62 785 OFFCURVE",
"62 763 CURVE SMOOTH",
"62 677 LINE SMOOTH",
"62 656 OFFCURVE",
"82 644 OFFCURVE",
"126 644 CURVE"
);
}
);
width = 279.5;
}
);
unicode = 0069;
},
{
glyphname = dotlessi;
lastChange = "2015-01-29 03:32:03 +0000";
layers = (
{
anchors = (
{
name = bottom;
position = "{138, 0}";
},
{
name = ogonek;
position = "{167, 0}";
},
{
name = top;
position = "{141, 552}";
}
);
layerId = "809BDC91-2406-4790-B9EF-A5FFF608A06A";
name = Regular;
paths = (
{
closed = 1;
nodes = (
"142 -2 LINE SMOOTH",
"172 -2 OFFCURVE",
"184 7 OFFCURVE",
"184 22 CURVE SMOOTH",
"184 532 LINE SMOOTH",
"184 547 OFFCURVE",
"172 554 OFFCURVE",
"142 554 CURVE SMOOTH",
"138 554 LINE SMOOTH",
"108 554 OFFCURVE",
"96 547 OFFCURVE",
"96 532 CURVE SMOOTH",
"96 22 LINE SMOOTH",
"96 7 OFFCURVE",
"108 -2 OFFCURVE",
"138 -2 CURVE SMOOTH"
);
}
);
width = 279.5;
},
{
anchors = (
{
name = bottom;
position = "{138, 0}";
},
{
name = ogonek;
position = "{179, 0}";
},
{
name = top;
position = "{141, 552}";
}
);
layerId = "466C6FD7-E5A4-4003-892F-69A78A0A7E44";
name = Bold;
paths = (
{
closed = 1;
nodes = (
"155 -2 LINE SMOOTH",
"199 -2 OFFCURVE",
"219 9 OFFCURVE",
"219 32 CURVE SMOOTH",
"219 520 LINE SMOOTH",
"219 543 OFFCURVE",
"199 554 OFFCURVE",
"155 554 CURVE SMOOTH",
"126 554 LINE SMOOTH",
"82 554 OFFCURVE",
"62 543 OFFCURVE",
"62 520 CURVE SMOOTH",
"62 32 LINE SMOOTH",
"62 9 OFFCURVE",
"82 -2 OFFCURVE",
"126 -2 CURVE SMOOTH"
);
}
);
width = 279.5;
}
);
unicode = 0131;
},
{
glyphname = j;
lastChange = "2015-01-29 03:32:03 +0000";
layers = (
{
layerId = "809BDC91-2406-4790-B9EF-A5FFF608A06A";
name = Regular;
paths = (
{
closed = 1;
nodes = (
"112 -225 OFFCURVE",
"194 -201 OFFCURVE",
"194 -78 CURVE SMOOTH",
"194 532 LINE SMOOTH",
"194 547 OFFCURVE",
"182 554 OFFCURVE",
"152 554 CURVE SMOOTH",
"148 554 LINE SMOOTH",
"119 554 OFFCURVE",
"106 547 OFFCURVE",
"106 532 CURVE SMOOTH",
"106 -71 LINE SMOOTH",
"106 -133 OFFCURVE",
"81 -148 OFFCURVE",
"50 -148 CURVE SMOOTH",
"19 -148 OFFCURVE",
"13 -143 OFFCURVE",
"4 -143 CURVE SMOOTH",
"-11 -143 OFFCURVE",
"-19 -184 OFFCURVE",
"-19 -193 CURVE SMOOTH",
"-19 -221 OFFCURVE",
"30 -225 OFFCURVE",
"59 -225 CURVE SMOOTH"
);
},
{
closed = 1;
nodes = (
"157 686 LINE SMOOTH",
"187 686 OFFCURVE",
"199 693 OFFCURVE",
"199 709 CURVE SMOOTH",
"199 771 LINE SMOOTH",
"199 786 OFFCURVE",
"187 795 OFFCURVE",
"157 795 CURVE SMOOTH",
"145 795 LINE SMOOTH",
"115 795 OFFCURVE",
"102 786 OFFCURVE",
"102 771 CURVE SMOOTH",
"102 709 LINE SMOOTH",
"102 693 OFFCURVE",
"115 686 OFFCURVE",
"145 686 CURVE"
);
}
);
width = 291;
},
{
layerId = "466C6FD7-E5A4-4003-892F-69A78A0A7E44";
name = Bold;
paths = (
{
closed = 1;
nodes = (
"163 -225 OFFCURVE",
"231 -168 OFFCURVE",
"231 -53 CURVE SMOOTH",
"231 520 LINE SMOOTH",
"231 543 OFFCURVE",
"211 554 OFFCURVE",
"167 554 CURVE SMOOTH",
"137 554 LINE SMOOTH",
"93 554 OFFCURVE",
"74 543 OFFCURVE",
"74 520 CURVE SMOOTH",
"74 -55 LINE SMOOTH",
"74 -86 OFFCURVE",
"64 -102 OFFCURVE",
"36 -102 CURVE SMOOTH",
"24 -102 OFFCURVE",
"10 -97 OFFCURVE",
"4 -97 CURVE SMOOTH",
"-19 -97 OFFCURVE",
"-34 -146 OFFCURVE",
"-34 -169 CURVE SMOOTH",
"-34 -210 OFFCURVE",
"-8 -225 OFFCURVE",
"76 -225 CURVE SMOOTH"
);
},
{
closed = 1;
nodes = (
"167 644 LINE SMOOTH",
"211 644 OFFCURVE",
"230 656 OFFCURVE",
"230 677 CURVE SMOOTH",
"230 763 LINE SMOOTH",
"230 785 OFFCURVE",
"211 797 OFFCURVE",
"167 797 CURVE SMOOTH",
"137 797 LINE SMOOTH",
"93 797 OFFCURVE",
"73 785 OFFCURVE",
"73 763 CURVE SMOOTH",
"73 677 LINE SMOOTH",
"73 656 OFFCURVE",
"93 644 OFFCURVE",
"137 644 CURVE"
);
}
);
width = 291;
}
);
unicode = 006A;
},
{
glyphname = dotlessj;
lastChange = "2015-01-29 03:32:02 +0000";
layers = (
{
anchors = (
{
name = top;
position = "{151, 552}";
}
);
layerId = "809BDC91-2406-4790-B9EF-A5FFF608A06A";
name = Regular;
paths = (
{
closed = 1;
nodes = (
"112 -225 OFFCURVE",
"194 -201 OFFCURVE",
"194 -78 CURVE SMOOTH",
"194 532 LINE SMOOTH",
"194 547 OFFCURVE",
"182 554 OFFCURVE",
"152 554 CURVE SMOOTH",
"148 554 LINE SMOOTH",
"119 554 OFFCURVE",
"106 547 OFFCURVE",
"106 532 CURVE SMOOTH",
"106 -71 LINE SMOOTH",
"106 -133 OFFCURVE",
"81 -148 OFFCURVE",
"50 -148 CURVE SMOOTH",
"19 -148 OFFCURVE",
"13 -143 OFFCURVE",
"4 -143 CURVE SMOOTH",
"-11 -143 OFFCURVE",
"-19 -184 OFFCURVE",
"-19 -193 CURVE SMOOTH",
"-19 -221 OFFCURVE",
"30 -225 OFFCURVE",
"59 -225 CURVE SMOOTH"
);
}
);
width = 291;
},
{
anchors = (
{
name = top;
position = "{152, 552}";
}
);
layerId = "466C6FD7-E5A4-4003-892F-69A78A0A7E44";
name = Bold;
paths = (
{
closed = 1;
nodes = (
"163 -225 OFFCURVE",
"231 -168 OFFCURVE",
"231 -53 CURVE SMOOTH",
"231 520 LINE SMOOTH",
"231 543 OFFCURVE",
"211 554 OFFCURVE",
"167 554 CURVE SMOOTH",
"137 554 LINE SMOOTH",
"93 554 OFFCURVE",
"74 543 OFFCURVE",
"74 520 CURVE SMOOTH",
"74 -55 LINE SMOOTH",
"74 -86 OFFCURVE",
"64 -102 OFFCURVE",
"36 -102 CURVE SMOOTH",
"24 -102 OFFCURVE",
"10 -97 OFFCURVE",
"4 -97 CURVE SMOOTH",
"-19 -97 OFFCURVE",
"-34 -146 OFFCURVE",
"-34 -169 CURVE SMOOTH",
"-34 -210 OFFCURVE",
"-8 -225 OFFCURVE",
"76 -225 CURVE SMOOTH"
);
}
);
width = 291;
}
);
unicode = 0237;
},
{
glyphname = k;
lastChange = "2015-01-29 03:32:02 +0000";
layers = (
{
anchors = (
{
name = bottom;
position = "{276, 0}";
}
);
layerId = "809BDC91-2406-4790-B9EF-A5FFF608A06A";
name = Regular;
paths = (
{
closed = 1;
nodes = (
"146 -2 LINE SMOOTH",
"176 -2 OFFCURVE",
"188 7 OFFCURVE",
"188 22 CURVE SMOOTH",
"188 262 LINE",
"192 262 LINE",
"403 12 LINE SMOOTH",
"413 -1 OFFCURVE",
"437 -2 OFFCURVE",
"460 -2 CURVE SMOOTH",
"465 -2 LINE SMOOTH",
"497 -2 OFFCURVE",
"511 1 OFFCURVE",
"511 13 CURVE SMOOTH",
"511 18 OFFCURVE",
"509 22 OFFCURVE",
"502 30 CURVE SMOOTH",
"284 288 LINE",
"480 520 LINE SMOOTH",
"488 529 OFFCURVE",
"490 537 OFFCURVE",
"490 541 CURVE SMOOTH",
"490 549 OFFCURVE",
"479 554 OFFCURVE",
"454 554 CURVE SMOOTH",
"449 554 LINE SMOOTH",
"427 554 OFFCURVE",
"403 552 OFFCURVE",
"394 540 CURVE SMOOTH",
"192 299 LINE",
"188 299 LINE",
"188 771 LINE SMOOTH",
"188 786 OFFCURVE",
"176 795 OFFCURVE",
"146 795 CURVE SMOOTH",
"141 795 LINE SMOOTH",
"112 795 OFFCURVE",
"99 786 OFFCURVE",
"99 771 CURVE SMOOTH",
"99 22 LINE SMOOTH",
"99 7 OFFCURVE",
"112 -2 OFFCURVE",
"141 -2 CURVE SMOOTH"
);
}
);
width = 551;
},
{
anchors = (
{
name = bottom;
position = "{276, 0}";
}
);
layerId = "466C6FD7-E5A4-4003-892F-69A78A0A7E44";
name = Bold;
paths = (
{
closed = 1;
nodes = (
"163 -2 LINE SMOOTH",
"208 -2 OFFCURVE",
"225 9 OFFCURVE",
"225 32 CURVE SMOOTH",
"225 260 LINE",
"230 261 LINE",
"378 19 LINE SMOOTH",
"386 2 OFFCURVE",
"410 -2 OFFCURVE",
"441 -2 CURVE SMOOTH",
"485 -2 LINE SMOOTH",
"526 -2 OFFCURVE",
"545 4 OFFCURVE",
"545 14 CURVE SMOOTH",
"545 21 OFFCURVE",
"541 26 OFFCURVE",
"536 36 CURVE SMOOTH",
"364 308 LINE",
"511 518 LINE SMOOTH",
"518 527 OFFCURVE",
"520 534 OFFCURVE",
"520 539 CURVE SMOOTH",
"520 549 OFFCURVE",
"502 554 OFFCURVE",
"462 554 CURVE SMOOTH",
"423 554 LINE SMOOTH",
"392 554 OFFCURVE",
"370 552 OFFCURVE",
"358 536 CURVE SMOOTH",
"230 343 LINE",
"225 345 LINE",
"225 763 LINE SMOOTH",
"225 785 OFFCURVE",
"208 797 OFFCURVE",
"163 797 CURVE SMOOTH",
"133 797 LINE SMOOTH",
"88 797 OFFCURVE",
"70 785 OFFCURVE",
"70 763 CURVE SMOOTH",
"70 32 LINE SMOOTH",
"70 9 OFFCURVE",
"88 -2 OFFCURVE",
"133 -2 CURVE SMOOTH"
);
}
);
width = 551;
}
);
unicode = 006B;
},
{
glyphname = kgreenlandic;
lastChange = "2015-01-29 03:32:02 +0000";
layers = (
{
layerId = "809BDC91-2406-4790-B9EF-A5FFF608A06A";
name = Regular;
paths = (
{
closed = 1;
nodes = (
"146 -2 LINE SMOOTH",
"176 -2 OFFCURVE",
"188 7 OFFCURVE",
"188 22 CURVE SMOOTH",
"188 262 LINE",
"192 262 LINE",
"403 12 LINE SMOOTH",
"413 -1 OFFCURVE",
"437 -2 OFFCURVE",
"460 -2 CURVE SMOOTH",
"465 -2 LINE SMOOTH",
"497 -2 OFFCURVE",
"511 1 OFFCURVE",
"511 13 CURVE SMOOTH",
"511 18 OFFCURVE",
"509 22 OFFCURVE",
"502 30 CURVE SMOOTH",
"284 288 LINE",
"480 520 LINE SMOOTH",
"488 529 OFFCURVE",
"490 537 OFFCURVE",
"490 541 CURVE SMOOTH",
"490 549 OFFCURVE",
"479 554 OFFCURVE",
"454 554 CURVE SMOOTH",
"449 554 LINE SMOOTH",
"427 554 OFFCURVE",
"403 552 OFFCURVE",
"394 540 CURVE SMOOTH",
"192 299 LINE",
"188 299 LINE",
"188 533 LINE SMOOTH",
"188 548 OFFCURVE",
"176 555 OFFCURVE",
"146 555 CURVE SMOOTH",
"141 555 LINE SMOOTH",
"112 555 OFFCURVE",
"99 548 OFFCURVE",
"99 533 CURVE SMOOTH",
"99 22 LINE SMOOTH",
"99 7 OFFCURVE",
"112 -2 OFFCURVE",
"141 -2 CURVE SMOOTH"
);
}
);
width = 551;
},
{
layerId = "466C6FD7-E5A4-4003-892F-69A78A0A7E44";
name = Bold;
paths = (
{
closed = 1;
nodes = (
"163 -2 LINE SMOOTH",
"208 -2 OFFCURVE",
"225 9 OFFCURVE",
"225 32 CURVE SMOOTH",
"225 260 LINE",
"230 261 LINE",
"378 19 LINE SMOOTH",
"386 2 OFFCURVE",
"410 -2 OFFCURVE",
"441 -2 CURVE SMOOTH",
"485 -2 LINE SMOOTH",
"526 -2 OFFCURVE",
"545 4 OFFCURVE",
"545 14 CURVE SMOOTH",
"545 21 OFFCURVE",
"541 26 OFFCURVE",
"536 36 CURVE SMOOTH",
"364 308 LINE",
"511 518 LINE SMOOTH",
"518 527 OFFCURVE",
"520 534 OFFCURVE",
"520 539 CURVE SMOOTH",
"520 549 OFFCURVE",
"502 554 OFFCURVE",
"462 554 CURVE SMOOTH",
"423 554 LINE SMOOTH",
"392 554 OFFCURVE",
"370 552 OFFCURVE",
"358 536 CURVE SMOOTH",
"230 343 LINE",
"225 345 LINE",
"225 520 LINE SMOOTH",
"225 543 OFFCURVE",
"208 554 OFFCURVE",
"163 554 CURVE SMOOTH",
"133 554 LINE SMOOTH",
"88 554 OFFCURVE",
"70 543 OFFCURVE",
"70 520 CURVE SMOOTH",
"70 32 LINE SMOOTH",
"70 9 OFFCURVE",
"88 -2 OFFCURVE",
"133 -2 CURVE SMOOTH"
);
}
);
width = 551;
}
);
unicode = 0138;
},
{
glyphname = l;
lastChange = "2015-01-29 03:32:02 +0000";
layers = (
{
anchors = (
{
name = bottom;
position = "{190, 0}";
},
{
name = caron;
position = "{176, 742}";
},
{
name = center;
position = "{295, 354}";
},
{
name = top;
position = "{131, 761}";
}
);
layerId = "809BDC91-2406-4790-B9EF-A5FFF608A06A";
name = Regular;
paths = (
{
closed = 1;
nodes = (
"252 -7 OFFCURVE",
"300 -3 OFFCURVE",
"300 25 CURVE SMOOTH",
"300 34 OFFCURVE",
"293 75 OFFCURVE",
"278 75 CURVE SMOOTH",
"269 75 OFFCURVE",
"263 71 OFFCURVE",
"233 71 CURVE SMOOTH",
"202 71 OFFCURVE",
"176 85 OFFCURVE",
"176 148 CURVE SMOOTH",
"176 771 LINE SMOOTH",
"176 786 OFFCURVE",
"163 795 OFFCURVE",
"133 795 CURVE SMOOTH",
"129 795 LINE SMOOTH",
"100 795 OFFCURVE",
"86 786 OFFCURVE",
"86 771 CURVE SMOOTH",
"86 140 LINE SMOOTH",
"86 18 OFFCURVE",
"170 -7 OFFCURVE",
"223 -7 CURVE SMOOTH"
);
}
);
width = 314.5;
},
{
anchors = (
{
name = bottom;
position = "{194, 0}";
},
{
name = caron;
position = "{204, 795}";
},
{
name = center;
position = "{322, 354}";
},
{
name = top;
position = "{145, 761}";
}
);
layerId = "466C6FD7-E5A4-4003-892F-69A78A0A7E44";
name = Bold;
paths = (
{
closed = 1;
nodes = (
"254 -8 OFFCURVE",
"321 -6 OFFCURVE",
"321 43 CURVE SMOOTH",
"321 52 OFFCURVE",
"310 119 OFFCURVE",
"289 119 CURVE SMOOTH",
"283 119 OFFCURVE",
"271 116 OFFCURVE",
"261 116 CURVE SMOOTH",
"233 116 OFFCURVE",
"223 129 OFFCURVE",
"223 161 CURVE SMOOTH",
"223 763 LINE SMOOTH",
"223 785 OFFCURVE",
"204 797 OFFCURVE",
"159 797 CURVE SMOOTH",
"130 797 LINE SMOOTH",
"85 797 OFFCURVE",
"66 785 OFFCURVE",
"66 763 CURVE SMOOTH",
"66 163 LINE SMOOTH",
"66 45 OFFCURVE",
"121 -8 OFFCURVE",
"221 -8 CURVE SMOOTH"
);
}
);
width = 314.5;
}
);
unicode = 006C;
},
{
glyphname = lslash;
lastChange = "2015-01-29 03:32:02 +0000";
layers = (
{
layerId = "809BDC91-2406-4790-B9EF-A5FFF608A06A";
name = Regular;
paths = (
{
closed = 1;
nodes = (
"250 -7 OFFCURVE",
"298 -3 OFFCURVE",
"298 25 CURVE SMOOTH",
"298 34 OFFCURVE",
"290 75 OFFCURVE",
"275 75 CURVE SMOOTH",
"266 75 OFFCURVE",
"261 71 OFFCURVE",
"230 71 CURVE SMOOTH",
"199 71 OFFCURVE",
"173 85 OFFCURVE",
"173 148 CURVE SMOOTH",
"173 425 LINE",
"218 452 LINE SMOOTH",
"230 458 OFFCURVE",
"237 468 OFFCURVE",
"237 484 CURVE SMOOTH",
"237 490 LINE SMOOTH",
"237 499 OFFCURVE",
"233 505 OFFCURVE",
"228 505 CURVE SMOOTH",
"225 505 OFFCURVE",
"222 502 OFFCURVE",
"218 500 CURVE SMOOTH",
"173 474 LINE",
"173 771 LINE SMOOTH",
"173 786 OFFCURVE",
"161 795 OFFCURVE",
"131 795 CURVE SMOOTH",
"127 795 LINE SMOOTH",
"97 795 OFFCURVE",
"85 786 OFFCURVE",
"85 771 CURVE SMOOTH",
"85 421 LINE",
"40 396 LINE SMOOTH",
"27 388 OFFCURVE",
"20 379 OFFCURVE",
"20 364 CURVE SMOOTH",
"20 358 LINE SMOOTH",
"20 348 OFFCURVE",
"23 342 OFFCURVE",
"29 342 CURVE SMOOTH",
"31 342 OFFCURVE",
"36 343 OFFCURVE",
"40 347 CURVE SMOOTH",
"85 373 LINE",
"85 140 LINE SMOOTH",
"85 18 OFFCURVE",
"168 -7 OFFCURVE",
"221 -7 CURVE SMOOTH"
);
}
);
width = 309;
},
{
layerId = "466C6FD7-E5A4-4003-892F-69A78A0A7E44";
name = Bold;
paths = (
{
closed = 1;
nodes = (
"250 -8 OFFCURVE",
"318 -6 OFFCURVE",
"318 43 CURVE SMOOTH",
"318 52 OFFCURVE",
"306 119 OFFCURVE",
"285 119 CURVE SMOOTH",
"278 119 OFFCURVE",
"266 116 OFFCURVE",
"256 116 CURVE SMOOTH",
"229 116 OFFCURVE",
"219 129 OFFCURVE",
"219 161 CURVE SMOOTH",
"219 435 LINE",
"243 452 LINE SMOOTH",
"263 463 OFFCURVE",
"272 475 OFFCURVE",
"272 499 CURVE SMOOTH",
"272 520 LINE SMOOTH",
"272 536 OFFCURVE",
"267 541 OFFCURVE",
"260 541 CURVE SMOOTH",
"256 541 OFFCURVE",
"251 539 OFFCURVE",
"243 537 CURVE SMOOTH",
"219 520 LINE",
"219 763 LINE SMOOTH",
"219 785 OFFCURVE",
"199 797 OFFCURVE",
"155 797 CURVE SMOOTH",
"126 797 LINE SMOOTH",
"82 797 OFFCURVE",
"62 785 OFFCURVE",
"62 763 CURVE SMOOTH",
"62 426 LINE",
"39 412 LINE SMOOTH",
"20 401 OFFCURVE",
"11 385 OFFCURVE",
"11 364 CURVE SMOOTH",
"11 342 LINE SMOOTH",
"11 328 OFFCURVE",
"14 321 OFFCURVE",
"22 321 CURVE SMOOTH",
"25 321 OFFCURVE",
"31 323 OFFCURVE",
"39 328 CURVE SMOOTH",
"62 341 LINE",
"62 163 LINE SMOOTH",
"62 45 OFFCURVE",
"116 -8 OFFCURVE",
"216 -8 CURVE SMOOTH"
);
}
);
width = 309;
}
);
unicode = 0142;
},
{
glyphname = m;
lastChange = "2015-01-29 03:32:02 +0000";
layers = (
{
layerId = "809BDC91-2406-4790-B9EF-A5FFF608A06A";
name = Regular;
paths = (
{
closed = 1;
nodes = (
"136 -2 LINE SMOOTH",
"166 -2 OFFCURVE",
"179 7 OFFCURVE",
"179 22 CURVE SMOOTH",
"179 410 LINE",
"179 410 OFFCURVE",
"231 482 OFFCURVE",
"307 482 CURVE SMOOTH",
"375 482 OFFCURVE",
"410 443 OFFCURVE",
"410 380 CURVE SMOOTH",
"410 22 LINE SMOOTH",
"410 7 OFFCURVE",
"422 -2 OFFCURVE",
"452 -2 CURVE SMOOTH",
"456 -2 LINE SMOOTH",
"486 -2 OFFCURVE",
"498 7 OFFCURVE",
"498 22 CURVE SMOOTH",
"498 386 LINE SMOOTH",
"498 403 OFFCURVE",
"497 421 OFFCURVE",
"490 436 CURVE",
"491 401 LINE",
"496 406 OFFCURVE",
"551 482 OFFCURVE",
"627 482 CURVE SMOOTH",
"693 482 OFFCURVE",
"728 443 OFFCURVE",
"728 380 CURVE SMOOTH",
"728 22 LINE SMOOTH",
"728 7 OFFCURVE",
"741 -2 OFFCURVE",
"770 -2 CURVE SMOOTH",
"774 -2 LINE SMOOTH",
"804 -2 OFFCURVE",
"816 7 OFFCURVE",
"816 22 CURVE SMOOTH",
"816 388 LINE SMOOTH",
"816 532 OFFCURVE",
"719 559 OFFCURVE",
"650 559 CURVE SMOOTH",
"584 559 OFFCURVE",
"522 519 OFFCURVE",
"484 472 CURVE",
"454 543 OFFCURVE",
"383 559 OFFCURVE",
"332 559 CURVE SMOOTH",
"264 559 OFFCURVE",
"206 520 OFFCURVE",
"171 479 CURVE",
"165 507 OFFCURVE",
"160 550 OFFCURVE",
"134 550 CURVE SMOOTH",
"120 550 OFFCURVE",
"77 545 OFFCURVE",
"77 526 CURVE SMOOTH",
"77 520 OFFCURVE",
"89 478 OFFCURVE",
"89 392 CURVE SMOOTH",
"89 22 LINE SMOOTH",
"89 7 OFFCURVE",
"103 -2 OFFCURVE",
"131 -2 CURVE SMOOTH"
);
}
);
width = 896;
},
{
layerId = "466C6FD7-E5A4-4003-892F-69A78A0A7E44";
name = Bold;
paths = (
{
closed = 1;
nodes = (
"159 -2 LINE SMOOTH",
"203 -2 OFFCURVE",
"222 9 OFFCURVE",
"222 32 CURVE SMOOTH",
"222 371 LINE",
"235 396 OFFCURVE",
"262 432 OFFCURVE",
"305 432 CURVE SMOOTH",
"351 432 OFFCURVE",
"368 409 OFFCURVE",
"368 367 CURVE SMOOTH",
"368 32 LINE SMOOTH",
"368 9 OFFCURVE",
"386 -2 OFFCURVE",
"431 -2 CURVE SMOOTH",
"460 -2 LINE SMOOTH",
"505 -2 OFFCURVE",
"524 9 OFFCURVE",
"524 32 CURVE SMOOTH",
"524 386 LINE SMOOTH",
"524 405 OFFCURVE",
"520 424 OFFCURVE",
"516 443 CURVE",
"516 357 LINE",
"520 362 OFFCURVE",
"545 432 OFFCURVE",
"607 432 CURVE SMOOTH",
"655 432 OFFCURVE",
"670 409 OFFCURVE",
"670 367 CURVE SMOOTH",
"670 32 LINE SMOOTH",
"670 9 OFFCURVE",
"689 -2 OFFCURVE",
"733 -2 CURVE SMOOTH",
"763 -2 LINE SMOOTH",
"807 -2 OFFCURVE",
"827 9 OFFCURVE",
"827 32 CURVE SMOOTH",
"827 390 LINE SMOOTH",
"827 507 OFFCURVE",
"777 561 OFFCURVE",
"672 561 CURVE SMOOTH",
"601 561 OFFCURVE",
"541 520 OFFCURVE",
"509 481 CURVE",
"489 537 OFFCURVE",
"444 561 OFFCURVE",
"370 561 CURVE SMOOTH",
"301 561 OFFCURVE",
"244 520 OFFCURVE",
"213 481 CURVE",
"208 507 OFFCURVE",
"205 550 OFFCURVE",
"171 550 CURVE SMOOTH",
"146 550 OFFCURVE",
"53 541 OFFCURVE",
"53 516 CURVE SMOOTH",
"53 495 OFFCURVE",
"66 473 OFFCURVE",
"66 367 CURVE SMOOTH",
"66 32 LINE SMOOTH",
"66 9 OFFCURVE",
"85 -2 OFFCURVE",
"129 -2 CURVE SMOOTH"
);
}
);
width = 896;
}
);
unicode = 006D;
},
{
glyphname = n;
lastChange = "2015-01-29 03:32:02 +0000";
layers = (
{
anchors = (
{
name = bottom;
position = "{295, 0}";
},
{
name = top;
position = "{295, 552}";
}
);
layerId = "809BDC91-2406-4790-B9EF-A5FFF608A06A";
name = Regular;
paths = (
{
closed = 1;
nodes = (
"137 -2 LINE SMOOTH",
"167 -2 OFFCURVE",
"179 7 OFFCURVE",
"179 22 CURVE SMOOTH",
"179 409 LINE",
"214 454 OFFCURVE",
"265 482 OFFCURVE",
"314 482 CURVE SMOOTH",
"381 482 OFFCURVE",
"421 444 OFFCURVE",
"421 380 CURVE SMOOTH",
"421 22 LINE SMOOTH",
"421 7 OFFCURVE",
"433 -2 OFFCURVE",
"463 -2 CURVE SMOOTH",
"467 -2 LINE SMOOTH",
"497 -2 OFFCURVE",
"509 7 OFFCURVE",
"509 22 CURVE SMOOTH",
"509 388 LINE SMOOTH",
"509 495 OFFCURVE",
"445 559 OFFCURVE",
"337 559 CURVE SMOOTH",
"278 559 OFFCURVE",
"216 530 OFFCURVE",
"172 479 CURVE",
"166 507 OFFCURVE",
"161 550 OFFCURVE",
"135 550 CURVE SMOOTH",
"121 550 OFFCURVE",
"78 545 OFFCURVE",
"78 526 CURVE SMOOTH",
"78 520 OFFCURVE",
"91 478 OFFCURVE",
"91 392 CURVE SMOOTH",
"91 22 LINE SMOOTH",
"91 7 OFFCURVE",
"104 -2 OFFCURVE",
"133 -2 CURVE SMOOTH"
);
}
);
width = 589;
},
{
anchors = (
{
name = bottom;
position = "{295, 0}";
},
{
name = top;
position = "{295, 552}";
}
);
layerId = "466C6FD7-E5A4-4003-892F-69A78A0A7E44";
name = Bold;
paths = (
{
closed = 1;
nodes = (
"159 -2 LINE SMOOTH",
"203 -2 OFFCURVE",
"222 9 OFFCURVE",
"222 32 CURVE SMOOTH",
"222 371 LINE",
"235 396 OFFCURVE",
"263 432 OFFCURVE",
"306 432 CURVE SMOOTH",
"353 432 OFFCURVE",
"370 409 OFFCURVE",
"370 367 CURVE SMOOTH",
"370 32 LINE SMOOTH",
"370 9 OFFCURVE",
"389 -2 OFFCURVE",
"433 -2 CURVE SMOOTH",
"463 -2 LINE SMOOTH",
"507 -2 OFFCURVE",
"527 9 OFFCURVE",
"527 32 CURVE SMOOTH",
"527 390 LINE SMOOTH",
"527 507 OFFCURVE",
"476 561 OFFCURVE",
"371 561 CURVE SMOOTH",
"303 561 OFFCURVE",
"244 520 OFFCURVE",
"213 481 CURVE",
"208 507 OFFCURVE",
"205 550 OFFCURVE",
"171 550 CURVE SMOOTH",
"146 550 OFFCURVE",
"53 541 OFFCURVE",
"53 516 CURVE SMOOTH",
"53 495 OFFCURVE",
"66 473 OFFCURVE",
"66 367 CURVE SMOOTH",
"66 32 LINE SMOOTH",
"66 9 OFFCURVE",
"85 -2 OFFCURVE",
"129 -2 CURVE SMOOTH"
);
}
);
width = 589;
}
);
unicode = 006E;
},
{
glyphname = eng;
lastChange = "2015-01-29 03:32:02 +0000";
layers = (
{
layerId = "809BDC91-2406-4790-B9EF-A5FFF608A06A";
name = Regular;
paths = (
{
closed = 1;
nodes = (
"426 -225 OFFCURVE",
"509 -201 OFFCURVE",
"509 -78 CURVE SMOOTH",
"509 388 LINE SMOOTH",
"509 495 OFFCURVE",
"445 559 OFFCURVE",
"337 559 CURVE SMOOTH",
"278 559 OFFCURVE",
"216 530 OFFCURVE",
"172 479 CURVE",
"166 507 OFFCURVE",
"161 550 OFFCURVE",
"135 550 CURVE SMOOTH",
"121 550 OFFCURVE",
"78 545 OFFCURVE",
"78 526 CURVE SMOOTH",
"78 520 OFFCURVE",
"91 478 OFFCURVE",
"91 392 CURVE SMOOTH",
"91 22 LINE SMOOTH",
"91 7 OFFCURVE",
"104 -2 OFFCURVE",
"133 -2 CURVE SMOOTH",
"137 -2 LINE SMOOTH",
"167 -2 OFFCURVE",
"179 7 OFFCURVE",
"179 22 CURVE SMOOTH",
"179 409 LINE",
"214 454 OFFCURVE",
"265 482 OFFCURVE",
"314 482 CURVE SMOOTH",
"381 482 OFFCURVE",
"421 444 OFFCURVE",
"421 380 CURVE SMOOTH",
"421 -71 LINE SMOOTH",
"421 -133 OFFCURVE",
"394 -148 OFFCURVE",
"364 -148 CURVE SMOOTH",
"333 -148 OFFCURVE",
"328 -143 OFFCURVE",
"319 -143 CURVE SMOOTH",
"303 -143 OFFCURVE",
"296 -184 OFFCURVE",
"296 -193 CURVE SMOOTH",
"296 -221 OFFCURVE",
"345 -225 OFFCURVE",
"373 -225 CURVE SMOOTH"
);
}
);
width = 589;
},
{
layerId = "466C6FD7-E5A4-4003-892F-69A78A0A7E44";
name = Bold;
paths = (
{
closed = 1;
nodes = (
"459 -225 OFFCURVE",
"527 -168 OFFCURVE",
"527 -53 CURVE SMOOTH",
"527 390 LINE SMOOTH",
"527 507 OFFCURVE",
"476 561 OFFCURVE",
"371 561 CURVE SMOOTH",
"303 561 OFFCURVE",
"244 520 OFFCURVE",
"213 481 CURVE",
"208 507 OFFCURVE",
"205 550 OFFCURVE",
"171 550 CURVE SMOOTH",
"146 550 OFFCURVE",
"53 541 OFFCURVE",
"53 516 CURVE SMOOTH",
"53 495 OFFCURVE",
"66 473 OFFCURVE",
"66 367 CURVE SMOOTH",
"66 32 LINE SMOOTH",
"66 9 OFFCURVE",
"85 -2 OFFCURVE",
"129 -2 CURVE SMOOTH",
"159 -2 LINE SMOOTH",
"203 -2 OFFCURVE",
"222 9 OFFCURVE",
"222 32 CURVE SMOOTH",
"222 371 LINE",
"235 396 OFFCURVE",
"263 432 OFFCURVE",
"306 432 CURVE SMOOTH",
"353 432 OFFCURVE",
"370 409 OFFCURVE",
"370 367 CURVE SMOOTH",
"370 -55 LINE SMOOTH",
"370 -86 OFFCURVE",
"360 -102 OFFCURVE",
"332 -102 CURVE SMOOTH",
"320 -102 OFFCURVE",
"306 -97 OFFCURVE",
"300 -97 CURVE SMOOTH",
"278 -97 OFFCURVE",
"262 -146 OFFCURVE",
"262 -169 CURVE SMOOTH",
"262 -210 OFFCURVE",
"288 -225 OFFCURVE",
"372 -225 CURVE SMOOTH"
);
}
);
width = 589;
}
);
unicode = 014B;
},
{
glyphname = o;
lastChange = "2015-01-29 03:32:03 +0000";
layers = (
{
anchors = (
{
name = bottom;
position = "{307, 0}";
},
{
name = horn;
position = "{397, 534}";
},
{
name = ogonek;
position = "{363, 0}";
},
{
name = top;
position = "{301, 552}";
}
);
layerId = "809BDC91-2406-4790-B9EF-A5FFF608A06A";
name = Regular;
paths = (
{
closed = 1;
nodes = (
"460 -7 OFFCURVE",
"542 91 OFFCURVE",
"542 274 CURVE SMOOTH",
"542 458 OFFCURVE",
"457 559 OFFCURVE",
"303 559 CURVE SMOOTH",
"146 559 OFFCURVE",
"57 457 OFFCURVE",
"57 274 CURVE SMOOTH",
"57 92 OFFCURVE",
"144 -7 OFFCURVE",
"303 -7 CURVE SMOOTH"
);
},
{
closed = 1;
nodes = (
"196 71 OFFCURVE",
"150 135 OFFCURVE",
"150 276 CURVE SMOOTH",
"150 417 OFFCURVE",
"197 484 OFFCURVE",
"300 484 CURVE SMOOTH",
"403 484 OFFCURVE",
"451 416 OFFCURVE",
"451 276 CURVE SMOOTH",
"451 135 OFFCURVE",
"403 71 OFFCURVE",
"300 71 CURVE SMOOTH"
);
}
);
width = 601;
},
{
anchors = (
{
name = bottom;
position = "{307, 0}";
},
{
name = horn;
position = "{410, 534}";
},
{
name = ogonek;
position = "{373, 0}";
},
{
name = top;
position = "{301, 552}";
}
);
layerId = "466C6FD7-E5A4-4003-892F-69A78A0A7E44";
name = Bold;
paths = (
{
closed = 1;
nodes = (
"469 -8 OFFCURVE",
"557 93 OFFCURVE",
"557 277 CURVE SMOOTH",
"557 460 OFFCURVE",
"469 561 OFFCURVE",
"301 561 CURVE SMOOTH",
"133 561 OFFCURVE",
"44 460 OFFCURVE",
"44 277 CURVE SMOOTH",
"44 93 OFFCURVE",
"133 -8 OFFCURVE",
"301 -8 CURVE SMOOTH"
);
},
{
closed = 1;
nodes = (
"234 116 OFFCURVE",
"203 171 OFFCURVE",
"203 277 CURVE SMOOTH",
"203 382 OFFCURVE",
"234 437 OFFCURVE",
"301 437 CURVE SMOOTH",
"369 437 OFFCURVE",
"399 382 OFFCURVE",
"399 277 CURVE SMOOTH",
"399 171 OFFCURVE",
"369 116 OFFCURVE",
"301 116 CURVE SMOOTH"
);
}
);
width = 601;
}
);
leftKerningGroup = o;
rightKerningGroup = o;
unicode = 006F;
},
{
glyphname = oslash;
lastChange = "2015-01-29 03:32:02 +0000";
layers = (
{
anchors = (
{
name = top;
position = "{301, 552}";
}
);
layerId = "809BDC91-2406-4790-B9EF-A5FFF608A06A";
name = Regular;
paths = (
{
closed = 1;
nodes = (
"412 -6 OFFCURVE",
"542 36 OFFCURVE",
"542 274 CURVE SMOOTH",
"542 362 OFFCURVE",
"525 423 OFFCURVE",
"496 466 CURVE",
"537 513 LINE SMOOTH",
"541 519 OFFCURVE",
"543 522 OFFCURVE",
"543 529 CURVE SMOOTH",
"543 537 OFFCURVE",
"529 551 OFFCURVE",
"520 551 CURVE SMOOTH",
"516 551 OFFCURVE",
"511 548 OFFCURVE",
"506 542 CURVE SMOOTH",
"470 500 LINE",
"423 545 OFFCURVE",
"360 558 OFFCURVE",
"303 558 CURVE SMOOTH",
"193 558 OFFCURVE",
"57 511 OFFCURVE",
"57 274 CURVE SMOOTH",
"57 183 OFFCURVE",
"77 120 OFFCURVE",
"107 78 CURVE",
"75 39 LINE SMOOTH",
"70 34 OFFCURVE",
"67 30 OFFCURVE",
"67 24 CURVE SMOOTH",
"67 16 OFFCURVE",
"83 2 OFFCURVE",
"92 2 CURVE SMOOTH",
"97 2 OFFCURVE",
"101 6 OFFCURVE",
"106 10 CURVE SMOOTH",
"137 46 LINE",
"184 6 OFFCURVE",
"247 -6 OFFCURVE",
"303 -6 CURVE SMOOTH"
);
},
{
closed = 1;
nodes = (
"255 71 OFFCURVE",
"219 83 OFFCURVE",
"193 111 CURVE",
"434 393 LINE",
"445 363 OFFCURVE",
"451 325 OFFCURVE",
"451 276 CURVE SMOOTH",
"451 123 OFFCURVE",
"394 71 OFFCURVE",
"300 71 CURVE SMOOTH"
);
},
{
closed = 1;
nodes = (
"156 180 OFFCURVE",
"149 222 OFFCURVE",
"149 276 CURVE SMOOTH",
"149 428 OFFCURVE",
"206 482 OFFCURVE",
"300 482 CURVE SMOOTH",
"348 482 OFFCURVE",
"386 468 OFFCURVE",
"412 433 CURVE",
"169 150 LINE"
);
}
);
width = 601;
},
{
anchors = (
{
name = top;
position = "{301, 552}";
}
);
layerId = "466C6FD7-E5A4-4003-892F-69A78A0A7E44";
name = Bold;
paths = (
{
closed = 1;
nodes = (
"469 -8 OFFCURVE",
"557 93 OFFCURVE",
"557 277 CURVE SMOOTH",
"557 353 OFFCURVE",
"541 415 OFFCURVE",
"511 462 CURVE",
"550 506 LINE SMOOTH",
"555 513 OFFCURVE",
"560 520 OFFCURVE",
"560 529 CURVE SMOOTH",
"560 547 OFFCURVE",
"527 575 OFFCURVE",
"509 575 CURVE SMOOTH",
"502 575 OFFCURVE",
"494 570 OFFCURVE",
"487 561 CURVE SMOOTH",
"453 521 LINE",
"413 548 OFFCURVE",
"363 561 OFFCURVE",
"301 561 CURVE SMOOTH",
"133 561 OFFCURVE",
"44 460 OFFCURVE",
"44 277 CURVE SMOOTH",
"44 203 OFFCURVE",
"58 143 OFFCURVE",
"86 97 CURVE",
"52 56 LINE SMOOTH",
"44 47 OFFCURVE",
"41 41 OFFCURVE",
"41 34 CURVE SMOOTH",
"41 14 OFFCURVE",
"75 -13 OFFCURVE",
"92 -13 CURVE SMOOTH",
"100 -13 OFFCURVE",
"107 -8 OFFCURVE",
"115 1 CURVE SMOOTH",
"145 35 LINE",
"184 7 OFFCURVE",
"237 -8 OFFCURVE",
"301 -8 CURVE SMOOTH"
);
},
{
closed = 1;
nodes = (
"273 116 OFFCURVE",
"253 125 OFFCURVE",
"236 143 CURVE",
"395 328 LINE",
"396 312 OFFCURVE",
"398 295 OFFCURVE",
"398 277 CURVE SMOOTH",
"398 171 OFFCURVE",
"368 116 OFFCURVE",
"301 116 CURVE SMOOTH"
);
},
{
closed = 1;
nodes = (
"204 247 OFFCURVE",
"203 261 OFFCURVE",
"203 277 CURVE SMOOTH",
"203 382 OFFCURVE",
"234 437 OFFCURVE",
"301 437 CURVE SMOOTH",
"326 437 OFFCURVE",
"346 430 OFFCURVE",
"361 415 CURVE",
"205 234 LINE"
);
}
);
width = 601;
}
);
unicode = 00F8;
},
{
glyphname = oe;
lastChange = "2015-01-29 03:32:03 +0000";
layers = (
{
anchors = (
{
name = top;
position = "{460, 552}";
}
);
components = (
{
name = e;
transform = "{1, 0, 0, 1, 340, 0}";
}
);
layerId = "809BDC91-2406-4790-B9EF-A5FFF608A06A";
name = Regular;
paths = (
{
closed = 1;
nodes = (
"375 -7 OFFCURVE",
"432 14 OFFCURVE",
"473 53 CURVE",
"472 497 LINE",
"431 538 OFFCURVE",
"374 559 OFFCURVE",
"303 559 CURVE SMOOTH",
"146 559 OFFCURVE",
"57 457 OFFCURVE",
"57 274 CURVE SMOOTH",
"57 92 OFFCURVE",
"144 -7 OFFCURVE",
"303 -7 CURVE SMOOTH"
);
},
{
closed = 1;
nodes = (
"196 71 OFFCURVE",
"150 135 OFFCURVE",
"150 276 CURVE SMOOTH",
"150 417 OFFCURVE",
"197 484 OFFCURVE",
"300 484 CURVE SMOOTH",
"413 484 OFFCURVE",
"465 416 OFFCURVE",
"465 276 CURVE SMOOTH",
"465 135 OFFCURVE",
"413 71 OFFCURVE",
"300 71 CURVE SMOOTH"
);
}
);
width = 920.5;
},
{
anchors = (
{
name = top;
position = "{460, 552}";
}
);
components = (
{
name = e;
transform = "{1, 0, 0, 1, 354, 0}";
}
);
layerId = "466C6FD7-E5A4-4003-892F-69A78A0A7E44";
name = Bold;
paths = (
{
closed = 1;
nodes = (
"378 -8 OFFCURVE",
"436 18 OFFCURVE",
"479 57 CURVE",
"476 497 LINE",
"434 537 OFFCURVE",
"375 561 OFFCURVE",
"300 561 CURVE SMOOTH",
"131 561 OFFCURVE",
"43 460 OFFCURVE",
"43 277 CURVE SMOOTH",
"43 93 OFFCURVE",
"131 -8 OFFCURVE",
"300 -8 CURVE SMOOTH"
);
},
{
closed = 1;
nodes = (
"232 116 OFFCURVE",
"201 171 OFFCURVE",
"201 277 CURVE SMOOTH",
"201 382 OFFCURVE",
"232 437 OFFCURVE",
"300 437 CURVE SMOOTH",
"367 437 OFFCURVE",
"396 382 OFFCURVE",
"396 277 CURVE SMOOTH",
"396 171 OFFCURVE",
"367 116 OFFCURVE",
"300 116 CURVE SMOOTH"
);
}
);
width = 920.5;
}
);
unicode = 0153;
},
{
glyphname = p;
lastChange = "2015-01-29 03:32:02 +0000";
layers = (
{
layerId = "809BDC91-2406-4790-B9EF-A5FFF608A06A";
name = Regular;
paths = (
{
closed = 1;
nodes = (
"137 -220 LINE SMOOTH",
"167 -220 OFFCURVE",
"179 -211 OFFCURVE",
"179 -197 CURVE SMOOTH",
"179 47 LINE",
"221 16 OFFCURVE",
"265 -7 OFFCURVE",
"331 -7 CURVE SMOOTH",
"457 -7 OFFCURVE",
"545 93 OFFCURVE",
"545 276 CURVE SMOOTH",
"545 439 OFFCURVE",
"472 559 OFFCURVE",
"340 559 CURVE SMOOTH",
"280 559 OFFCURVE",
"225 534 OFFCURVE",
"172 479 CURVE",
"166 507 OFFCURVE",
"161 550 OFFCURVE",
"135 550 CURVE SMOOTH",
"121 550 OFFCURVE",
"78 545 OFFCURVE",
"78 526 CURVE SMOOTH",
"78 520 OFFCURVE",
"91 478 OFFCURVE",
"91 392 CURVE SMOOTH",
"91 -197 LINE SMOOTH",
"91 -211 OFFCURVE",
"104 -220 OFFCURVE",
"133 -220 CURVE SMOOTH"
);
},
{
closed = 1;
nodes = (
"262 72 OFFCURVE",
"218 87 OFFCURVE",
"179 119 CURVE",
"179 410 LINE",
"223 457 OFFCURVE",
"276 482 OFFCURVE",
"322 482 CURVE SMOOTH",
"406 482 OFFCURVE",
"453 405 OFFCURVE",
"453 269 CURVE SMOOTH",
"453 143 OFFCURVE",
"405 74 OFFCURVE",
"311 72 CURVE SMOOTH"
);
}
);
width = 605;
},
{
layerId = "466C6FD7-E5A4-4003-892F-69A78A0A7E44";
name = Bold;
paths = (
{
closed = 1;
nodes = (
"167 -218 LINE SMOOTH",
"211 -218 OFFCURVE",
"230 -206 OFFCURVE",
"230 -184 CURVE SMOOTH",
"230 24 LINE",
"253 8 OFFCURVE",
"287 -8 OFFCURVE",
"338 -8 CURVE SMOOTH",
"480 -8 OFFCURVE",
"561 104 OFFCURVE",
"561 276 CURVE SMOOTH",
"561 459 OFFCURVE",
"477 561 OFFCURVE",
"363 561 CURVE SMOOTH",
"298 561 OFFCURVE",
"246 528 OFFCURVE",
"222 482 CURVE",
"215 507 OFFCURVE",
"213 550 OFFCURVE",
"179 550 CURVE SMOOTH",
"152 550 OFFCURVE",
"61 541 OFFCURVE",
"61 516 CURVE SMOOTH",
"61 495 OFFCURVE",
"73 473 OFFCURVE",
"73 367 CURVE SMOOTH",
"73 -184 LINE SMOOTH",
"73 -206 OFFCURVE",
"93 -218 OFFCURVE",
"137 -218 CURVE SMOOTH"
);
},
{
closed = 1;
nodes = (
"272 116 OFFCURVE",
"247 126 OFFCURVE",
"230 135 CURVE",
"230 371 LINE",
"250 404 OFFCURVE",
"276 433 OFFCURVE",
"317 433 CURVE SMOOTH",
"375 433 OFFCURVE",
"402 379 OFFCURVE",
"402 276 CURVE SMOOTH",
"402 170 OFFCURVE",
"370 116 OFFCURVE",
"304 116 CURVE SMOOTH"
);
}
);
width = 605;
}
);
unicode = 0070;
},
{
glyphname = thorn;
lastChange = "2015-01-29 03:32:02 +0000";
layers = (
{
layerId = "809BDC91-2406-4790-B9EF-A5FFF608A06A";
name = Regular;
paths = (
{
closed = 1;
nodes = (
"136 -220 LINE SMOOTH",
"166 -220 OFFCURVE",
"179 -211 OFFCURVE",
"179 -197 CURVE SMOOTH",
"179 47 LINE",
"220 16 OFFCURVE",
"264 -7 OFFCURVE",
"330 -7 CURVE SMOOTH",
"456 -7 OFFCURVE",
"544 93 OFFCURVE",
"544 275 CURVE SMOOTH",
"544 442 OFFCURVE",
"466 559 OFFCURVE",
"339 559 CURVE SMOOTH",
"283 559 OFFCURVE",
"229 537 OFFCURVE",
"179 488 CURVE",
"179 771 LINE SMOOTH",
"179 786 OFFCURVE",
"166 795 OFFCURVE",
"136 795 CURVE SMOOTH",
"131 795 LINE SMOOTH",
"103 795 OFFCURVE",
"89 786 OFFCURVE",
"89 771 CURVE SMOOTH",
"89 -197 LINE SMOOTH",
"89 -211 OFFCURVE",
"103 -220 OFFCURVE",
"131 -220 CURVE SMOOTH"
);
},
{
closed = 1;
nodes = (
"261 72 OFFCURVE",
"216 87 OFFCURVE",
"179 119 CURVE",
"179 410 LINE",
"222 457 OFFCURVE",
"275 482 OFFCURVE",
"321 482 CURVE SMOOTH",
"405 482 OFFCURVE",
"452 405 OFFCURVE",
"452 269 CURVE SMOOTH",
"452 143 OFFCURVE",
"404 74 OFFCURVE",
"309 72 CURVE SMOOTH"
);
}
);
width = 602;
},
{
layerId = "466C6FD7-E5A4-4003-892F-69A78A0A7E44";
name = Bold;
paths = (
{
closed = 1;
nodes = (
"162 -218 LINE SMOOTH",
"206 -218 OFFCURVE",
"225 -206 OFFCURVE",
"225 -184 CURVE SMOOTH",
"225 24 LINE",
"247 8 OFFCURVE",
"283 -8 OFFCURVE",
"333 -8 CURVE SMOOTH",
"475 -8 OFFCURVE",
"555 104 OFFCURVE",
"555 276 CURVE SMOOTH",
"555 459 OFFCURVE",
"473 561 OFFCURVE",
"358 561 CURVE SMOOTH",
"300 561 OFFCURVE",
"252 536 OFFCURVE",
"225 497 CURVE",
"225 763 LINE SMOOTH",
"225 785 OFFCURVE",
"206 797 OFFCURVE",
"162 797 CURVE SMOOTH",
"131 797 LINE SMOOTH",
"87 797 OFFCURVE",
"69 785 OFFCURVE",
"69 763 CURVE SMOOTH",
"69 -184 LINE SMOOTH",
"69 -206 OFFCURVE",
"87 -218 OFFCURVE",
"131 -218 CURVE SMOOTH"
);
},
{
closed = 1;
nodes = (
"266 116 OFFCURVE",
"241 126 OFFCURVE",
"225 135 CURVE",
"225 371 LINE",
"243 404 OFFCURVE",
"272 433 OFFCURVE",
"311 433 CURVE SMOOTH",
"369 433 OFFCURVE",
"396 379 OFFCURVE",
"396 276 CURVE SMOOTH",
"396 170 OFFCURVE",
"364 116 OFFCURVE",
"299 116 CURVE SMOOTH"
);
}
);
width = 602;
}
);
unicode = 00FE;
},
{
glyphname = q;
lastChange = "2015-01-29 03:32:02 +0000";
layers = (
{
layerId = "809BDC91-2406-4790-B9EF-A5FFF608A06A";
name = Regular;
paths = (
{
closed = 1;
nodes = (
"467 -220 LINE SMOOTH",
"496 -220 OFFCURVE",
"509 -211 OFFCURVE",
"509 -197 CURVE SMOOTH",
"509 532 LINE SMOOTH",
"509 547 OFFCURVE",
"499 554 OFFCURVE",
"477 554 CURVE SMOOTH",
"474 554 LINE SMOOTH",
"457 554 OFFCURVE",
"448 552 OFFCURVE",
"444 542 CURVE SMOOTH",
"436 520 OFFCURVE",
"432 501 OFFCURVE",
"427 479 CURVE",
"377 534 OFFCURVE",
"319 559 OFFCURVE",
"260 559 CURVE SMOOTH",
"133 559 OFFCURVE",
"54 442 OFFCURVE",
"54 275 CURVE SMOOTH",
"54 93 OFFCURVE",
"144 -7 OFFCURVE",
"269 -7 CURVE SMOOTH",
"335 -7 OFFCURVE",
"380 16 OFFCURVE",
"421 47 CURVE",
"421 -197 LINE SMOOTH",
"421 -211 OFFCURVE",
"433 -220 OFFCURVE",
"463 -220 CURVE SMOOTH"
);
},
{
closed = 1;
nodes = (
"194 74 OFFCURVE",
"147 143 OFFCURVE",
"147 269 CURVE SMOOTH",
"147 405 OFFCURVE",
"193 482 OFFCURVE",
"277 482 CURVE SMOOTH",
"324 482 OFFCURVE",
"378 457 OFFCURVE",
"421 410 CURVE",
"421 119 LINE",
"382 87 OFFCURVE",
"338 72 OFFCURVE",
"289 72 CURVE SMOOTH"
);
}
);
width = 598;
},
{
layerId = "466C6FD7-E5A4-4003-892F-69A78A0A7E44";
name = Bold;
paths = (
{
closed = 1;
nodes = (
"474 -218 LINE SMOOTH",
"518 -218 OFFCURVE",
"537 -206 OFFCURVE",
"537 -184 CURVE SMOOTH",
"537 520 LINE SMOOTH",
"537 543 OFFCURVE",
"518 554 OFFCURVE",
"474 554 CURVE SMOOTH",
"460 554 LINE SMOOTH",
"427 554 OFFCURVE",
"405 551 OFFCURVE",
"400 528 CURVE SMOOTH",
"396 512 OFFCURVE",
"392 497 OFFCURVE",
"389 482 CURVE",
"365 528 OFFCURVE",
"314 561 OFFCURVE",
"247 561 CURVE SMOOTH",
"130 561 OFFCURVE",
"44 459 OFFCURVE",
"44 276 CURVE SMOOTH",
"44 104 OFFCURVE",
"127 -8 OFFCURVE",
"273 -8 CURVE SMOOTH",
"322 -8 OFFCURVE",
"359 8 OFFCURVE",
"381 24 CURVE",
"381 -184 LINE SMOOTH",
"381 -206 OFFCURVE",
"400 -218 OFFCURVE",
"444 -218 CURVE SMOOTH"
);
},
{
closed = 1;
nodes = (
"237 116 OFFCURVE",
"203 170 OFFCURVE",
"203 276 CURVE SMOOTH",
"203 379 OFFCURVE",
"233 433 OFFCURVE",
"294 433 CURVE SMOOTH",
"335 433 OFFCURVE",
"362 404 OFFCURVE",
"381 371 CURVE",
"381 135 LINE",
"364 126 OFFCURVE",
"339 116 OFFCURVE",
"306 116 CURVE SMOOTH"
);
}
);
width = 598;
}
);
unicode = 0071;
},
{
glyphname = r;
lastChange = "2015-01-29 03:32:02 +0000";
layers = (
{
anchors = (
{
name = bottom;
position = "{142, -2}";
},
{
name = top;
position = "{140, 550}";
}
);
layerId = "809BDC91-2406-4790-B9EF-A5FFF608A06A";
name = Regular;
paths = (
{
closed = 1;
nodes = (
"142 -2 LINE SMOOTH",
"171 -2 OFFCURVE",
"184 7 OFFCURVE",
"184 22 CURVE SMOOTH",
"184 409 LINE",
"184 409 OFFCURVE",
"226 473 OFFCURVE",
"282 473 CURVE SMOOTH",
"318 473 OFFCURVE",
"326 460 OFFCURVE",
"339 460 CURVE SMOOTH",
"351 460 OFFCURVE",
"361 498 OFFCURVE",
"361 518 CURVE SMOOTH",
"361 541 OFFCURVE",
"340 559 OFFCURVE",
"299 559 CURVE SMOOTH",
"255 559 OFFCURVE",
"212 531 OFFCURVE",
"177 479 CURVE",
"170 507 OFFCURVE",
"165 550 OFFCURVE",
"140 550 CURVE SMOOTH",
"126 550 OFFCURVE",
"83 545 OFFCURVE",
"83 526 CURVE SMOOTH",
"83 520 OFFCURVE",
"95 478 OFFCURVE",
"95 392 CURVE SMOOTH",
"95 22 LINE SMOOTH",
"95 7 OFFCURVE",
"108 -2 OFFCURVE",
"137 -2 CURVE SMOOTH"
);
}
);
width = 386;
},
{
anchors = (
{
name = bottom;
position = "{159, -2}";
},
{
name = top;
position = "{141, 552}";
}
);
layerId = "466C6FD7-E5A4-4003-892F-69A78A0A7E44";
name = Bold;
paths = (
{
closed = 1;
nodes = (
"159 -2 LINE SMOOTH",
"203 -2 OFFCURVE",
"222 9 OFFCURVE",
"222 32 CURVE SMOOTH",
"222 371 LINE",
"235 392 OFFCURVE",
"263 424 OFFCURVE",
"306 424 CURVE SMOOTH",
"328 424 OFFCURVE",
"341 415 OFFCURVE",
"357 415 CURVE SMOOTH",
"378 415 OFFCURVE",
"389 485 OFFCURVE",
"389 505 CURVE SMOOTH",
"389 526 OFFCURVE",
"381 561 OFFCURVE",
"329 561 CURVE SMOOTH",
"268 561 OFFCURVE",
"236 520 OFFCURVE",
"213 481 CURVE",
"208 507 OFFCURVE",
"205 550 OFFCURVE",
"171 550 CURVE SMOOTH",
"146 550 OFFCURVE",
"53 541 OFFCURVE",
"53 516 CURVE SMOOTH",
"53 495 OFFCURVE",
"66 473 OFFCURVE",
"66 367 CURVE SMOOTH",
"66 32 LINE SMOOTH",
"66 9 OFFCURVE",
"85 -2 OFFCURVE",
"129 -2 CURVE SMOOTH"
);
}
);
width = 386;
}
);
unicode = 0072;
},
{
glyphname = s;
lastChange = "2015-01-29 03:32:03 +0000";
layers = (
{
anchors = (
{
name = bottom;
position = "{219, 0}";
},
{
name = top;
position = "{219, 552}";
}
);
layerId = "809BDC91-2406-4790-B9EF-A5FFF608A06A";
name = Regular;
paths = (
{
closed = 1;
nodes = (
"309 -9 OFFCURVE",
"392 61 OFFCURVE",
"392 156 CURVE SMOOTH",
"392 252 OFFCURVE",
"353 287 OFFCURVE",
"223 327 CURVE SMOOTH",
"163 345 OFFCURVE",
"141 371 OFFCURVE",
"141 418 CURVE SMOOTH",
"141 459 OFFCURVE",
"181 486 OFFCURVE",
"235 486 CURVE SMOOTH",
"291 486 OFFCURVE",
"326 458 OFFCURVE",
"331 458 CURVE SMOOTH",
"345 458 OFFCURVE",
"365 498 OFFCURVE",
"365 515 CURVE SMOOTH",
"365 538 OFFCURVE",
"297 560 OFFCURVE",
"226 560 CURVE SMOOTH",
"123 560 OFFCURVE",
"50 496 OFFCURVE",
"50 407 CURVE SMOOTH",
"50 328 OFFCURVE",
"83 283 OFFCURVE",
"197 248 CURVE SMOOTH",
"276 226 OFFCURVE",
"303 201 OFFCURVE",
"303 153 CURVE SMOOTH",
"303 95 OFFCURVE",
"266 68 OFFCURVE",
"199 68 CURVE SMOOTH",
"124 68 OFFCURVE",
"82 110 OFFCURVE",
"74 110 CURVE SMOOTH",
"60 110 OFFCURVE",
"38 70 OFFCURVE",
"38 57 CURVE SMOOTH",
"38 33 OFFCURVE",
"109 -9 OFFCURVE",
"205 -9 CURVE SMOOTH"
);
}
);
width = 436;
},
{
anchors = (
{
name = bottom;
position = "{219, 0}";
},
{
name = top;
position = "{219, 552}";
}
);
layerId = "466C6FD7-E5A4-4003-892F-69A78A0A7E44";
name = Bold;
paths = (
{
closed = 1;
nodes = (
"340 -8 OFFCURVE",
"415 65 OFFCURVE",
"415 172 CURVE SMOOTH",
"415 256 OFFCURVE",
"371 295 OFFCURVE",
"323 319 CURVE SMOOTH",
"268 345 OFFCURVE",
"204 355 OFFCURVE",
"204 402 CURVE SMOOTH",
"204 427 OFFCURVE",
"226 439 OFFCURVE",
"260 439 CURVE SMOOTH",
"309 439 OFFCURVE",
"339 416 OFFCURVE",
"350 416 CURVE SMOOTH",
"371 416 OFFCURVE",
"396 476 OFFCURVE",
"396 500 CURVE SMOOTH",
"396 544 OFFCURVE",
"299 561 OFFCURVE",
"238 561 CURVE SMOOTH",
"120 561 OFFCURVE",
"45 498 OFFCURVE",
"45 388 CURVE SMOOTH",
"45 283 OFFCURVE",
"115 250 OFFCURVE",
"166 230 CURVE SMOOTH",
"213 210 OFFCURVE",
"256 200 OFFCURVE",
"256 160 CURVE SMOOTH",
"256 131 OFFCURVE",
"236 116 OFFCURVE",
"195 116 CURVE SMOOTH",
"140 116 OFFCURVE",
"105 146 OFFCURVE",
"88 146 CURVE SMOOTH",
"68 146 OFFCURVE",
"33 91 OFFCURVE",
"33 64 CURVE SMOOTH",
"33 19 OFFCURVE",
"129 -8 OFFCURVE",
"209 -8 CURVE SMOOTH"
);
}
);
width = 436;
}
);
unicode = 0073;
},
{
glyphname = germandbls;
lastChange = "2015-01-29 03:32:02 +0000";
layers = (
{
layerId = "809BDC91-2406-4790-B9EF-A5FFF608A06A";
name = Regular;
paths = (
{
closed = 1;
nodes = (
"142 -2 LINE SMOOTH",
"171 -2 OFFCURVE",
"184 7 OFFCURVE",
"184 22 CURVE SMOOTH",
"184 551 LINE SMOOTH",
"184 625 OFFCURVE",
"230 670 OFFCURVE",
"301 670 CURVE SMOOTH",
"358 670 OFFCURVE",
"418 648 OFFCURVE",
"418 558 CURVE SMOOTH",
"418 490 OFFCURVE",
"358 435 OFFCURVE",
"293 435 CURVE SMOOTH",
"283 435 LINE SMOOTH",
"268 435 OFFCURVE",
"261 426 OFFCURVE",
"261 404 CURVE SMOOTH",
"261 391 LINE SMOOTH",
"261 369 OFFCURVE",
"268 360 OFFCURVE",
"283 360 CURVE SMOOTH",
"318 360 LINE SMOOTH",
"391 360 OFFCURVE",
"450 306 OFFCURVE",
"450 218 CURVE SMOOTH",
"450 128 OFFCURVE",
"391 76 OFFCURVE",
"318 76 CURVE SMOOTH",
"283 76 LINE SMOOTH",
"268 76 OFFCURVE",
"261 67 OFFCURVE",
"261 44 CURVE SMOOTH",
"261 32 LINE SMOOTH",
"261 9 OFFCURVE",
"268 0 OFFCURVE",
"283 0 CURVE SMOOTH",
"317 0 LINE SMOOTH",
"443 0 OFFCURVE",
"543 76 OFFCURVE",
"543 218 CURVE SMOOTH",
"543 308 OFFCURVE",
"495 384 OFFCURVE",
"405 406 CURVE",
"405 410 LINE",
"469 436 OFFCURVE",
"512 505 OFFCURVE",
"512 567 CURVE SMOOTH",
"512 701 OFFCURVE",
"418 746 OFFCURVE",
"303 746 CURVE SMOOTH",
"178 746 OFFCURVE",
"95 666 OFFCURVE",
"95 551 CURVE SMOOTH",
"95 22 LINE SMOOTH",
"95 7 OFFCURVE",
"108 -2 OFFCURVE",
"137 -2 CURVE SMOOTH"
);
}
);
width = 584.5;
},
{
layerId = "466C6FD7-E5A4-4003-892F-69A78A0A7E44";
name = Bold;
paths = (
{
closed = 1;
nodes = (
"154 -2 LINE SMOOTH",
"198 -2 OFFCURVE",
"218 9 OFFCURVE",
"218 32 CURVE SMOOTH",
"218 531 LINE SMOOTH",
"218 581 OFFCURVE",
"250 616 OFFCURVE",
"301 616 CURVE SMOOTH",
"357 616 OFFCURVE",
"379 572 OFFCURVE",
"379 540 CURVE SMOOTH",
"379 491 OFFCURVE",
"345 453 OFFCURVE",
"291 453 CURVE",
"287 453 LINE",
"269 453 OFFCURVE",
"260 434 OFFCURVE",
"260 400 CURVE SMOOTH",
"260 381 LINE SMOOTH",
"260 345 OFFCURVE",
"269 329 OFFCURVE",
"291 329 CURVE",
"294 329 LINE",
"363 329 OFFCURVE",
"404 286 OFFCURVE",
"404 222 CURVE SMOOTH",
"404 163 OFFCURVE",
"364 124 OFFCURVE",
"306 124 CURVE SMOOTH",
"291 124 LINE SMOOTH",
"269 124 OFFCURVE",
"260 108 OFFCURVE",
"260 71 CURVE SMOOTH",
"260 53 LINE SMOOTH",
"260 16 OFFCURVE",
"269 0 OFFCURVE",
"291 0 CURVE SMOOTH",
"316 0 LINE SMOOTH",
"469 0 OFFCURVE",
"563 95 OFFCURVE",
"563 222 CURVE SMOOTH",
"563 314 OFFCURVE",
"526 371 OFFCURVE",
"438 405 CURVE",
"438 410 LINE",
"504 435 OFFCURVE",
"536 490 OFFCURVE",
"536 560 CURVE SMOOTH",
"536 677 OFFCURVE",
"436 749 OFFCURVE",
"303 749 CURVE SMOOTH",
"163 749 OFFCURVE",
"61 659 OFFCURVE",
"61 518 CURVE SMOOTH",
"61 32 LINE SMOOTH",
"61 9 OFFCURVE",
"81 -2 OFFCURVE",
"125 -2 CURVE SMOOTH"
);
}
);
width = 584.5;
}
);
unicode = 00DF;
},
{
glyphname = longs;
lastChange = "2015-01-29 03:32:02 +0000";
layers = (
{
layerId = "809BDC91-2406-4790-B9EF-A5FFF608A06A";
name = Regular;
paths = (
{
closed = 1;
nodes = (
"161 -2 LINE SMOOTH",
"191 -2 OFFCURVE",
"203 7 OFFCURVE",
"203 22 CURVE",
"203 645 LINE",
"203 714 OFFCURVE",
"230 722 OFFCURVE",
"260 722 CURVE SMOOTH",
"290 722 OFFCURVE",
"296 718 OFFCURVE",
"305 718 CURVE SMOOTH",
"320 718 OFFCURVE",
"328 759 OFFCURVE",
"328 767 CURVE SMOOTH",
"328 796 OFFCURVE",
"279 799 OFFCURVE",
"251 799 CURVE SMOOTH",
"198 799 OFFCURVE",
"115 780 OFFCURVE",
"115 654 CURVE SMOOTH",
"115 552 LINE",
"72 552 LINE SMOOTH",
"57 552 OFFCURVE",
"51 543 OFFCURVE",
"51 520 CURVE SMOOTH",
"51 508 LINE SMOOTH",
"51 487 OFFCURVE",
"57 476 OFFCURVE",
"72 476 CURVE SMOOTH",
"115 476 LINE",
"115 22 LINE SMOOTH",
"115 7 OFFCURVE",
"127 -2 OFFCURVE",
"157 -2 CURVE SMOOTH"
);
}
);
width = 343;
},
{
layerId = "466C6FD7-E5A4-4003-892F-69A78A0A7E44";
name = Bold;
paths = (
{
closed = 1;
nodes = (
"177 -2 LINE SMOOTH",
"221 -2 OFFCURVE",
"241 9 OFFCURVE",
"241 32 CURVE",
"241 634 LINE",
"241 666 OFFCURVE",
"251 679 OFFCURVE",
"278 679 CURVE SMOOTH",
"288 679 OFFCURVE",
"303 676 OFFCURVE",
"311 676 CURVE SMOOTH",
"332 676 OFFCURVE",
"343 743 OFFCURVE",
"343 752 CURVE SMOOTH",
"343 801 OFFCURVE",
"273 803 OFFCURVE",
"238 803 CURVE SMOOTH",
"138 803 OFFCURVE",
"84 750 OFFCURVE",
"84 632 CURVE SMOOTH",
"84 552 LINE",
"65 552 LINE SMOOTH",
"42 552 OFFCURVE",
"33 537 OFFCURVE",
"33 500 CURVE SMOOTH",
"33 482 LINE SMOOTH",
"33 445 OFFCURVE",
"42 428 OFFCURVE",
"65 428 CURVE SMOOTH",
"84 428 LINE",
"84 32 LINE SMOOTH",
"84 9 OFFCURVE",
"103 -2 OFFCURVE",
"148 -2 CURVE SMOOTH"
);
}
);
width = 343;
}
);
unicode = 017F;
},
{
glyphname = t;
lastChange = "2015-01-29 03:32:02 +0000";
layers = (
{
anchors = (
{
name = bottom;
position = "{229, 0}";
},
{
name = caron;
position = "{197, 795}";
},
{
name = center;
position = "{180, 308}";
}
);
layerId = "809BDC91-2406-4790-B9EF-A5FFF608A06A";
name = Regular;
paths = (
{
closed = 1;
nodes = (
"278 -7 OFFCURVE",
"327 -3 OFFCURVE",
"327 25 CURVE SMOOTH",
"327 34 OFFCURVE",
"319 75 OFFCURVE",
"304 75 CURVE SMOOTH",
"295 75 OFFCURVE",
"289 71 OFFCURVE",
"258 71 CURVE SMOOTH",
"229 71 OFFCURVE",
"202 85 OFFCURVE",
"202 148 CURVE SMOOTH",
"202 476 LINE",
"290 476 LINE SMOOTH",
"305 476 OFFCURVE",
"312 487 OFFCURVE",
"312 508 CURVE SMOOTH",
"312 520 LINE SMOOTH",
"312 543 OFFCURVE",
"305 552 OFFCURVE",
"290 552 CURVE SMOOTH",
"202 552 LINE",
"202 664 LINE SMOOTH",
"202 678 OFFCURVE",
"193 687 OFFCURVE",
"170 687 CURVE SMOOTH",
"160 687 LINE SMOOTH",
"137 687 OFFCURVE",
"127 678 OFFCURVE",
"126 664 CURVE SMOOTH",
"114 552 LINE",
"61 552 LINE SMOOTH",
"45 552 OFFCURVE",
"39 543 OFFCURVE",
"39 520 CURVE SMOOTH",
"39 508 LINE SMOOTH",
"39 487 OFFCURVE",
"45 476 OFFCURVE",
"61 476 CURVE SMOOTH",
"114 476 LINE",
"114 140 LINE SMOOTH",
"114 18 OFFCURVE",
"197 -7 OFFCURVE",
"250 -7 CURVE SMOOTH"
);
}
);
width = 361.5;
},
{
anchors = (
{
name = bottom;
position = "{212, 0}";
},
{
name = caron;
position = "{222, 795}";
},
{
name = center;
position = "{179, 308}";
}
);
layerId = "466C6FD7-E5A4-4003-892F-69A78A0A7E44";
name = Bold;
paths = (
{
closed = 1;
nodes = (
"269 -8 OFFCURVE",
"337 -6 OFFCURVE",
"337 43 CURVE SMOOTH",
"337 52 OFFCURVE",
"326 119 OFFCURVE",
"304 119 CURVE SMOOTH",
"298 119 OFFCURVE",
"286 116 OFFCURVE",
"276 116 CURVE SMOOTH",
"248 116 OFFCURVE",
"238 129 OFFCURVE",
"238 161 CURVE SMOOTH",
"238 428 LINE",
"289 428 LINE SMOOTH",
"312 428 OFFCURVE",
"321 445 OFFCURVE",
"321 482 CURVE SMOOTH",
"321 500 LINE SMOOTH",
"321 537 OFFCURVE",
"312 552 OFFCURVE",
"289 552 CURVE SMOOTH",
"238 552 LINE",
"238 654 LINE SMOOTH",
"238 676 OFFCURVE",
"222 687 OFFCURVE",
"185 687 CURVE SMOOTH",
"152 687 LINE SMOOTH",
"117 687 OFFCURVE",
"99 676 OFFCURVE",
"95 654 CURVE SMOOTH",
"82 552 LINE",
"65 552 LINE SMOOTH",
"42 552 OFFCURVE",
"33 537 OFFCURVE",
"33 500 CURVE SMOOTH",
"33 482 LINE SMOOTH",
"33 445 OFFCURVE",
"42 428 OFFCURVE",
"65 428 CURVE SMOOTH",
"82 428 LINE",
"82 163 LINE SMOOTH",
"82 45 OFFCURVE",
"136 -8 OFFCURVE",
"236 -8 CURVE SMOOTH"
);
}
);
width = 361.5;
}
);
unicode = 0074;
},
{
glyphname = u;
lastChange = "2015-01-29 03:32:02 +0000";
layers = (
{
anchors = (
{
name = bottom;
position = "{265, 0}";
},
{
name = horn;
position = "{452, 554}";
},
{
name = ogonek;
position = "{495, 10}";
},
{
name = top;
position = "{295, 552}";
}
);
hints = (
{
horizontal = 1;
origin = "{0, 38}";
target = "{0, 23}";
},
{
horizontal = 1;
origin = "{0, 31}";
target = down;
type = TopGhost;
},
{
horizontal = 1;
origin = "{0, 5}";
target = up;
type = BottomGhost;
},
{
origin = "{0, 35}";
target = "{0, 26}";
},
{
origin = "{0, 20}";
target = "{0, 11}";
}
);
layerId = "809BDC91-2406-4790-B9EF-A5FFF608A06A";
name = Regular;
paths = (
{
closed = 1;
nodes = (
"311 -7 OFFCURVE",
"372 24 OFFCURVE",
"416 73 CURVE",
"423 43 OFFCURVE",
"427 -1 OFFCURVE",
"454 -1 CURVE SMOOTH",
"467 -1 OFFCURVE",
"510 3 OFFCURVE",
"510 24 CURVE SMOOTH",
"510 29 OFFCURVE",
"498 71 OFFCURVE",
"498 157 CURVE SMOOTH",
"498 532 LINE SMOOTH",
"498 547 OFFCURVE",
"486 554 OFFCURVE",
"456 554 CURVE SMOOTH",
"452 554 LINE SMOOTH",
"422 554 OFFCURVE",
"410 547 OFFCURVE",
"410 532 CURVE SMOOTH",
"410 146 LINE",
"374 100 OFFCURVE",
"323 71 OFFCURVE",
"276 71 CURVE SMOOTH",
"208 71 OFFCURVE",
"168 109 OFFCURVE",
"168 173 CURVE SMOOTH",
"168 532 LINE SMOOTH",
"168 547 OFFCURVE",
"156 554 OFFCURVE",
"126 554 CURVE SMOOTH",
"121 554 LINE SMOOTH",
"92 554 OFFCURVE",
"79 547 OFFCURVE",
"79 532 CURVE SMOOTH",
"79 165 LINE SMOOTH",
"79 58 OFFCURVE",
"145 -7 OFFCURVE",
"252 -7 CURVE SMOOTH"
);
}
);
width = 589;
},
{
anchors = (
{
name = bottom;
position = "{265, 0}";
},
{
name = horn;
position = "{430, 554}";
},
{
name = ogonek;
position = "{479, 10}";
},
{
name = top;
position = "{295, 552}";
}
);
hints = (
{
horizontal = 1;
origin = "{0, 5}";
target = up;
type = BottomGhost;
},
{
horizontal = 1;
origin = "{0, 31}";
target = down;
type = TopGhost;
},
{
horizontal = 1;
origin = "{0, 38}";
target = "{0, 23}";
},
{
origin = "{0, 35}";
target = "{0, 26}";
},
{
origin = "{0, 20}";
target = "{0, 11}";
}
);
layerId = "466C6FD7-E5A4-4003-892F-69A78A0A7E44";
name = Bold;
paths = (
{
closed = 1;
nodes = (
"286 -8 OFFCURVE",
"345 32 OFFCURVE",
"375 72 CURVE",
"381 43 OFFCURVE",
"383 -1 OFFCURVE",
"417 -1 CURVE SMOOTH",
"443 -1 OFFCURVE",
"536 8 OFFCURVE",
"536 33 CURVE SMOOTH",
"536 55 OFFCURVE",
"522 77 OFFCURVE",
"522 187 CURVE SMOOTH",
"522 520 LINE SMOOTH",
"522 543 OFFCURVE",
"505 554 OFFCURVE",
"459 554 CURVE SMOOTH",
"430 554 LINE SMOOTH",
"385 554 OFFCURVE",
"366 543 OFFCURVE",
"366 520 CURVE SMOOTH",
"366 181 LINE",
"353 158 OFFCURVE",
"325 120 OFFCURVE",
"282 120 CURVE SMOOTH",
"235 120 OFFCURVE",
"219 146 OFFCURVE",
"219 187 CURVE SMOOTH",
"219 520 LINE SMOOTH",
"219 543 OFFCURVE",
"199 554 OFFCURVE",
"155 554 CURVE SMOOTH",
"126 554 LINE SMOOTH",
"82 554 OFFCURVE",
"62 543 OFFCURVE",
"62 520 CURVE SMOOTH",
"62 163 LINE SMOOTH",
"62 45 OFFCURVE",
"112 -8 OFFCURVE",
"218 -8 CURVE SMOOTH"
);
}
);
width = 589;
}
);
unicode = 0075;
},
{
glyphname = v;
lastChange = "2015-01-29 03:32:02 +0000";
layers = (
{
layerId = "809BDC91-2406-4790-B9EF-A5FFF608A06A";
name = Regular;
paths = (
{
closed = 1;
nodes = (
"274 -2 LINE SMOOTH",
"296 -2 OFFCURVE",
"313 2 OFFCURVE",
"317 15 CURVE SMOOTH",
"487 521 LINE SMOOTH",
"489 529 OFFCURVE",
"489 533 OFFCURVE",
"489 537 CURVE SMOOTH",
"489 549 OFFCURVE",
"478 554 OFFCURVE",
"451 554 CURVE",
"447 554 LINE",
"426 554 OFFCURVE",
"409 551 OFFCURVE",
"404 538 CURVE SMOOTH",
"296 199 LINE SMOOTH",
"283 159 OFFCURVE",
"272 105 OFFCURVE",
"264 70 CURVE",
"260 70 LINE",
"251 105 OFFCURVE",
"236 159 OFFCURVE",
"223 201 CURVE SMOOTH",
"115 538 LINE SMOOTH",
"110 551 OFFCURVE",
"94 554 OFFCURVE",
"72 554 CURVE SMOOTH",
"67 554 LINE SMOOTH",
"36 554 OFFCURVE",
"22 548 OFFCURVE",
"22 537 CURVE SMOOTH",
"22 533 OFFCURVE",
"23 527 OFFCURVE",
"24 522 CURVE SMOOTH",
"194 15 LINE SMOOTH",
"199 2 OFFCURVE",
"216 -2 OFFCURVE",
"237 -2 CURVE SMOOTH"
);
}
);
width = 512;
},
{
layerId = "466C6FD7-E5A4-4003-892F-69A78A0A7E44";
name = Bold;
paths = (
{
closed = 1;
nodes = (
"273 -2 LINE SMOOTH",
"303 -2 OFFCURVE",
"327 3 OFFCURVE",
"332 21 CURVE SMOOTH",
"500 512 LINE SMOOTH",
"502 520 OFFCURVE",
"504 527 OFFCURVE",
"504 532 CURVE SMOOTH",
"504 547 OFFCURVE",
"485 554 OFFCURVE",
"441 554 CURVE SMOOTH",
"413 554 LINE SMOOTH",
"382 554 OFFCURVE",
"360 550 OFFCURVE",
"354 533 CURVE SMOOTH",
"291 337 LINE SMOOTH",
"285 314 OFFCURVE",
"273 256 OFFCURVE",
"262 210 CURVE",
"257 210 LINE",
"247 256 OFFCURVE",
"236 312 OFFCURVE",
"229 337 CURVE SMOOTH",
"166 533 LINE SMOOTH",
"161 550 OFFCURVE",
"137 554 OFFCURVE",
"107 554 CURVE SMOOTH",
"72 554 LINE SMOOTH",
"28 554 OFFCURVE",
"8 547 OFFCURVE",
"8 532 CURVE SMOOTH",
"8 527 OFFCURVE",
"9 520 OFFCURVE",
"12 512 CURVE SMOOTH",
"179 21 LINE SMOOTH",
"185 3 OFFCURVE",
"209 -2 OFFCURVE",
"240 -2 CURVE SMOOTH"
);
}
);
width = 512;
}
);
leftKerningGroup = v;
rightKerningGroup = v;
unicode = 0076;
},
{
glyphname = w;
lastChange = "2015-01-29 03:32:03 +0000";
layers = (
{
anchors = (
{
name = top;
position = "{396, 552}";
}
);
layerId = "809BDC91-2406-4790-B9EF-A5FFF608A06A";
name = Regular;
paths = (
{
closed = 1;
nodes = (
"251 -2 LINE SMOOTH",
"272 -2 OFFCURVE",
"289 2 OFFCURVE",
"293 15 CURVE SMOOTH",
"380 350 LINE SMOOTH",
"385 374 OFFCURVE",
"391 405 OFFCURVE",
"395 432 CURVE",
"399 405 OFFCURVE",
"404 374 OFFCURVE",
"411 349 CURVE SMOOTH",
"495 15 LINE SMOOTH",
"498 2 OFFCURVE",
"516 -2 OFFCURVE",
"536 -2 CURVE SMOOTH",
"568 -2 LINE SMOOTH",
"590 -2 OFFCURVE",
"607 2 OFFCURVE",
"611 15 CURVE SMOOTH",
"752 521 LINE SMOOTH",
"753 529 OFFCURVE",
"754 533 OFFCURVE",
"754 537 CURVE SMOOTH",
"754 549 OFFCURVE",
"741 554 OFFCURVE",
"712 554 CURVE SMOOTH",
"691 554 OFFCURVE",
"674 551 OFFCURVE",
"669 538 CURVE SMOOTH",
"581 199 LINE SMOOTH",
"572 166 OFFCURVE",
"564 118 OFFCURVE",
"557 81 CURVE",
"550 118 OFFCURVE",
"547 141 OFFCURVE",
"530 201 CURVE SMOOTH",
"442 537 LINE SMOOTH",
"437 551 OFFCURVE",
"422 554 OFFCURVE",
"400 554 CURVE SMOOTH",
"393 554 LINE SMOOTH",
"371 554 OFFCURVE",
"354 551 OFFCURVE",
"351 537 CURVE SMOOTH",
"264 201 LINE SMOOTH",
"255 167 OFFCURVE",
"243 117 OFFCURVE",
"237 79 CURVE",
"229 118 OFFCURVE",
"218 174 OFFCURVE",
"211 200 CURVE SMOOTH",
"123 538 LINE SMOOTH",
"119 551 OFFCURVE",
"101 554 OFFCURVE",
"81 554 CURVE SMOOTH",
"45 554 OFFCURVE",
"31 548 OFFCURVE",
"31 537 CURVE SMOOTH",
"31 533 OFFCURVE",
"35 521 OFFCURVE",
"38 516 CURVE SMOOTH",
"177 15 LINE",
"179 2 OFFCURVE",
"197 -2 OFFCURVE",
"219 -2 CURVE SMOOTH"
);
}
);
width = 788.5;
},
{
anchors = (
{
name = top;
position = "{396, 552}";
}
);
layerId = "466C6FD7-E5A4-4003-892F-69A78A0A7E44";
name = Bold;
paths = (
{
closed = 1;
nodes = (
"264 -2 LINE SMOOTH",
"294 -2 OFFCURVE",
"318 6 OFFCURVE",
"321 21 CURVE SMOOTH",
"382 272 LINE",
"386 287 OFFCURVE",
"390 301 OFFCURVE",
"394 318 CURVE",
"398 303 OFFCURVE",
"401 287 OFFCURVE",
"405 273 CURVE",
"470 21 LINE SMOOTH",
"474 6 OFFCURVE",
"494 -2 OFFCURVE",
"528 -2 CURVE SMOOTH",
"580 -2 LINE SMOOTH",
"610 -2 OFFCURVE",
"634 6 OFFCURVE",
"638 21 CURVE SMOOTH",
"763 511 LINE SMOOTH",
"764 518 OFFCURVE",
"765 522 OFFCURVE",
"765 528 CURVE SMOOTH",
"765 544 OFFCURVE",
"744 554 OFFCURVE",
"699 554 CURVE SMOOTH",
"660 554 OFFCURVE",
"642 548 OFFCURVE",
"637 533 CURVE SMOOTH",
"564 254 LINE",
"560 238 OFFCURVE",
"555 223 OFFCURVE",
"552 208 CURVE",
"549 222 OFFCURVE",
"543 236 OFFCURVE",
"540 251 CURVE",
"474 533 LINE SMOOTH",
"470 548 OFFCURVE",
"444 554 OFFCURVE",
"414 554 CURVE SMOOTH",
"390 554 LINE SMOOTH",
"356 554 OFFCURVE",
"335 548 OFFCURVE",
"332 533 CURVE SMOOTH",
"264 256 LINE",
"260 241 OFFCURVE",
"256 225 OFFCURVE",
"252 208 CURVE",
"247 223 OFFCURVE",
"243 238 OFFCURVE",
"240 254 CURVE",
"168 533 LINE SMOOTH",
"163 549 OFFCURVE",
"141 554 OFFCURVE",
"85 554 CURVE SMOOTH",
"39 554 OFFCURVE",
"19 544 OFFCURVE",
"19 528 CURVE SMOOTH",
"19 522 OFFCURVE",
"19 518 OFFCURVE",
"21 511 CURVE SMOOTH",
"154 21 LINE SMOOTH",
"158 6 OFFCURVE",
"178 -2 OFFCURVE",
"212 -2 CURVE SMOOTH"
);
}
);
width = 788.5;
}
);
leftKerningGroup = v;
rightKerningGroup = v;
unicode = 0077;
},
{
glyphname = x;
lastChange = "2015-01-29 03:32:02 +0000";
layers = (
{
layerId = "809BDC91-2406-4790-B9EF-A5FFF608A06A";
name = Regular;
paths = (
{
closed = 1;
nodes = (
"70 -2 LINE",
"91 -2 OFFCURVE",
"108 1 OFFCURVE",
"116 13 CURVE SMOOTH",
"231 181 LINE SMOOTH",
"243 201 OFFCURVE",
"250 211 OFFCURVE",
"254 219 CURVE",
"257 211 OFFCURVE",
"263 201 OFFCURVE",
"275 181 CURVE SMOOTH",
"388 14 LINE SMOOTH",
"395 1 OFFCURVE",
"411 -2 OFFCURVE",
"433 -2 CURVE SMOOTH",
"443 -2 LINE SMOOTH",
"478 -2 OFFCURVE",
"490 4 OFFCURVE",
"490 16 CURVE SMOOTH",
"490 22 OFFCURVE",
"488 28 OFFCURVE",
"483 35 CURVE SMOOTH",
"311 286 LINE",
"472 518 LINE SMOOTH",
"476 526 OFFCURVE",
"479 532 OFFCURVE",
"479 537 CURVE SMOOTH",
"479 550 OFFCURVE",
"467 554 OFFCURVE",
"435 554 CURVE",
"431 554 LINE",
"410 554 OFFCURVE",
"391 552 OFFCURVE",
"383 540 CURVE SMOOTH",
"282 388 LINE SMOOTH",
"269 369 OFFCURVE",
"264 359 OFFCURVE",
"260 350 CURVE",
"256 359 OFFCURVE",
"251 369 OFFCURVE",
"237 388 CURVE SMOOTH",
"137 539 LINE SMOOTH",
"129 552 OFFCURVE",
"114 554 OFFCURVE",
"92 554 CURVE SMOOTH",
"83 554 LINE SMOOTH",
"46 554 OFFCURVE",
"34 549 OFFCURVE",
"34 537 CURVE SMOOTH",
"34 532 OFFCURVE",
"38 526 OFFCURVE",
"42 518 CURVE SMOOTH",
"200 284 LINE",
"29 35 LINE SMOOTH",
"23 28 OFFCURVE",
"21 22 OFFCURVE",
"21 16 CURVE SMOOTH",
"21 3 OFFCURVE",
"34 -2 OFFCURVE",
"66 -2 CURVE"
);
}
);
width = 512;
},
{
layerId = "466C6FD7-E5A4-4003-892F-69A78A0A7E44";
name = Bold;
paths = (
{
closed = 1;
nodes = (
"104 -2 LINE SMOOTH",
"134 -2 OFFCURVE",
"157 -1 OFFCURVE",
"168 19 CURVE SMOOTH",
"242 134 LINE SMOOTH",
"246 142 OFFCURVE",
"252 149 OFFCURVE",
"256 157 CURVE",
"260 149 OFFCURVE",
"265 142 OFFCURVE",
"270 134 CURVE SMOOTH",
"342 19 LINE SMOOTH",
"354 -1 OFFCURVE",
"377 -2 OFFCURVE",
"407 -2 CURVE SMOOTH",
"442 -2 LINE SMOOTH",
"487 -2 OFFCURVE",
"507 6 OFFCURVE",
"507 18 CURVE SMOOTH",
"507 24 OFFCURVE",
"504 33 OFFCURVE",
"496 44 CURVE SMOOTH",
"339 282 LINE",
"494 509 LINE SMOOTH",
"501 520 OFFCURVE",
"505 530 OFFCURVE",
"505 537 CURVE SMOOTH",
"505 548 OFFCURVE",
"485 554 OFFCURVE",
"439 554 CURVE SMOOTH",
"409 554 LINE SMOOTH",
"378 554 OFFCURVE",
"355 553 OFFCURVE",
"343 536 CURVE SMOOTH",
"278 432 LINE SMOOTH",
"273 423 OFFCURVE",
"266 414 OFFCURVE",
"260 405 CURVE",
"255 413 OFFCURVE",
"250 422 OFFCURVE",
"244 430 CURVE SMOOTH",
"179 536 LINE SMOOTH",
"168 553 OFFCURVE",
"147 554 OFFCURVE",
"116 554 CURVE SMOOTH",
"82 554 LINE SMOOTH",
"36 554 OFFCURVE",
"15 548 OFFCURVE",
"15 537 CURVE SMOOTH",
"15 529 OFFCURVE",
"20 520 OFFCURVE",
"26 508 CURVE SMOOTH",
"177 280 LINE",
"18 43 LINE SMOOTH",
"9 32 OFFCURVE",
"6 24 OFFCURVE",
"6 18 CURVE SMOOTH",
"6 6 OFFCURVE",
"26 -2 OFFCURVE",
"72 -2 CURVE SMOOTH"
);
}
);
width = 512;
}
);
unicode = 0078;
},
{
glyphname = y;
lastChange = "2015-01-29 03:32:02 +0000";
layers = (
{
anchors = (
{
name = bottom;
position = "{365, 0}";
},
{
name = top;
position = "{255, 552}";
}
);
layerId = "809BDC91-2406-4790-B9EF-A5FFF608A06A";
name = Regular;
paths = (
{
closed = 1;
nodes = (
"163 -220 LINE SMOOTH",
"189 -220 OFFCURVE",
"208 -213 OFFCURVE",
"213 -198 CURVE SMOOTH",
"485 521 LINE SMOOTH",
"487 529 OFFCURVE",
"488 533 OFFCURVE",
"488 537 CURVE SMOOTH",
"488 549 OFFCURVE",
"475 554 OFFCURVE",
"445 554 CURVE",
"443 554 LINE",
"421 554 OFFCURVE",
"403 551 OFFCURVE",
"399 538 CURVE SMOOTH",
"294 252 LINE SMOOTH",
"281 219 OFFCURVE",
"269 178 OFFCURVE",
"258 146 CURVE",
"256 146 LINE",
"247 179 OFFCURVE",
"235 216 OFFCURVE",
"223 252 CURVE SMOOTH",
"115 538 LINE SMOOTH",
"109 551 OFFCURVE",
"94 554 OFFCURVE",
"72 554 CURVE SMOOTH",
"64 554 LINE SMOOTH",
"33 554 OFFCURVE",
"19 548 OFFCURVE",
"19 537 CURVE SMOOTH",
"19 533 OFFCURVE",
"21 527 OFFCURVE",
"22 522 CURVE SMOOTH",
"208 30 LINE",
"118 -185 LINE",
"113 -199 OFFCURVE",
"113 -201 OFFCURVE",
"113 -203 CURVE SMOOTH",
"113 -213 OFFCURVE",
"125 -220 OFFCURVE",
"147 -220 CURVE SMOOTH"
);
}
);
width = 508;
},
{
anchors = (
{
name = bottom;
position = "{381, 0}";
},
{
name = top;
position = "{255, 552}";
}
);
layerId = "466C6FD7-E5A4-4003-892F-69A78A0A7E44";
name = Bold;
paths = (
{
closed = 1;
nodes = (
"200 -218 LINE SMOOTH",
"231 -218 OFFCURVE",
"253 -212 OFFCURVE",
"258 -195 CURVE SMOOTH",
"501 512 LINE SMOOTH",
"504 520 OFFCURVE",
"505 527 OFFCURVE",
"505 532 CURVE SMOOTH",
"505 547 OFFCURVE",
"486 554 OFFCURVE",
"442 554 CURVE SMOOTH",
"415 554 LINE SMOOTH",
"384 554 OFFCURVE",
"362 550 OFFCURVE",
"357 533 CURVE SMOOTH",
"294 337 LINE SMOOTH",
"287 315 OFFCURVE",
"274 255 OFFCURVE",
"264 210 CURVE",
"260 210 LINE",
"251 255 OFFCURVE",
"238 314 OFFCURVE",
"231 337 CURVE SMOOTH",
"168 533 LINE SMOOTH",
"163 550 OFFCURVE",
"140 554 OFFCURVE",
"109 554 CURVE SMOOTH",
"75 554 LINE SMOOTH",
"31 554 OFFCURVE",
"10 547 OFFCURVE",
"10 532 CURVE SMOOTH",
"10 527 OFFCURVE",
"13 520 OFFCURVE",
"15 512 CURVE SMOOTH",
"190 0 LINE",
"123 -177 LINE SMOOTH",
"119 -184 OFFCURVE",
"118 -191 OFFCURVE",
"118 -195 CURVE SMOOTH",
"118 -210 OFFCURVE",
"138 -218 OFFCURVE",
"181 -218 CURVE SMOOTH"
);
}
);
width = 508;
}
);
rightKerningGroup = v;
unicode = 0079;
},
{
glyphname = z;
lastChange = "2015-01-29 03:32:03 +0000";
layers = (
{
anchors = (
{
name = bottom;
position = "{252, 0}";
},
{
name = top;
position = "{258, 552}";
}
);
layerId = "809BDC91-2406-4790-B9EF-A5FFF608A06A";
name = Regular;
paths = (
{
closed = 1;
nodes = (
"454 0 LINE SMOOTH",
"468 0 OFFCURVE",
"474 9 OFFCURVE",
"474 32 CURVE SMOOTH",
"474 44 LINE SMOOTH",
"474 67 OFFCURVE",
"468 76 OFFCURVE",
"454 76 CURVE SMOOTH",
"163 76 LINE",
"472 488 LINE SMOOTH",
"473 490 OFFCURVE",
"474 492 OFFCURVE",
"474 498 CURVE SMOOTH",
"474 517 OFFCURVE",
"463 552 OFFCURVE",
"453 552 CURVE SMOOTH",
"82 552 LINE SMOOTH",
"67 552 OFFCURVE",
"61 543 OFFCURVE",
"61 520 CURVE SMOOTH",
"61 508 LINE SMOOTH",
"61 487 OFFCURVE",
"67 476 OFFCURVE",
"82 476 CURVE SMOOTH",
"351 476 LINE",
"42 66 LINE SMOOTH",
"40 63 OFFCURVE",
"39 58 OFFCURVE",
"39 55 CURVE SMOOTH",
"39 33 OFFCURVE",
"55 0 OFFCURVE",
"63 0 CURVE"
);
}
);
width = 517;
},
{
anchors = (
{
name = bottom;
position = "{255, 0}";
},
{
name = top;
position = "{258, 552}";
}
);
layerId = "466C6FD7-E5A4-4003-892F-69A78A0A7E44";
name = Bold;
paths = (
{
closed = 1;
nodes = (
"454 0 LINE SMOOTH",
"476 0 OFFCURVE",
"486 16 OFFCURVE",
"486 53 CURVE SMOOTH",
"486 71 LINE SMOOTH",
"486 108 OFFCURVE",
"476 124 OFFCURVE",
"454 124 CURVE SMOOTH",
"237 124 LINE",
"478 456 LINE SMOOTH",
"480 458 OFFCURVE",
"481 464 OFFCURVE",
"481 472 CURVE SMOOTH",
"481 501 OFFCURVE",
"463 552 OFFCURVE",
"451 552 CURVE SMOOTH",
"77 552 LINE SMOOTH",
"54 552 OFFCURVE",
"45 537 OFFCURVE",
"45 500 CURVE SMOOTH",
"45 482 LINE SMOOTH",
"45 445 OFFCURVE",
"54 428 OFFCURVE",
"77 428 CURVE SMOOTH",
"273 428 LINE",
"31 95 LINE SMOOTH",
"29 92 OFFCURVE",
"28 86 OFFCURVE",
"28 81 CURVE SMOOTH",
"28 53 OFFCURVE",
"45 0 OFFCURVE",
"59 0 CURVE"
);
}
);
width = 517;
}
);
unicode = 007A;
},
{
glyphname = y.loclGUA;
lastChange = "2015-01-29 03:32:02 +0000";
layers = (
{
anchors = (
{
name = bottom;
position = "{551, 0}";
},
{
name = top;
position = "{295, 552}";
}
);
layerId = "809BDC91-2406-4790-B9EF-A5FFF608A06A";
name = Regular;
paths = (
{
closed = 1;
nodes = (
"426 -225 OFFCURVE",
"498 -148 OFFCURVE",
"498 105 CURVE SMOOTH",
"498 532 LINE SMOOTH",
"498 547 OFFCURVE",
"486 554 OFFCURVE",
"456 554 CURVE SMOOTH",
"452 554 LINE SMOOTH",
"422 554 OFFCURVE",
"410 547 OFFCURVE",
"410 532 CURVE SMOOTH",
"410 146 LINE",
"374 100 OFFCURVE",
"323 71 OFFCURVE",
"276 71 CURVE SMOOTH",
"208 71 OFFCURVE",
"168 109 OFFCURVE",
"168 173 CURVE SMOOTH",
"168 532 LINE SMOOTH",
"168 547 OFFCURVE",
"156 554 OFFCURVE",
"126 554 CURVE SMOOTH",
"121 554 LINE SMOOTH",
"92 554 OFFCURVE",
"79 547 OFFCURVE",
"79 532 CURVE SMOOTH",
"79 165 LINE SMOOTH",
"79 58 OFFCURVE",
"145 -7 OFFCURVE",
"252 -7 CURVE SMOOTH",
"317 -7 OFFCURVE",
"383 30 OFFCURVE",
"427 87 CURVE",
"411 110 LINE",
"411 66 LINE",
"411 -87 OFFCURVE",
"359 -148 OFFCURVE",
"266 -148 CURVE SMOOTH",
"157 -148 OFFCURVE",
"107 -91 OFFCURVE",
"94 -91 CURVE SMOOTH",
"89 -91 OFFCURVE",
"84 -95 OFFCURVE",
"84 -123 CURVE SMOOTH",
"84 -130 OFFCURVE",
"84 -138 OFFCURVE",
"85 -149 CURVE SMOOTH",
"88 -180 OFFCURVE",
"167 -225 OFFCURVE",
"275 -225 CURVE SMOOTH"
);
}
);
width = 589;
},
{
anchors = (
{
name = bottom;
position = "{561, 0}";
},
{
name = top;
position = "{295, 552}";
}
);
layerId = "466C6FD7-E5A4-4003-892F-69A78A0A7E44";
name = Bold;
paths = (
{
closed = 1;
nodes = (
"452 -225 OFFCURVE",
"525 -117 OFFCURVE",
"522 99 CURVE",
"522 520 LINE SMOOTH",
"522 543 OFFCURVE",
"505 554 OFFCURVE",
"459 554 CURVE SMOOTH",
"430 554 LINE SMOOTH",
"385 554 OFFCURVE",
"366 543 OFFCURVE",
"366 520 CURVE SMOOTH",
"366 181 LINE",
"353 158 OFFCURVE",
"325 120 OFFCURVE",
"282 120 CURVE SMOOTH",
"235 120 OFFCURVE",
"219 146 OFFCURVE",
"219 187 CURVE SMOOTH",
"219 520 LINE SMOOTH",
"219 543 OFFCURVE",
"199 554 OFFCURVE",
"155 554 CURVE SMOOTH",
"126 554 LINE SMOOTH",
"82 554 OFFCURVE",
"62 543 OFFCURVE",
"62 520 CURVE SMOOTH",
"62 163 LINE SMOOTH",
"62 45 OFFCURVE",
"112 -8 OFFCURVE",
"218 -8 CURVE SMOOTH",
"304 -8 OFFCURVE",
"374 55 OFFCURVE",
"393 103 CURVE",
"375 143 LINE",
"375 35 LINE SMOOTH",
"375 -52 OFFCURVE",
"324 -102 OFFCURVE",
"242 -102 CURVE SMOOTH",
"161 -102 OFFCURVE",
"107 -57 OFFCURVE",
"95 -57 CURVE SMOOTH",
"87 -57 OFFCURVE",
"82 -68 OFFCURVE",
"82 -100 CURVE SMOOTH",
"82 -113 OFFCURVE",
"83 -129 OFFCURVE",
"85 -149 CURVE SMOOTH",
"88 -194 OFFCURVE",
"179 -225 OFFCURVE",
"287 -225 CURVE SMOOTH"
);
}
);
width = 589;
}
);
},
{
glyphname = g.ss01;
lastChange = "2015-01-29 03:32:02 +0000";
layers = (
{
anchors = (
{
name = top;
position = "{275, 552}";
}
);
layerId = "809BDC91-2406-4790-B9EF-A5FFF608A06A";
name = Regular;
paths = (
{
closed = 1;
nodes = (
"417 -225 OFFCURVE",
"490 -148 OFFCURVE",
"490 105 CURVE SMOOTH",
"490 533 LINE",
"489 547 OFFCURVE",
"482 554 OFFCURVE",
"460 554 CURVE SMOOTH",
"455 554 LINE SMOOTH",
"425 554 OFFCURVE",
"421 533 OFFCURVE",
"413 502 CURVE",
"386 524 OFFCURVE",
"335 559 OFFCURVE",
"268 559 CURVE SMOOTH",
"123 559 OFFCURVE",
"36 445 OFFCURVE",
"36 278 CURVE SMOOTH",
"36 148 OFFCURVE",
"93 0 OFFCURVE",
"244 0 CURVE SMOOTH",
"317 0 OFFCURVE",
"381 40 OFFCURVE",
"414 148 CURVE",
"402 161 LINE",
"402 88 LINE",
"402 -82 OFFCURVE",
"355 -148 OFFCURVE",
"257 -148 CURVE SMOOTH",
"148 -148 OFFCURVE",
"99 -91 OFFCURVE",
"85 -91 CURVE SMOOTH",
"82 -91 OFFCURVE",
"75 -95 OFFCURVE",
"75 -123 CURVE SMOOTH",
"75 -130 OFFCURVE",
"75 -138 OFFCURVE",
"76 -149 CURVE SMOOTH",
"81 -180 OFFCURVE",
"159 -225 OFFCURVE",
"266 -225 CURVE SMOOTH"
);
},
{
closed = 1;
nodes = (
"151 77 OFFCURVE",
"127 185 OFFCURVE",
"127 288 CURVE SMOOTH",
"127 392 OFFCURVE",
"163 482 OFFCURVE",
"285 482 CURVE SMOOTH",
"339 482 OFFCURVE",
"381 457 OFFCURVE",
"404 442 CURVE",
"403 424 OFFCURVE",
"401 407 OFFCURVE",
"401 388 CURVE",
"401 257 LINE",
"371 117 OFFCURVE",
"303 77 OFFCURVE",
"256 77 CURVE SMOOTH"
);
}
);
width = 576.5;
},
{
anchors = (
{
name = top;
position = "{265, 552}";
}
);
layerId = "466C6FD7-E5A4-4003-892F-69A78A0A7E44";
name = Bold;
paths = (
{
closed = 1;
nodes = (
"442 -225 OFFCURVE",
"511 -117 OFFCURVE",
"511 99 CURVE SMOOTH",
"511 529 LINE",
"510 545 OFFCURVE",
"489 554 OFFCURVE",
"446 554 CURVE SMOOTH",
"434 554 LINE SMOOTH",
"381 553 OFFCURVE",
"379 543 OFFCURVE",
"369 506 CURVE",
"346 528 OFFCURVE",
"297 561 OFFCURVE",
"237 561 CURVE SMOOTH",
"107 561 OFFCURVE",
"23 452 OFFCURVE",
"23 284 CURVE SMOOTH",
"23 171 OFFCURVE",
"64 4 OFFCURVE",
"232 4 CURVE SMOOTH",
"303 4 OFFCURVE",
"356 51 OFFCURVE",
"375 105 CURVE",
"354 137 LINE",
"354 35 LINE SMOOTH",
"356 -52 OFFCURVE",
"314 -102 OFFCURVE",
"232 -102 CURVE SMOOTH",
"149 -102 OFFCURVE",
"97 -57 OFFCURVE",
"85 -57 CURVE SMOOTH",
"77 -57 OFFCURVE",
"70 -68 OFFCURVE",
"70 -100 CURVE SMOOTH",
"70 -113 OFFCURVE",
"71 -129 OFFCURVE",
"73 -149 CURVE SMOOTH",
"78 -194 OFFCURVE",
"168 -225 OFFCURVE",
"276 -225 CURVE SMOOTH"
);
},
{
closed = 1;
nodes = (
"195 131 OFFCURVE",
"181 213 OFFCURVE",
"181 285 CURVE SMOOTH",
"181 384 OFFCURVE",
"220 437 OFFCURVE",
"287 437 CURVE SMOOTH",
"316 437 OFFCURVE",
"339 425 OFFCURVE",
"359 411 CURVE",
"358 397 OFFCURVE",
"355 373 OFFCURVE",
"355 343 CURVE",
"355 194 LINE",
"337 161 OFFCURVE",
"314 131 OFFCURVE",
"279 131 CURVE SMOOTH"
);
}
);
width = 576.5;
}
);
},
{
glyphname = fi;
lastChange = "2015-01-29 03:32:03 +0000";
layers = (
{
layerId = "809BDC91-2406-4790-B9EF-A5FFF608A06A";
name = Regular;
paths = (
{
closed = 1;
nodes = (
"161 -2 LINE SMOOTH",
"191 -2 OFFCURVE",
"203 7 OFFCURVE",
"203 22 CURVE SMOOTH",
"203 476 LINE",
"295 476 LINE SMOOTH",
"309 476 OFFCURVE",
"317 487 OFFCURVE",
"317 508 CURVE SMOOTH",
"317 520 LINE SMOOTH",
"317 543 OFFCURVE",
"309 552 OFFCURVE",
"295 552 CURVE SMOOTH",
"203 552 LINE",
"203 645 LINE SMOOTH",
"203 714 OFFCURVE",
"230 722 OFFCURVE",
"260 722 CURVE SMOOTH",
"290 722 OFFCURVE",
"296 718 OFFCURVE",
"305 718 CURVE SMOOTH",
"320 718 OFFCURVE",
"328 759 OFFCURVE",
"328 767 CURVE SMOOTH",
"328 796 OFFCURVE",
"279 799 OFFCURVE",
"251 799 CURVE SMOOTH",
"198 799 OFFCURVE",
"115 780 OFFCURVE",
"115 654 CURVE SMOOTH",
"115 552 LINE",
"72 552 LINE SMOOTH",
"57 552 OFFCURVE",
"51 543 OFFCURVE",
"51 520 CURVE SMOOTH",
"51 508 LINE SMOOTH",
"51 487 OFFCURVE",
"57 476 OFFCURVE",
"72 476 CURVE SMOOTH",
"115 476 LINE",
"115 22 LINE SMOOTH",
"115 7 OFFCURVE",
"127 -2 OFFCURVE",
"157 -2 CURVE SMOOTH"
);
},
{
closed = 1;
nodes = (
"457 -2 LINE SMOOTH",
"487 -2 OFFCURVE",
"499 7 OFFCURVE",
"499 22 CURVE SMOOTH",
"499 532 LINE SMOOTH",
"499 547 OFFCURVE",
"487 554 OFFCURVE",
"457 554 CURVE SMOOTH",
"453 554 LINE SMOOTH",
"424 554 OFFCURVE",
"411 547 OFFCURVE",
"411 532 CURVE SMOOTH",
"411 22 LINE SMOOTH",
"411 7 OFFCURVE",
"424 -2 OFFCURVE",
"453 -2 CURVE SMOOTH"
);
},
{
closed = 1;
nodes = (
"462 686 LINE SMOOTH",
"490 686 OFFCURVE",
"505 693 OFFCURVE",
"505 709 CURVE SMOOTH",
"505 771 LINE SMOOTH",
"505 786 OFFCURVE",
"490 795 OFFCURVE",
"462 795 CURVE SMOOTH",
"448 795 LINE SMOOTH",
"420 795 OFFCURVE",
"406 786 OFFCURVE",
"406 771 CURVE SMOOTH",
"406 709 LINE SMOOTH",
"406 693 OFFCURVE",
"420 686 OFFCURVE",
"448 686 CURVE"
);
}
);
width = 595;
},
{
layerId = "466C6FD7-E5A4-4003-892F-69A78A0A7E44";
name = Bold;
paths = (
{
closed = 1;
nodes = (
"162 -2 LINE SMOOTH",
"206 -2 OFFCURVE",
"225 9 OFFCURVE",
"225 32 CURVE SMOOTH",
"225 428 LINE",
"277 428 LINE SMOOTH",
"300 428 OFFCURVE",
"309 445 OFFCURVE",
"309 482 CURVE SMOOTH",
"309 500 LINE SMOOTH",
"309 537 OFFCURVE",
"300 552 OFFCURVE",
"277 552 CURVE SMOOTH",
"225 552 LINE",
"225 634 LINE SMOOTH",
"225 666 OFFCURVE",
"235 679 OFFCURVE",
"263 679 CURVE SMOOTH",
"273 679 OFFCURVE",
"287 676 OFFCURVE",
"296 676 CURVE SMOOTH",
"317 676 OFFCURVE",
"328 743 OFFCURVE",
"328 752 CURVE SMOOTH",
"328 801 OFFCURVE",
"256 803 OFFCURVE",
"223 803 CURVE SMOOTH",
"124 803 OFFCURVE",
"69 750 OFFCURVE",
"69 632 CURVE SMOOTH",
"69 552 LINE",
"50 552 LINE SMOOTH",
"27 552 OFFCURVE",
"18 537 OFFCURVE",
"18 500 CURVE SMOOTH",
"18 482 LINE SMOOTH",
"18 445 OFFCURVE",
"27 428 OFFCURVE",
"50 428 CURVE SMOOTH",
"69 428 LINE",
"69 32 LINE SMOOTH",
"69 9 OFFCURVE",
"87 -2 OFFCURVE",
"131 -2 CURVE SMOOTH"
);
},
{
closed = 1;
nodes = (
"470 -2 LINE SMOOTH",
"515 -2 OFFCURVE",
"534 9 OFFCURVE",
"534 32 CURVE SMOOTH",
"534 520 LINE SMOOTH",
"534 543 OFFCURVE",
"515 554 OFFCURVE",
"470 554 CURVE SMOOTH",
"442 554 LINE SMOOTH",
"396 554 OFFCURVE",
"378 543 OFFCURVE",
"378 520 CURVE SMOOTH",
"378 32 LINE SMOOTH",
"378 9 OFFCURVE",
"396 -2 OFFCURVE",
"442 -2 CURVE SMOOTH"
);
},
{
closed = 1;
nodes = (
"470 644 LINE SMOOTH",
"515 644 OFFCURVE",
"534 656 OFFCURVE",
"534 677 CURVE SMOOTH",
"534 763 LINE SMOOTH",
"534 785 OFFCURVE",
"515 797 OFFCURVE",
"470 797 CURVE SMOOTH",
"442 797 LINE SMOOTH",
"396 797 OFFCURVE",
"378 785 OFFCURVE",
"378 763 CURVE SMOOTH",
"378 677 LINE SMOOTH",
"378 656 OFFCURVE",
"396 644 OFFCURVE",
"442 644 CURVE"
);
}
);
width = 595;
}
);
unicode = FB01;
},
{
glyphname = fl;
lastChange = "2015-01-29 03:32:03 +0000";
layers = (
{
layerId = "809BDC91-2406-4790-B9EF-A5FFF608A06A";
name = Regular;
paths = (
{
closed = 1;
nodes = (
"161 -2 LINE SMOOTH",
"191 -2 OFFCURVE",
"203 7 OFFCURVE",
"203 22 CURVE SMOOTH",
"203 476 LINE",
"295 476 LINE SMOOTH",
"309 476 OFFCURVE",
"317 487 OFFCURVE",
"317 508 CURVE SMOOTH",
"317 520 LINE SMOOTH",
"317 543 OFFCURVE",
"309 552 OFFCURVE",
"295 552 CURVE SMOOTH",
"203 552 LINE",
"203 645 LINE SMOOTH",
"203 714 OFFCURVE",
"230 722 OFFCURVE",
"260 722 CURVE SMOOTH",
"290 722 OFFCURVE",
"296 718 OFFCURVE",
"305 718 CURVE SMOOTH",
"320 718 OFFCURVE",
"328 759 OFFCURVE",
"328 767 CURVE SMOOTH",
"328 796 OFFCURVE",
"279 799 OFFCURVE",
"251 799 CURVE SMOOTH",
"198 799 OFFCURVE",
"115 780 OFFCURVE",
"115 654 CURVE SMOOTH",
"115 552 LINE",
"72 552 LINE SMOOTH",
"57 552 OFFCURVE",
"51 543 OFFCURVE",
"51 520 CURVE SMOOTH",
"51 508 LINE SMOOTH",
"51 487 OFFCURVE",
"57 476 OFFCURVE",
"72 476 CURVE SMOOTH",
"115 476 LINE",
"115 22 LINE SMOOTH",
"115 7 OFFCURVE",
"127 -2 OFFCURVE",
"157 -2 CURVE SMOOTH"
);
},
{
closed = 1;
nodes = (
"566 -7 OFFCURVE",
"614 -3 OFFCURVE",
"614 25 CURVE SMOOTH",
"614 34 OFFCURVE",
"607 75 OFFCURVE",
"593 75 CURVE SMOOTH",
"582 75 OFFCURVE",
"578 71 OFFCURVE",
"548 71 CURVE SMOOTH",
"517 71 OFFCURVE",
"489 85 OFFCURVE",
"489 148 CURVE SMOOTH",
"489 771 LINE SMOOTH",
"489 786 OFFCURVE",
"477 795 OFFCURVE",
"447 795 CURVE SMOOTH",
"443 795 LINE SMOOTH",
"413 795 OFFCURVE",
"401 786 OFFCURVE",
"401 771 CURVE SMOOTH",
"401 140 LINE SMOOTH",
"401 18 OFFCURVE",
"485 -7 OFFCURVE",
"537 -7 CURVE SMOOTH"
);
}
);
width = 624.5;
},
{
layerId = "466C6FD7-E5A4-4003-892F-69A78A0A7E44";
name = Bold;
paths = (
{
closed = 1;
nodes = (
"162 -2 LINE SMOOTH",
"206 -2 OFFCURVE",
"225 9 OFFCURVE",
"225 32 CURVE SMOOTH",
"225 428 LINE",
"277 428 LINE SMOOTH",
"300 428 OFFCURVE",
"309 445 OFFCURVE",
"309 482 CURVE SMOOTH",
"309 500 LINE SMOOTH",
"309 537 OFFCURVE",
"300 552 OFFCURVE",
"277 552 CURVE SMOOTH",
"225 552 LINE",
"225 634 LINE SMOOTH",
"225 666 OFFCURVE",
"235 679 OFFCURVE",
"263 679 CURVE SMOOTH",
"273 679 OFFCURVE",
"287 676 OFFCURVE",
"296 676 CURVE SMOOTH",
"317 676 OFFCURVE",
"328 743 OFFCURVE",
"328 752 CURVE SMOOTH",
"328 801 OFFCURVE",
"256 803 OFFCURVE",
"223 803 CURVE SMOOTH",
"124 803 OFFCURVE",
"69 750 OFFCURVE",
"69 632 CURVE SMOOTH",
"69 552 LINE",
"50 552 LINE SMOOTH",
"27 552 OFFCURVE",
"18 537 OFFCURVE",
"18 500 CURVE SMOOTH",
"18 482 LINE SMOOTH",
"18 445 OFFCURVE",
"27 428 OFFCURVE",
"50 428 CURVE SMOOTH",
"69 428 LINE",
"69 32 LINE SMOOTH",
"69 9 OFFCURVE",
"87 -2 OFFCURVE",
"131 -2 CURVE SMOOTH"
);
},
{
closed = 1;
nodes = (
"564 -8 OFFCURVE",
"633 -6 OFFCURVE",
"633 43 CURVE SMOOTH",
"633 52 OFFCURVE",
"622 119 OFFCURVE",
"600 119 CURVE SMOOTH",
"594 119 OFFCURVE",
"582 116 OFFCURVE",
"572 116 CURVE SMOOTH",
"544 116 OFFCURVE",
"534 129 OFFCURVE",
"534 161 CURVE SMOOTH",
"534 763 LINE SMOOTH",
"534 785 OFFCURVE",
"515 797 OFFCURVE",
"470 797 CURVE SMOOTH",
"442 797 LINE SMOOTH",
"396 797 OFFCURVE",
"378 785 OFFCURVE",
"378 763 CURVE SMOOTH",
"378 163 LINE SMOOTH",
"378 45 OFFCURVE",
"432 -8 OFFCURVE",
"532 -8 CURVE SMOOTH"
);
}
);
width = 624.5;
}
);
unicode = FB02;
},
{
glyphname = ordfeminine;
lastChange = "2015-01-29 03:32:03 +0000";
layers = (
{
layerId = "809BDC91-2406-4790-B9EF-A5FFF608A06A";
name = Regular;
paths = (
{
closed = 1;
nodes = (
"177 466 OFFCURVE",
"205 485 OFFCURVE",
"226 506 CURVE",
"227 491 OFFCURVE",
"231 469 OFFCURVE",
"243 469 CURVE SMOOTH",
"250 469 OFFCURVE",
"273 472 OFFCURVE",
"273 481 CURVE SMOOTH",
"273 485 OFFCURVE",
"265 505 OFFCURVE",
"265 547 CURVE SMOOTH",
"265 664 LINE SMOOTH",
"265 716 OFFCURVE",
"226 746 OFFCURVE",
"162 746 CURVE SMOOTH",
"110 746 OFFCURVE",
"64 725 OFFCURVE",
"64 712 CURVE SMOOTH",
"64 707 OFFCURVE",
"75 687 OFFCURVE",
"83 687 CURVE SMOOTH",
"87 687 OFFCURVE",
"117 708 OFFCURVE",
"163 708 CURVE SMOOTH",
"208 708 OFFCURVE",
"222 688 OFFCURVE",
"222 665 CURVE SMOOTH",
"222 639 LINE",
"141 638 OFFCURVE",
"47 633 OFFCURVE",
"47 544 CURVE SMOOTH",
"47 491 OFFCURVE",
"86 466 OFFCURVE",
"136 466 CURVE SMOOTH"
);
},
{
closed = 1;
nodes = (
"110 505 OFFCURVE",
"95 519 OFFCURVE",
"95 548 CURVE SMOOTH",
"95 602 OFFCURVE",
"167 602 OFFCURVE",
"222 602 CURVE",
"222 540 LINE",
"201 520 OFFCURVE",
"178 505 OFFCURVE",
"138 505 CURVE SMOOTH"
);
}
);
width = 337;
},
{
layerId = "466C6FD7-E5A4-4003-892F-69A78A0A7E44";
name = Bold;
paths = (
{
closed = 1;
nodes = (
"170 465 OFFCURVE",
"197 498 OFFCURVE",
"200 505 CURVE",
"203 490 OFFCURVE",
"204 468 OFFCURVE",
"220 468 CURVE SMOOTH",
"234 468 OFFCURVE",
"279 473 OFFCURVE",
"279 487 CURVE SMOOTH",
"279 496 OFFCURVE",
"273 507 OFFCURVE",
"273 561 CURVE SMOOTH",
"273 660 LINE SMOOTH",
"273 711 OFFCURVE",
"243 749 OFFCURVE",
"161 749 CURVE SMOOTH",
"102 749 OFFCURVE",
"61 729 OFFCURVE",
"61 712 CURVE SMOOTH",
"61 701 OFFCURVE",
"76 670 OFFCURVE",
"86 670 CURVE SMOOTH",
"93 670 OFFCURVE",
"116 686 OFFCURVE",
"155 686 CURVE SMOOTH",
"183 686 OFFCURVE",
"195 677 OFFCURVE",
"195 657 CURVE SMOOTH",
"195 639 LINE",
"63 639 OFFCURVE",
"44 584 OFFCURVE",
"44 541 CURVE SMOOTH",
"44 498 OFFCURVE",
"66 465 OFFCURVE",
"121 465 CURVE SMOOTH"
);
},
{
closed = 1;
nodes = (
"130 527 OFFCURVE",
"121 537 OFFCURVE",
"121 550 CURVE SMOOTH",
"121 575 OFFCURVE",
"147 587 OFFCURVE",
"195 587 CURVE",
"195 559 LINE",
"188 540 OFFCURVE",
"168 527 OFFCURVE",
"148 527 CURVE SMOOTH"
);
}
);
width = 337;
}
);
unicode = 00AA;
},
{
glyphname = ordmasculine;
lastChange = "2015-01-29 03:32:03 +0000";
layers = (
{
layerId = "809BDC91-2406-4790-B9EF-A5FFF608A06A";
name = Regular;
paths = (
{
closed = 1;
nodes = (
"256 466 OFFCURVE",
"298 515 OFFCURVE",
"298 604 CURVE SMOOTH",
"298 697 OFFCURVE",
"256 746 OFFCURVE",
"179 746 CURVE SMOOTH",
"101 746 OFFCURVE",
"57 696 OFFCURVE",
"57 604 CURVE SMOOTH",
"57 515 OFFCURVE",
"101 466 OFFCURVE",
"179 466 CURVE SMOOTH"
);
},
{
closed = 1;
nodes = (
"127 505 OFFCURVE",
"103 537 OFFCURVE",
"103 605 CURVE SMOOTH",
"103 676 OFFCURVE",
"127 708 OFFCURVE",
"178 708 CURVE SMOOTH",
"229 708 OFFCURVE",
"253 676 OFFCURVE",
"253 605 CURVE SMOOTH",
"253 537 OFFCURVE",
"229 505 OFFCURVE",
"178 505 CURVE SMOOTH"
);
}
);
width = 356.5;
},
{
layerId = "466C6FD7-E5A4-4003-892F-69A78A0A7E44";
name = Bold;
paths = (
{
closed = 1;
nodes = (
"261 466 OFFCURVE",
"304 516 OFFCURVE",
"304 607 CURVE SMOOTH",
"304 699 OFFCURVE",
"261 749 OFFCURVE",
"178 749 CURVE SMOOTH",
"94 749 OFFCURVE",
"50 699 OFFCURVE",
"50 607 CURVE SMOOTH",
"50 516 OFFCURVE",
"94 466 OFFCURVE",
"178 466 CURVE SMOOTH"
);
},
{
closed = 1;
nodes = (
"145 528 OFFCURVE",
"129 554 OFFCURVE",
"129 607 CURVE SMOOTH",
"129 660 OFFCURVE",
"145 687 OFFCURVE",
"178 687 CURVE SMOOTH",
"211 687 OFFCURVE",
"226 660 OFFCURVE",
"226 607 CURVE SMOOTH",
"226 554 OFFCURVE",
"211 528 OFFCURVE",
"178 528 CURVE SMOOTH"
);
}
);
width = 356.5;
}
);
unicode = 00BA;
},
{
glyphname = Delta;
lastChange = "2015-01-29 03:32:03 +0000";
layers = (
{
layerId = "809BDC91-2406-4790-B9EF-A5FFF608A06A";
name = Regular;
paths = (
{
closed = 1;
nodes = (
"679 0 LINE SMOOTH",
"701 0 OFFCURVE",
"711 12 OFFCURVE",
"711 32 CURVE",
"711 35 LINE",
"711 47 OFFCURVE",
"708 58 OFFCURVE",
"703 71 CURVE SMOOTH",
"425 725 LINE SMOOTH",
"417 743 OFFCURVE",
"406 751 OFFCURVE",
"388 751 CURVE SMOOTH",
"361 751 LINE SMOOTH",
"342 751 OFFCURVE",
"331 743 OFFCURVE",
"323 725 CURVE SMOOTH",
"44 71 LINE SMOOTH",
"39 56 OFFCURVE",
"36 46 OFFCURVE",
"36 32 CURVE",
"36 30 LINE",
"38 10 OFFCURVE",
"49 0 OFFCURVE",
"68 0 CURVE SMOOTH"
);
},
{
closed = 1;
nodes = (
"370 655 LINE",
"375 655 LINE",
"621 72 LINE",
"123 72 LINE"
);
}
);
width = 748.5;
},
{
layerId = "466C6FD7-E5A4-4003-892F-69A78A0A7E44";
name = Bold;
paths = (
{
closed = 1;
nodes = (
"677 0 LINE SMOOTH",
"701 0 OFFCURVE",
"713 13 OFFCURVE",
"713 38 CURVE SMOOTH",
"713 91 LINE SMOOTH",
"713 109 OFFCURVE",
"711 121 OFFCURVE",
"705 137 CURVE SMOOTH",
"447 722 LINE SMOOTH",
"440 742 OFFCURVE",
"426 751 OFFCURVE",
"404 751 CURVE SMOOTH",
"340 751 LINE SMOOTH",
"318 751 OFFCURVE",
"305 742 OFFCURVE",
"297 722 CURVE SMOOTH",
"40 137 LINE SMOOTH",
"33 121 OFFCURVE",
"30 109 OFFCURVE",
"30 91 CURVE SMOOTH",
"30 38 LINE SMOOTH",
"30 13 OFFCURVE",
"43 0 OFFCURVE",
"67 0 CURVE SMOOTH"
);
},
{
closed = 1;
nodes = (
"366 542 LINE",
"378 542 LINE",
"552 137 LINE",
"191 137 LINE"
);
}
);
width = 748.5;
}
);
unicode = 0394;
},
{
glyphname = Omega;
lastChange = "2015-01-29 03:32:02 +0000";
layers = (
{
anchors = (
{
name = topleft;
position = "{22, 740}";
}
);
layerId = "809BDC91-2406-4790-B9EF-A5FFF608A06A";
name = Regular;
paths = (
{
closed = 1;
nodes = (
"316 0 LINE SMOOTH",
"330 0 OFFCURVE",
"336 9 OFFCURVE",
"336 32 CURVE SMOOTH",
"336 36 LINE SMOOTH",
"336 46 OFFCURVE",
"336 53 OFFCURVE",
"329 55 CURVE SMOOTH",
"212 85 OFFCURVE",
"157 185 OFFCURVE",
"157 372 CURVE SMOOTH",
"157 567 OFFCURVE",
"237 666 OFFCURVE",
"385 666 CURVE SMOOTH",
"536 666 OFFCURVE",
"616 567 OFFCURVE",
"616 372 CURVE SMOOTH",
"616 185 OFFCURVE",
"559 85 OFFCURVE",
"444 55 CURVE SMOOTH",
"435 53 OFFCURVE",
"435 46 OFFCURVE",
"435 36 CURVE SMOOTH",
"435 32 LINE SMOOTH",
"435 9 OFFCURVE",
"443 0 OFFCURVE",
"457 0 CURVE SMOOTH",
"708 0 LINE SMOOTH",
"722 0 OFFCURVE",
"728 9 OFFCURVE",
"728 32 CURVE SMOOTH",
"728 40 LINE SMOOTH",
"728 63 OFFCURVE",
"722 72 OFFCURVE",
"708 72 CURVE SMOOTH",
"684 72 OFFCURVE",
"628 70 OFFCURVE",
"604 68 CURVE",
"676 133 OFFCURVE",
"712 235 OFFCURVE",
"712 372 CURVE SMOOTH",
"712 619 OFFCURVE",
"598 746 OFFCURVE",
"385 746 CURVE SMOOTH",
"174 746 OFFCURVE",
"61 619 OFFCURVE",
"61 372 CURVE SMOOTH",
"61 235 OFFCURVE",
"97 133 OFFCURVE",
"167 68 CURVE",
"145 70 OFFCURVE",
"87 72 OFFCURVE",
"65 72 CURVE SMOOTH",
"50 72 OFFCURVE",
"43 63 OFFCURVE",
"43 40 CURVE SMOOTH",
"43 32 LINE SMOOTH",
"43 9 OFFCURVE",
"50 0 OFFCURVE",
"65 0 CURVE SMOOTH"
);
}
);
width = 772;
},
{
anchors = (
{
name = topleft;
position = "{22, 740}";
}
);
layerId = "466C6FD7-E5A4-4003-892F-69A78A0A7E44";
name = Bold;
paths = (
{
closed = 1;
nodes = (
"319 0 LINE SMOOTH",
"342 0 OFFCURVE",
"351 16 OFFCURVE",
"351 53 CURVE SMOOTH",
"351 81 LINE SMOOTH",
"351 103 OFFCURVE",
"349 113 OFFCURVE",
"337 117 CURVE SMOOTH",
"260 141 OFFCURVE",
"214 221 OFFCURVE",
"214 370 CURVE SMOOTH",
"214 526 OFFCURVE",
"273 609 OFFCURVE",
"386 609 CURVE SMOOTH",
"499 609 OFFCURVE",
"559 526 OFFCURVE",
"559 370 CURVE SMOOTH",
"559 221 OFFCURVE",
"513 141 OFFCURVE",
"436 117 CURVE SMOOTH",
"424 113 OFFCURVE",
"422 103 OFFCURVE",
"422 81 CURVE SMOOTH",
"422 53 LINE SMOOTH",
"422 16 OFFCURVE",
"431 0 OFFCURVE",
"453 0 CURVE SMOOTH",
"713 0 LINE SMOOTH",
"737 0 OFFCURVE",
"745 16 OFFCURVE",
"745 53 CURVE SMOOTH",
"745 85 LINE SMOOTH",
"745 123 OFFCURVE",
"737 138 OFFCURVE",
"713 138 CURVE SMOOTH",
"679 138 OFFCURVE",
"627 119 OFFCURVE",
"627 119 CURVE",
"693 187 OFFCURVE",
"725 277 OFFCURVE",
"725 381 CURVE SMOOTH",
"725 618 OFFCURVE",
"604 749 OFFCURVE",
"386 749 CURVE SMOOTH",
"169 749 OFFCURVE",
"47 618 OFFCURVE",
"47 381 CURVE SMOOTH",
"47 277 OFFCURVE",
"79 187 OFFCURVE",
"146 119 CURVE",
"146 119 OFFCURVE",
"94 138 OFFCURVE",
"59 138 CURVE SMOOTH",
"38 138 OFFCURVE",
"27 123 OFFCURVE",
"27 85 CURVE SMOOTH",
"27 53 LINE SMOOTH",
"27 16 OFFCURVE",
"38 0 OFFCURVE",
"59 0 CURVE"
);
}
);
width = 772;
}
);
unicode = 03A9;
},
{
glyphname = mu;
lastChange = "2015-01-29 03:32:03 +0000";
layers = (
{
layerId = "809BDC91-2406-4790-B9EF-A5FFF608A06A";
name = Regular;
paths = (
{
closed = 1;
nodes = (
"136 -220 LINE SMOOTH",
"166 -220 OFFCURVE",
"179 -211 OFFCURVE",
"179 -197 CURVE SMOOTH",
"179 50 LINE",
"159 20 LINE",
"184 4 OFFCURVE",
"221 -7 OFFCURVE",
"262 -7 CURVE SMOOTH",
"321 -7 OFFCURVE",
"382 24 OFFCURVE",
"427 73 CURVE",
"433 43 OFFCURVE",
"439 -1 OFFCURVE",
"464 -1 CURVE SMOOTH",
"477 -1 OFFCURVE",
"520 3 OFFCURVE",
"520 24 CURVE SMOOTH",
"520 29 OFFCURVE",
"508 71 OFFCURVE",
"508 157 CURVE SMOOTH",
"508 532 LINE SMOOTH",
"508 547 OFFCURVE",
"496 554 OFFCURVE",
"466 554 CURVE SMOOTH",
"462 554 LINE SMOOTH",
"432 554 OFFCURVE",
"420 547 OFFCURVE",
"420 532 CURVE SMOOTH",
"420 146 LINE",
"384 100 OFFCURVE",
"335 71 OFFCURVE",
"287 71 CURVE SMOOTH",
"218 71 OFFCURVE",
"179 109 OFFCURVE",
"179 173 CURVE SMOOTH",
"179 532 LINE SMOOTH",
"179 547 OFFCURVE",
"166 554 OFFCURVE",
"136 554 CURVE SMOOTH",
"131 554 LINE SMOOTH",
"103 554 OFFCURVE",
"89 547 OFFCURVE",
"89 532 CURVE SMOOTH",
"89 -197 LINE SMOOTH",
"89 -211 OFFCURVE",
"103 -220 OFFCURVE",
"131 -220 CURVE SMOOTH"
);
}
);
width = 598;
},
{
layerId = "466C6FD7-E5A4-4003-892F-69A78A0A7E44";
name = Bold;
paths = (
{
closed = 1;
nodes = (
"148 -218 LINE SMOOTH",
"193 -218 OFFCURVE",
"212 -206 OFFCURVE",
"212 -184 CURVE SMOOTH",
"212 63 LINE",
"158 -1 LINE",
"177 -7 OFFCURVE",
"193 -8 OFFCURVE",
"210 -8 CURVE SMOOTH",
"278 -8 OFFCURVE",
"338 31 OFFCURVE",
"368 72 CURVE",
"375 43 OFFCURVE",
"378 -1 OFFCURVE",
"411 -1 CURVE SMOOTH",
"437 -1 OFFCURVE",
"529 8 OFFCURVE",
"529 33 CURVE SMOOTH",
"529 55 OFFCURVE",
"517 77 OFFCURVE",
"517 187 CURVE SMOOTH",
"517 520 LINE SMOOTH",
"517 543 OFFCURVE",
"497 554 OFFCURVE",
"453 554 CURVE SMOOTH",
"424 554 LINE SMOOTH",
"380 554 OFFCURVE",
"360 543 OFFCURVE",
"360 520 CURVE SMOOTH",
"360 181 LINE",
"348 158 OFFCURVE",
"318 120 OFFCURVE",
"275 120 CURVE SMOOTH",
"229 120 OFFCURVE",
"212 146 OFFCURVE",
"212 187 CURVE SMOOTH",
"212 520 LINE SMOOTH",
"212 543 OFFCURVE",
"193 554 OFFCURVE",
"148 554 CURVE SMOOTH",
"119 554 LINE SMOOTH",
"75 554 OFFCURVE",
"55 543 OFFCURVE",
"55 520 CURVE SMOOTH",
"55 -184 LINE SMOOTH",
"55 -206 OFFCURVE",
"75 -218 OFFCURVE",
"119 -218 CURVE SMOOTH"
);
}
);
width = 598;
}
);
unicode = 03BC;
},
{
glyphname = pi;
lastChange = "2015-01-29 03:32:03 +0000";
layers = (
{
layerId = "809BDC91-2406-4790-B9EF-A5FFF608A06A";
name = Regular;
paths = (
{
closed = 1;
nodes = (
"124 -2 LINE SMOOTH",
"141 -2 OFFCURVE",
"152 8 OFFCURVE",
"159 24 CURVE SMOOTH",
"197 133 OFFCURVE",
"230 342 OFFCURVE",
"236 476 CURVE",
"443 476 LINE",
"443 155 LINE SMOOTH",
"443 42 OFFCURVE",
"445 -2 OFFCURVE",
"488 -2 CURVE SMOOTH",
"513 -2 LINE SMOOTH",
"532 -2 OFFCURVE",
"540 8 OFFCURVE",
"540 24 CURVE SMOOTH",
"540 51 OFFCURVE",
"531 91 OFFCURVE",
"531 163 CURVE SMOOTH",
"531 476 LINE",
"590 476 LINE SMOOTH",
"608 476 OFFCURVE",
"620 481 OFFCURVE",
"622 500 CURVE SMOOTH",
"625 528 OFFCURVE",
"625 531 OFFCURVE",
"625 533 CURVE SMOOTH",
"625 549 OFFCURVE",
"615 552 OFFCURVE",
"600 552 CURVE SMOOTH",
"171 552 LINE SMOOTH",
"79 552 OFFCURVE",
"14 542 OFFCURVE",
"14 506 CURVE SMOOTH",
"14 482 OFFCURVE",
"19 467 OFFCURVE",
"36 467 CURVE SMOOTH",
"54 467 OFFCURVE",
"65 476 OFFCURVE",
"147 476 CURVE",
"141 338 OFFCURVE",
"110 148 OFFCURVE",
"71 30 CURVE SMOOTH",
"70 26 OFFCURVE",
"70 24 OFFCURVE",
"70 21 CURVE SMOOTH",
"70 8 OFFCURVE",
"81 -2 OFFCURVE",
"99 -2 CURVE SMOOTH"
);
}
);
width = 650;
},
{
layerId = "466C6FD7-E5A4-4003-892F-69A78A0A7E44";
name = Bold;
paths = (
{
closed = 1;
nodes = (
"142 -2 LINE SMOOTH",
"179 -2 OFFCURVE",
"208 8 OFFCURVE",
"215 29 CURVE SMOOTH",
"253 119 OFFCURVE",
"285 298 OFFCURVE",
"290 428 CURVE",
"389 428 LINE",
"389 126 LINE SMOOTH",
"389 78 OFFCURVE",
"394 -2 OFFCURVE",
"458 -2 CURVE SMOOTH",
"488 -2 LINE SMOOTH",
"532 -2 OFFCURVE",
"552 10 OFFCURVE",
"552 30 CURVE SMOOTH",
"552 35 OFFCURVE",
"542 74 OFFCURVE",
"542 163 CURVE SMOOTH",
"542 428 LINE",
"592 428 LINE SMOOTH",
"616 428 OFFCURVE",
"629 442 OFFCURVE",
"630 464 CURVE SMOOTH",
"635 517 OFFCURVE",
"635 518 OFFCURVE",
"635 520 CURVE SMOOTH",
"635 541 OFFCURVE",
"623 552 OFFCURVE",
"598 552 CURVE SMOOTH",
"171 552 LINE SMOOTH",
"85 552 OFFCURVE",
"6 543 OFFCURVE",
"6 500 CURVE SMOOTH",
"6 497 OFFCURVE",
"7 416 OFFCURVE",
"43 416 CURVE SMOOTH",
"53 416 OFFCURVE",
"77 428 OFFCURVE",
"137 428 CURVE",
"131 300 OFFCURVE",
"100 136 OFFCURVE",
"64 33 CURVE SMOOTH",
"63 29 OFFCURVE",
"62 25 OFFCURVE",
"62 23 CURVE SMOOTH",
"62 8 OFFCURVE",
"86 -2 OFFCURVE",
"128 -2 CURVE SMOOTH"
);
}
);
width = 650;
}
);
unicode = 03C0;
},
